<svg xmlns="http://www.w3.org/2000/svg" xmlns:xlink="http://www.w3.org/1999/xlink" viewBox="0 0 548.67 59.33"><defs><style>.cls-1{fill:url(#linear-gradient);}.cls-2{opacity:0.11;}.cls-3{fill:#52c883;}.cls-4{fill:#231f20;}.cls-5{clip-path:url(#clip-path);}.cls-6{fill:url(#linear-gradient-3);}.cls-7{fill:url(#linear-gradient-4);}.cls-8{fill:url(#linear-gradient-5);}.cls-9{fill:url(#linear-gradient-6);}.cls-10{fill:url(#linear-gradient-7);}.cls-11{fill:url(#linear-gradient-8);}.cls-12{fill:url(#linear-gradient-9);}.cls-13{fill:url(#linear-gradient-10);}.cls-14{fill:url(#linear-gradient-11);}.cls-15{fill:url(#linear-gradient-12);}.cls-16{fill:url(#linear-gradient-13);}.cls-17{fill:url(#linear-gradient-14);}.cls-18{fill:url(#linear-gradient-15);}.cls-19{fill:url(#linear-gradient-16);}.cls-20{fill:url(#linear-gradient-17);}.cls-21{fill:url(#linear-gradient-18);}.cls-22{fill:url(#linear-gradient-19);}.cls-23{fill:url(#linear-gradient-20);}.cls-24{fill:url(#linear-gradient-21);}.cls-25{fill:url(#linear-gradient-22);}.cls-26{fill:url(#linear-gradient-23);}.cls-27{fill:url(#linear-gradient-24);}.cls-28{fill:url(#linear-gradient-25);}.cls-29{fill:url(#linear-gradient-26);}.cls-30{fill:url(#linear-gradient-27);}.cls-31{fill:url(#linear-gradient-28);}.cls-32{fill:url(#linear-gradient-29);}.cls-33{fill:url(#linear-gradient-30);}.cls-34{fill:url(#linear-gradient-31);}.cls-35{fill:url(#linear-gradient-32);}.cls-36{fill:url(#linear-gradient-33);}.cls-37{fill:url(#linear-gradient-34);}.cls-38{fill:url(#linear-gradient-35);}.cls-39{fill:url(#linear-gradient-36);}.cls-40{fill:url(#linear-gradient-37);}.cls-41{fill:url(#linear-gradient-38);}.cls-42{fill:url(#linear-gradient-39);}.cls-43{fill:url(#linear-gradient-40);}.cls-44{fill:url(#linear-gradient-41);}.cls-45{fill:url(#linear-gradient-42);}.cls-46{fill:url(#linear-gradient-43);}.cls-47{fill:url(#linear-gradient-44);}.cls-48{fill:url(#linear-gradient-45);}.cls-49{fill:url(#linear-gradient-46);}.cls-50{fill:url(#linear-gradient-47);}.cls-51{fill:url(#linear-gradient-48);}.cls-52{fill:url(#linear-gradient-49);}.cls-53{fill:url(#linear-gradient-50);}.cls-54{fill:url(#linear-gradient-51);}.cls-55{fill:url(#linear-gradient-52);}.cls-56{fill:url(#linear-gradient-53);}.cls-57{fill:url(#linear-gradient-54);}.cls-58{fill:url(#linear-gradient-55);}.cls-59{fill:url(#linear-gradient-56);}.cls-60{fill:url(#linear-gradient-57);}.cls-61{fill:url(#linear-gradient-58);}.cls-62{fill:url(#linear-gradient-59);}.cls-63{fill:url(#linear-gradient-60);}.cls-64{fill:url(#linear-gradient-61);}.cls-65{fill:url(#linear-gradient-62);}.cls-66{fill:url(#linear-gradient-63);}.cls-67{fill:url(#linear-gradient-64);}.cls-68{fill:url(#linear-gradient-65);}.cls-69{fill:url(#linear-gradient-66);}.cls-70{fill:url(#linear-gradient-67);}.cls-71{fill:url(#linear-gradient-68);}.cls-72{fill:url(#linear-gradient-69);}.cls-73{fill:url(#linear-gradient-70);}.cls-74{fill:url(#linear-gradient-71);}.cls-75{fill:url(#linear-gradient-72);}.cls-76{fill:url(#linear-gradient-73);}.cls-77{fill:url(#linear-gradient-74);}.cls-78{fill:url(#linear-gradient-75);}.cls-79{fill:url(#linear-gradient-76);}.cls-80{fill:url(#linear-gradient-77);}.cls-81{fill:url(#linear-gradient-78);}.cls-82{fill:url(#linear-gradient-79);}.cls-83{fill:url(#linear-gradient-80);}.cls-84{fill:url(#linear-gradient-81);}.cls-85{fill:url(#linear-gradient-82);}.cls-86{fill:url(#linear-gradient-83);}.cls-87{fill:url(#linear-gradient-84);}.cls-88{fill:url(#linear-gradient-85);}.cls-89{fill:url(#linear-gradient-86);}.cls-90{fill:url(#linear-gradient-87);}.cls-91{fill:url(#linear-gradient-88);}.cls-92{fill:url(#linear-gradient-89);}.cls-93{fill:url(#linear-gradient-90);}.cls-94{fill:url(#linear-gradient-91);}.cls-95{fill:url(#linear-gradient-92);}.cls-96{fill:url(#linear-gradient-93);}.cls-97{fill:url(#linear-gradient-94);}.cls-98{fill:url(#linear-gradient-95);}.cls-99{fill:url(#linear-gradient-96);}.cls-100{fill:url(#linear-gradient-97);}.cls-101{fill:url(#linear-gradient-98);}.cls-102{fill:url(#linear-gradient-99);}.cls-103{fill:url(#linear-gradient-100);}.cls-104{fill:url(#linear-gradient-101);}.cls-105{fill:url(#linear-gradient-102);}.cls-106{fill:url(#linear-gradient-103);}.cls-107{fill:url(#linear-gradient-104);}.cls-108{fill:url(#linear-gradient-105);}.cls-109{fill:url(#linear-gradient-106);}.cls-110{fill:url(#linear-gradient-107);}.cls-111{fill:url(#linear-gradient-108);}.cls-112{fill:url(#linear-gradient-109);}.cls-113{fill:url(#linear-gradient-110);}.cls-114{fill:url(#linear-gradient-111);}.cls-115{fill:url(#linear-gradient-112);}.cls-116{fill:url(#linear-gradient-113);}.cls-117{fill:url(#linear-gradient-114);}.cls-118{fill:url(#linear-gradient-115);}.cls-119{fill:url(#linear-gradient-116);}.cls-120{fill:url(#linear-gradient-117);}.cls-121{fill:url(#linear-gradient-118);}.cls-122{fill:url(#linear-gradient-119);}.cls-123{fill:url(#linear-gradient-120);}.cls-124{fill:url(#linear-gradient-121);}.cls-125{fill:url(#linear-gradient-122);}.cls-126{fill:url(#linear-gradient-123);}.cls-127{fill:url(#linear-gradient-124);}.cls-128{fill:url(#linear-gradient-125);}.cls-129{fill:url(#linear-gradient-126);}.cls-130{fill:url(#linear-gradient-127);}.cls-131{fill:url(#linear-gradient-128);}.cls-132{fill:url(#linear-gradient-129);}.cls-133{fill:url(#linear-gradient-131);}.cls-134{fill:url(#linear-gradient-132);}.cls-135{fill:url(#linear-gradient-133);}.cls-136{fill:url(#linear-gradient-134);}.cls-137{fill:url(#linear-gradient-135);}.cls-138{fill:url(#linear-gradient-136);}.cls-139{fill:url(#linear-gradient-137);}.cls-140{fill:url(#linear-gradient-138);}.cls-141{fill:url(#linear-gradient-139);}.cls-142{fill:url(#linear-gradient-140);}.cls-143{fill:url(#linear-gradient-141);}.cls-144{fill:url(#linear-gradient-142);}.cls-145{fill:url(#linear-gradient-143);}.cls-146{fill:url(#linear-gradient-144);}.cls-147{fill:url(#linear-gradient-145);}.cls-148{fill:url(#linear-gradient-146);}.cls-149{fill:url(#linear-gradient-147);}.cls-150{fill:url(#linear-gradient-148);}.cls-151{fill:url(#linear-gradient-149);}.cls-152{fill:url(#linear-gradient-150);}.cls-153{fill:url(#linear-gradient-151);}.cls-154{fill:url(#linear-gradient-152);}.cls-155{fill:url(#linear-gradient-153);}.cls-156{fill:url(#linear-gradient-154);}.cls-157{fill:url(#linear-gradient-155);}.cls-158{fill:url(#linear-gradient-156);}.cls-159{fill:url(#linear-gradient-157);}.cls-160{fill:url(#linear-gradient-158);}.cls-161{fill:url(#linear-gradient-159);}.cls-162{fill:url(#linear-gradient-160);}.cls-163{fill:url(#linear-gradient-161);}.cls-164{fill:url(#linear-gradient-162);}.cls-165{fill:url(#linear-gradient-163);}.cls-166{fill:url(#linear-gradient-164);}.cls-167{fill:url(#linear-gradient-165);}.cls-168{fill:url(#linear-gradient-166);}.cls-169{fill:url(#linear-gradient-167);}.cls-170{fill:url(#linear-gradient-168);}.cls-171{fill:url(#linear-gradient-169);}.cls-172{fill:url(#linear-gradient-170);}.cls-173{fill:url(#linear-gradient-171);}.cls-174{fill:url(#linear-gradient-172);}.cls-175{fill:url(#linear-gradient-173);}.cls-176{fill:url(#linear-gradient-174);}.cls-177{fill:url(#linear-gradient-175);}.cls-178{fill:url(#linear-gradient-176);}.cls-179{fill:url(#linear-gradient-177);}.cls-180{fill:url(#linear-gradient-178);}.cls-181{fill:url(#linear-gradient-179);}.cls-182{fill:url(#linear-gradient-180);}.cls-183{fill:url(#linear-gradient-181);}.cls-184{fill:url(#linear-gradient-182);}.cls-185{fill:url(#linear-gradient-183);}.cls-186{fill:url(#linear-gradient-184);}.cls-187{fill:url(#linear-gradient-185);}.cls-188{fill:url(#linear-gradient-186);}.cls-189{fill:url(#linear-gradient-187);}.cls-190{fill:url(#linear-gradient-188);}.cls-191{fill:url(#linear-gradient-189);}.cls-192{fill:url(#linear-gradient-190);}.cls-193{fill:url(#linear-gradient-191);}.cls-194{fill:url(#linear-gradient-192);}.cls-195{fill:url(#linear-gradient-193);}.cls-196{fill:url(#linear-gradient-194);}.cls-197{fill:url(#linear-gradient-195);}.cls-198{fill:url(#linear-gradient-196);}.cls-199{fill:url(#linear-gradient-197);}.cls-200{fill:url(#linear-gradient-198);}.cls-201{fill:url(#linear-gradient-199);}.cls-202{fill:url(#linear-gradient-200);}.cls-203{fill:url(#linear-gradient-201);}.cls-204{fill:url(#linear-gradient-202);}.cls-205{fill:url(#linear-gradient-203);}.cls-206{fill:url(#linear-gradient-204);}.cls-207{fill:url(#linear-gradient-205);}.cls-208{fill:url(#linear-gradient-206);}.cls-209{fill:url(#linear-gradient-207);}.cls-210{fill:url(#linear-gradient-208);}.cls-211{fill:url(#linear-gradient-209);}.cls-212{fill:url(#linear-gradient-210);}.cls-213{fill:url(#linear-gradient-211);}.cls-214{fill:url(#linear-gradient-212);}.cls-215{fill:url(#linear-gradient-213);}.cls-216{fill:url(#linear-gradient-214);}.cls-217{fill:url(#linear-gradient-215);}.cls-218{fill:url(#linear-gradient-216);}.cls-219{fill:url(#linear-gradient-217);}.cls-220{fill:url(#linear-gradient-218);}.cls-221{fill:url(#linear-gradient-219);}.cls-222{fill:url(#linear-gradient-220);}.cls-223{fill:url(#linear-gradient-221);}.cls-224{fill:url(#linear-gradient-222);}.cls-225{fill:url(#linear-gradient-223);}.cls-226{fill:url(#linear-gradient-224);}.cls-227{fill:url(#linear-gradient-225);}.cls-228{fill:url(#linear-gradient-226);}.cls-229{fill:url(#linear-gradient-227);}.cls-230{fill:url(#linear-gradient-228);}.cls-231{fill:url(#linear-gradient-229);}.cls-232{fill:url(#linear-gradient-230);}.cls-233{fill:url(#linear-gradient-231);}.cls-234{fill:url(#linear-gradient-232);}.cls-235{fill:url(#linear-gradient-233);}.cls-236{fill:url(#linear-gradient-234);}.cls-237{fill:url(#linear-gradient-235);}.cls-238{fill:url(#linear-gradient-236);}.cls-239{fill:url(#linear-gradient-237);}.cls-240{fill:url(#linear-gradient-238);}.cls-241{fill:url(#linear-gradient-239);}.cls-242{fill:url(#linear-gradient-240);}.cls-243{fill:url(#linear-gradient-241);}.cls-244{fill:url(#linear-gradient-242);}.cls-245{fill:url(#linear-gradient-243);}.cls-246{fill:url(#linear-gradient-244);}.cls-247{fill:url(#linear-gradient-245);}.cls-248{fill:url(#linear-gradient-246);}.cls-249{fill:url(#linear-gradient-247);}.cls-250{fill:url(#linear-gradient-248);}.cls-251{fill:url(#linear-gradient-249);}.cls-252{fill:url(#linear-gradient-250);}.cls-253{fill:url(#linear-gradient-251);}.cls-254{fill:url(#linear-gradient-252);}.cls-255{fill:url(#linear-gradient-253);}.cls-256{fill:url(#linear-gradient-254);}.cls-257{fill:url(#linear-gradient-255);}.cls-258{fill:url(#linear-gradient-256);}.cls-259{fill:url(#linear-gradient-257);}</style><linearGradient id="linear-gradient" x1="473.25" y1="30.55" x2="506.87" y2="30.47" gradientUnits="userSpaceOnUse"><stop offset="0"/><stop offset="0.11" stop-color="#10281a"/><stop offset="0.27" stop-color="#24583a"/><stop offset="0.43" stop-color="#358054"/><stop offset="0.58" stop-color="#41a069"/><stop offset="0.73" stop-color="#4bb677"/><stop offset="0.87" stop-color="#50c380"/><stop offset="1" stop-color="#52c883"/></linearGradient><clipPath id="clip-path"><rect class="cls-1" x="472.87" y="29.5" width="43.38" height="2.01"/></clipPath><linearGradient id="linear-gradient-3" x1="473.25" y1="30.5" x2="506.87" y2="30.42" xlink:href="#linear-gradient"/><linearGradient id="linear-gradient-4" x1="473.25" y1="30.5" x2="506.87" y2="30.42" xlink:href="#linear-gradient"/><linearGradient id="linear-gradient-5" x1="473.25" y1="30.5" x2="506.87" y2="30.42" xlink:href="#linear-gradient"/><linearGradient id="linear-gradient-6" x1="473.25" y1="30.5" x2="506.87" y2="30.42" xlink:href="#linear-gradient"/><linearGradient id="linear-gradient-7" x1="473.25" y1="30.5" x2="506.87" y2="30.42" xlink:href="#linear-gradient"/><linearGradient id="linear-gradient-8" x1="473.25" y1="30.5" x2="506.87" y2="30.42" xlink:href="#linear-gradient"/><linearGradient id="linear-gradient-9" x1="473.25" y1="30.5" x2="506.87" y2="30.42" xlink:href="#linear-gradient"/><linearGradient id="linear-gradient-10" x1="473.25" y1="30.5" x2="506.87" y2="30.42" xlink:href="#linear-gradient"/><linearGradient id="linear-gradient-11" x1="473.25" y1="30.5" x2="506.87" y2="30.42" xlink:href="#linear-gradient"/><linearGradient id="linear-gradient-12" x1="473.25" y1="30.5" x2="506.87" y2="30.42" xlink:href="#linear-gradient"/><linearGradient id="linear-gradient-13" x1="473.25" y1="30.5" x2="506.87" y2="30.42" xlink:href="#linear-gradient"/><linearGradient id="linear-gradient-14" x1="473.25" y1="30.5" x2="506.87" y2="30.42" xlink:href="#linear-gradient"/><linearGradient id="linear-gradient-15" x1="473.25" y1="30.5" x2="506.87" y2="30.42" xlink:href="#linear-gradient"/><linearGradient id="linear-gradient-16" x1="473.25" y1="30.51" x2="506.87" y2="30.42" xlink:href="#linear-gradient"/><linearGradient id="linear-gradient-17" x1="473.25" y1="30.51" x2="506.87" y2="30.42" xlink:href="#linear-gradient"/><linearGradient id="linear-gradient-18" x1="473.25" y1="30.51" x2="506.87" y2="30.42" xlink:href="#linear-gradient"/><linearGradient id="linear-gradient-19" x1="473.25" y1="30.51" x2="506.87" y2="30.42" xlink:href="#linear-gradient"/><linearGradient id="linear-gradient-20" x1="473.25" y1="30.51" x2="506.87" y2="30.42" xlink:href="#linear-gradient"/><linearGradient id="linear-gradient-21" x1="473.25" y1="30.51" x2="506.87" y2="30.42" xlink:href="#linear-gradient"/><linearGradient id="linear-gradient-22" x1="473.25" y1="30.51" x2="506.87" y2="30.42" xlink:href="#linear-gradient"/><linearGradient id="linear-gradient-23" x1="473.25" y1="30.51" x2="506.87" y2="30.42" xlink:href="#linear-gradient"/><linearGradient id="linear-gradient-24" x1="473.25" y1="30.51" x2="506.87" y2="30.43" xlink:href="#linear-gradient"/><linearGradient id="linear-gradient-25" x1="473.25" y1="30.51" x2="506.87" y2="30.43" xlink:href="#linear-gradient"/><linearGradient id="linear-gradient-26" x1="473.25" y1="30.51" x2="506.87" y2="30.43" xlink:href="#linear-gradient"/><linearGradient id="linear-gradient-27" x1="473.25" y1="30.51" x2="506.87" y2="30.43" xlink:href="#linear-gradient"/><linearGradient id="linear-gradient-28" x1="473.25" y1="30.51" x2="506.87" y2="30.43" xlink:href="#linear-gradient"/><linearGradient id="linear-gradient-29" x1="473.25" y1="30.51" x2="506.87" y2="30.43" xlink:href="#linear-gradient"/><linearGradient id="linear-gradient-30" x1="473.25" y1="30.51" x2="506.87" y2="30.43" xlink:href="#linear-gradient"/><linearGradient id="linear-gradient-31" x1="473.25" y1="30.51" x2="506.87" y2="30.43" xlink:href="#linear-gradient"/><linearGradient id="linear-gradient-32" x1="473.25" y1="30.51" x2="506.87" y2="30.43" xlink:href="#linear-gradient"/><linearGradient id="linear-gradient-33" x1="473.25" y1="30.51" x2="506.87" y2="30.43" xlink:href="#linear-gradient"/><linearGradient id="linear-gradient-34" x1="473.25" y1="30.51" x2="506.87" y2="30.43" xlink:href="#linear-gradient"/><linearGradient id="linear-gradient-35" x1="473.25" y1="30.51" x2="506.87" y2="30.43" xlink:href="#linear-gradient"/><linearGradient id="linear-gradient-36" x1="473.25" y1="30.51" x2="506.87" y2="30.43" xlink:href="#linear-gradient"/><linearGradient id="linear-gradient-37" x1="473.25" y1="30.51" x2="506.87" y2="30.43" xlink:href="#linear-gradient"/><linearGradient id="linear-gradient-38" x1="473.25" y1="30.51" x2="506.87" y2="30.43" xlink:href="#linear-gradient"/><linearGradient id="linear-gradient-39" x1="473.25" y1="30.51" x2="506.87" y2="30.43" xlink:href="#linear-gradient"/><linearGradient id="linear-gradient-40" x1="473.25" y1="30.52" x2="506.87" y2="30.43" xlink:href="#linear-gradient"/><linearGradient id="linear-gradient-41" x1="473.25" y1="30.52" x2="506.87" y2="30.43" xlink:href="#linear-gradient"/><linearGradient id="linear-gradient-42" x1="473.25" y1="30.52" x2="506.87" y2="30.43" xlink:href="#linear-gradient"/><linearGradient id="linear-gradient-43" x1="473.25" y1="30.52" x2="506.87" y2="30.43" xlink:href="#linear-gradient"/><linearGradient id="linear-gradient-44" x1="473.25" y1="30.52" x2="506.87" y2="30.43" xlink:href="#linear-gradient"/><linearGradient id="linear-gradient-45" x1="473.25" y1="30.52" x2="506.87" y2="30.43" xlink:href="#linear-gradient"/><linearGradient id="linear-gradient-46" x1="473.25" y1="30.52" x2="506.87" y2="30.43" xlink:href="#linear-gradient"/><linearGradient id="linear-gradient-47" x1="473.25" y1="30.52" x2="506.87" y2="30.43" xlink:href="#linear-gradient"/><linearGradient id="linear-gradient-48" x1="473.25" y1="30.52" x2="506.87" y2="30.44" xlink:href="#linear-gradient"/><linearGradient id="linear-gradient-49" x1="473.25" y1="30.52" x2="506.87" y2="30.44" xlink:href="#linear-gradient"/><linearGradient id="linear-gradient-50" x1="473.25" y1="30.52" x2="506.87" y2="30.44" xlink:href="#linear-gradient"/><linearGradient id="linear-gradient-51" x1="473.25" y1="30.52" x2="506.87" y2="30.44" xlink:href="#linear-gradient"/><linearGradient id="linear-gradient-52" x1="473.25" y1="30.52" x2="506.87" y2="30.44" xlink:href="#linear-gradient"/><linearGradient id="linear-gradient-53" x1="473.25" y1="30.52" x2="506.87" y2="30.44" xlink:href="#linear-gradient"/><linearGradient id="linear-gradient-54" x1="473.25" y1="30.52" x2="506.87" y2="30.44" xlink:href="#linear-gradient"/><linearGradient id="linear-gradient-55" x1="473.25" y1="30.52" x2="506.87" y2="30.44" xlink:href="#linear-gradient"/><linearGradient id="linear-gradient-56" x1="473.25" y1="30.52" x2="506.87" y2="30.44" xlink:href="#linear-gradient"/><linearGradient id="linear-gradient-57" x1="473.25" y1="30.52" x2="506.87" y2="30.44" xlink:href="#linear-gradient"/><linearGradient id="linear-gradient-58" x1="473.25" y1="30.52" x2="506.87" y2="30.44" xlink:href="#linear-gradient"/><linearGradient id="linear-gradient-59" x1="473.25" y1="30.52" x2="506.87" y2="30.44" xlink:href="#linear-gradient"/><linearGradient id="linear-gradient-60" x1="473.25" y1="30.52" x2="506.87" y2="30.44" xlink:href="#linear-gradient"/><linearGradient id="linear-gradient-61" x1="473.25" y1="30.52" x2="506.87" y2="30.44" xlink:href="#linear-gradient"/><linearGradient id="linear-gradient-62" x1="473.25" y1="30.52" x2="506.87" y2="30.44" xlink:href="#linear-gradient"/><linearGradient id="linear-gradient-63" x1="473.25" y1="30.52" x2="506.87" y2="30.44" xlink:href="#linear-gradient"/><linearGradient id="linear-gradient-64" x1="473.25" y1="30.53" x2="506.87" y2="30.44" xlink:href="#linear-gradient"/><linearGradient id="linear-gradient-65" x1="473.25" y1="30.53" x2="506.87" y2="30.44" xlink:href="#linear-gradient"/><linearGradient id="linear-gradient-66" x1="473.25" y1="30.53" x2="506.87" y2="30.44" xlink:href="#linear-gradient"/><linearGradient id="linear-gradient-67" x1="473.25" y1="30.53" x2="506.87" y2="30.44" xlink:href="#linear-gradient"/><linearGradient id="linear-gradient-68" x1="473.25" y1="30.53" x2="506.87" y2="30.44" xlink:href="#linear-gradient"/><linearGradient id="linear-gradient-69" x1="473.25" y1="30.53" x2="506.87" y2="30.44" xlink:href="#linear-gradient"/><linearGradient id="linear-gradient-70" x1="473.25" y1="30.53" x2="506.87" y2="30.44" xlink:href="#linear-gradient"/><linearGradient id="linear-gradient-71" x1="473.25" y1="30.53" x2="506.87" y2="30.45" xlink:href="#linear-gradient"/><linearGradient id="linear-gradient-72" x1="473.25" y1="30.53" x2="506.87" y2="30.45" xlink:href="#linear-gradient"/><linearGradient id="linear-gradient-73" x1="473.25" y1="30.53" x2="506.87" y2="30.45" xlink:href="#linear-gradient"/><linearGradient id="linear-gradient-74" x1="473.25" y1="30.53" x2="506.87" y2="30.45" xlink:href="#linear-gradient"/><linearGradient id="linear-gradient-75" x1="473.25" y1="30.53" x2="506.87" y2="30.45" xlink:href="#linear-gradient"/><linearGradient id="linear-gradient-76" x1="473.25" y1="30.53" x2="506.87" y2="30.45" xlink:href="#linear-gradient"/><linearGradient id="linear-gradient-77" x1="473.25" y1="30.53" x2="506.87" y2="30.45" xlink:href="#linear-gradient"/><linearGradient id="linear-gradient-78" x1="473.25" y1="30.53" x2="506.87" y2="30.45" xlink:href="#linear-gradient"/><linearGradient id="linear-gradient-79" x1="473.25" y1="30.53" x2="506.87" y2="30.45" xlink:href="#linear-gradient"/><linearGradient id="linear-gradient-80" x1="473.25" y1="30.53" x2="506.87" y2="30.45" xlink:href="#linear-gradient"/><linearGradient id="linear-gradient-81" x1="473.25" y1="30.53" x2="506.87" y2="30.45" xlink:href="#linear-gradient"/><linearGradient id="linear-gradient-82" x1="473.25" y1="30.53" x2="506.87" y2="30.45" xlink:href="#linear-gradient"/><linearGradient id="linear-gradient-83" x1="473.25" y1="30.53" x2="506.87" y2="30.45" xlink:href="#linear-gradient"/><linearGradient id="linear-gradient-84" x1="473.25" y1="30.53" x2="506.87" y2="30.45" xlink:href="#linear-gradient"/><linearGradient id="linear-gradient-85" x1="473.25" y1="30.53" x2="506.87" y2="30.45" xlink:href="#linear-gradient"/><linearGradient id="linear-gradient-86" x1="473.25" y1="30.53" x2="506.87" y2="30.45" xlink:href="#linear-gradient"/><linearGradient id="linear-gradient-87" x1="473.25" y1="30.54" x2="506.87" y2="30.45" xlink:href="#linear-gradient"/><linearGradient id="linear-gradient-88" x1="473.25" y1="30.54" x2="506.87" y2="30.45" xlink:href="#linear-gradient"/><linearGradient id="linear-gradient-89" x1="473.25" y1="30.54" x2="506.87" y2="30.45" xlink:href="#linear-gradient"/><linearGradient id="linear-gradient-90" x1="473.25" y1="30.54" x2="506.87" y2="30.45" xlink:href="#linear-gradient"/><linearGradient id="linear-gradient-91" x1="473.25" y1="30.54" x2="506.87" y2="30.45" xlink:href="#linear-gradient"/><linearGradient id="linear-gradient-92" x1="473.25" y1="30.54" x2="506.87" y2="30.45" xlink:href="#linear-gradient"/><linearGradient id="linear-gradient-93" x1="473.25" y1="30.54" x2="506.87" y2="30.45" xlink:href="#linear-gradient"/><linearGradient id="linear-gradient-94" x1="473.25" y1="30.54" x2="506.87" y2="30.45" xlink:href="#linear-gradient"/><linearGradient id="linear-gradient-95" x1="473.25" y1="30.54" x2="506.87" y2="30.46" xlink:href="#linear-gradient"/><linearGradient id="linear-gradient-96" x1="473.25" y1="30.54" x2="506.87" y2="30.46" xlink:href="#linear-gradient"/><linearGradient id="linear-gradient-97" x1="473.25" y1="30.54" x2="506.87" y2="30.46" xlink:href="#linear-gradient"/><linearGradient id="linear-gradient-98" x1="473.25" y1="30.54" x2="506.87" y2="30.46" xlink:href="#linear-gradient"/><linearGradient id="linear-gradient-99" x1="473.25" y1="30.54" x2="506.87" y2="30.46" xlink:href="#linear-gradient"/><linearGradient id="linear-gradient-100" x1="473.25" y1="30.54" x2="506.87" y2="30.46" xlink:href="#linear-gradient"/><linearGradient id="linear-gradient-101" x1="473.25" y1="30.54" x2="506.87" y2="30.46" xlink:href="#linear-gradient"/><linearGradient id="linear-gradient-102" x1="473.25" y1="30.54" x2="506.87" y2="30.46" xlink:href="#linear-gradient"/><linearGradient id="linear-gradient-103" x1="473.25" y1="30.54" x2="506.87" y2="30.46" xlink:href="#linear-gradient"/><linearGradient id="linear-gradient-104" x1="473.25" y1="30.54" x2="506.87" y2="30.46" xlink:href="#linear-gradient"/><linearGradient id="linear-gradient-105" x1="473.25" y1="30.54" x2="506.87" y2="30.46" xlink:href="#linear-gradient"/><linearGradient id="linear-gradient-106" x1="473.25" y1="30.54" x2="506.87" y2="30.46" xlink:href="#linear-gradient"/><linearGradient id="linear-gradient-107" x1="473.25" y1="30.54" x2="506.87" y2="30.46" xlink:href="#linear-gradient"/><linearGradient id="linear-gradient-108" x1="473.25" y1="30.54" x2="506.87" y2="30.46" xlink:href="#linear-gradient"/><linearGradient id="linear-gradient-109" x1="473.25" y1="30.54" x2="506.87" y2="30.46" xlink:href="#linear-gradient"/><linearGradient id="linear-gradient-110" x1="473.25" y1="30.54" x2="506.87" y2="30.46" xlink:href="#linear-gradient"/><linearGradient id="linear-gradient-111" x1="473.25" y1="30.55" x2="506.87" y2="30.46" xlink:href="#linear-gradient"/><linearGradient id="linear-gradient-112" x1="473.25" y1="30.55" x2="506.87" y2="30.46" xlink:href="#linear-gradient"/><linearGradient id="linear-gradient-113" x1="473.25" y1="30.55" x2="506.87" y2="30.46" xlink:href="#linear-gradient"/><linearGradient id="linear-gradient-114" x1="473.25" y1="30.55" x2="506.87" y2="30.46" xlink:href="#linear-gradient"/><linearGradient id="linear-gradient-115" x1="473.25" y1="30.55" x2="506.87" y2="30.46" xlink:href="#linear-gradient"/><linearGradient id="linear-gradient-116" x1="473.25" y1="30.55" x2="506.87" y2="30.46" xlink:href="#linear-gradient"/><linearGradient id="linear-gradient-117" x1="473.25" y1="30.55" x2="506.87" y2="30.46" xlink:href="#linear-gradient"/><linearGradient id="linear-gradient-118" x1="473.25" y1="30.55" x2="506.87" y2="30.46" xlink:href="#linear-gradient"/><linearGradient id="linear-gradient-119" x1="473.25" y1="30.55" x2="506.87" y2="30.47" xlink:href="#linear-gradient"/><linearGradient id="linear-gradient-120" x1="473.25" y1="30.55" x2="506.87" y2="30.47" xlink:href="#linear-gradient"/><linearGradient id="linear-gradient-121" x1="473.25" y1="30.55" x2="506.87" y2="30.47" xlink:href="#linear-gradient"/><linearGradient id="linear-gradient-122" x1="473.25" y1="30.55" x2="506.87" y2="30.47" xlink:href="#linear-gradient"/><linearGradient id="linear-gradient-123" x1="473.25" y1="30.55" x2="506.87" y2="30.47" xlink:href="#linear-gradient"/><linearGradient id="linear-gradient-124" x1="473.25" y1="30.55" x2="506.87" y2="30.47" xlink:href="#linear-gradient"/><linearGradient id="linear-gradient-125" x1="473.25" y1="30.55" x2="506.87" y2="30.47" xlink:href="#linear-gradient"/><linearGradient id="linear-gradient-126" x1="473.25" y1="30.55" x2="506.87" y2="30.47" xlink:href="#linear-gradient"/><linearGradient id="linear-gradient-127" x1="473.25" y1="30.55" x2="506.87" y2="30.47" xlink:href="#linear-gradient"/><linearGradient id="linear-gradient-128" x1="473.25" y1="30.55" x2="506.87" y2="30.47" xlink:href="#linear-gradient"/><linearGradient id="linear-gradient-129" x1="473.25" y1="30.55" x2="506.87" y2="30.47" xlink:href="#linear-gradient"/><linearGradient id="linear-gradient-131" x1="473.25" y1="30.55" x2="506.87" y2="30.47" xlink:href="#linear-gradient"/><linearGradient id="linear-gradient-132" x1="473.25" y1="30.55" x2="506.87" y2="30.47" xlink:href="#linear-gradient"/><linearGradient id="linear-gradient-133" x1="473.25" y1="30.55" x2="506.87" y2="30.47" xlink:href="#linear-gradient"/><linearGradient id="linear-gradient-134" x1="473.25" y1="30.55" x2="506.87" y2="30.47" xlink:href="#linear-gradient"/><linearGradient id="linear-gradient-135" x1="473.25" y1="30.56" x2="506.87" y2="30.47" xlink:href="#linear-gradient"/><linearGradient id="linear-gradient-136" x1="473.25" y1="30.56" x2="506.87" y2="30.47" xlink:href="#linear-gradient"/><linearGradient id="linear-gradient-137" x1="473.25" y1="30.56" x2="506.87" y2="30.47" xlink:href="#linear-gradient"/><linearGradient id="linear-gradient-138" x1="473.25" y1="30.56" x2="506.87" y2="30.47" xlink:href="#linear-gradient"/><linearGradient id="linear-gradient-139" x1="473.25" y1="30.56" x2="506.87" y2="30.47" xlink:href="#linear-gradient"/><linearGradient id="linear-gradient-140" x1="473.25" y1="30.56" x2="506.87" y2="30.47" xlink:href="#linear-gradient"/><linearGradient id="linear-gradient-141" x1="473.25" y1="30.56" x2="506.87" y2="30.47" xlink:href="#linear-gradient"/><linearGradient id="linear-gradient-142" x1="473.25" y1="30.56" x2="506.87" y2="30.47" xlink:href="#linear-gradient"/><linearGradient id="linear-gradient-143" x1="473.25" y1="30.56" x2="506.87" y2="30.48" xlink:href="#linear-gradient"/><linearGradient id="linear-gradient-144" x1="473.25" y1="30.56" x2="506.87" y2="30.48" xlink:href="#linear-gradient"/><linearGradient id="linear-gradient-145" x1="473.25" y1="30.56" x2="506.87" y2="30.48" xlink:href="#linear-gradient"/><linearGradient id="linear-gradient-146" x1="473.25" y1="30.56" x2="506.87" y2="30.48" xlink:href="#linear-gradient"/><linearGradient id="linear-gradient-147" x1="473.25" y1="30.56" x2="506.87" y2="30.48" xlink:href="#linear-gradient"/><linearGradient id="linear-gradient-148" x1="473.25" y1="30.56" x2="506.87" y2="30.48" xlink:href="#linear-gradient"/><linearGradient id="linear-gradient-149" x1="473.25" y1="30.56" x2="506.87" y2="30.48" xlink:href="#linear-gradient"/><linearGradient id="linear-gradient-150" x1="473.25" y1="30.56" x2="506.87" y2="30.48" xlink:href="#linear-gradient"/><linearGradient id="linear-gradient-151" x1="473.25" y1="30.56" x2="506.87" y2="30.48" xlink:href="#linear-gradient"/><linearGradient id="linear-gradient-152" x1="473.25" y1="30.56" x2="506.87" y2="30.48" xlink:href="#linear-gradient"/><linearGradient id="linear-gradient-153" x1="473.25" y1="30.56" x2="506.87" y2="30.48" xlink:href="#linear-gradient"/><linearGradient id="linear-gradient-154" x1="473.25" y1="30.56" x2="506.87" y2="30.48" xlink:href="#linear-gradient"/><linearGradient id="linear-gradient-155" x1="473.25" y1="30.56" x2="506.87" y2="30.48" xlink:href="#linear-gradient"/><linearGradient id="linear-gradient-156" x1="473.25" y1="30.56" x2="506.87" y2="30.48" xlink:href="#linear-gradient"/><linearGradient id="linear-gradient-157" x1="473.25" y1="30.56" x2="506.87" y2="30.48" xlink:href="#linear-gradient"/><linearGradient id="linear-gradient-158" x1="473.25" y1="30.57" x2="506.87" y2="30.48" xlink:href="#linear-gradient"/><linearGradient id="linear-gradient-159" x1="473.25" y1="30.57" x2="506.87" y2="30.48" xlink:href="#linear-gradient"/><linearGradient id="linear-gradient-160" x1="473.25" y1="30.57" x2="506.87" y2="30.48" xlink:href="#linear-gradient"/><linearGradient id="linear-gradient-161" x1="473.25" y1="30.57" x2="506.87" y2="30.48" xlink:href="#linear-gradient"/><linearGradient id="linear-gradient-162" x1="473.25" y1="30.57" x2="506.87" y2="30.48" xlink:href="#linear-gradient"/><linearGradient id="linear-gradient-163" x1="473.25" y1="30.57" x2="506.87" y2="30.48" xlink:href="#linear-gradient"/><linearGradient id="linear-gradient-164" x1="473.25" y1="30.57" x2="506.87" y2="30.48" xlink:href="#linear-gradient"/><linearGradient id="linear-gradient-165" x1="473.25" y1="30.57" x2="506.87" y2="30.48" xlink:href="#linear-gradient"/><linearGradient id="linear-gradient-166" x1="473.25" y1="30.57" x2="506.87" y2="30.49" xlink:href="#linear-gradient"/><linearGradient id="linear-gradient-167" x1="473.25" y1="30.57" x2="506.87" y2="30.49" xlink:href="#linear-gradient"/><linearGradient id="linear-gradient-168" x1="473.25" y1="30.57" x2="506.87" y2="30.49" xlink:href="#linear-gradient"/><linearGradient id="linear-gradient-169" x1="473.25" y1="30.57" x2="506.87" y2="30.49" xlink:href="#linear-gradient"/><linearGradient id="linear-gradient-170" x1="473.25" y1="30.57" x2="506.87" y2="30.49" xlink:href="#linear-gradient"/><linearGradient id="linear-gradient-171" x1="473.25" y1="30.57" x2="506.87" y2="30.49" xlink:href="#linear-gradient"/><linearGradient id="linear-gradient-172" x1="473.25" y1="30.57" x2="506.87" y2="30.49" xlink:href="#linear-gradient"/><linearGradient id="linear-gradient-173" x1="473.25" y1="30.57" x2="506.87" y2="30.49" xlink:href="#linear-gradient"/><linearGradient id="linear-gradient-174" x1="473.25" y1="30.57" x2="506.87" y2="30.49" xlink:href="#linear-gradient"/><linearGradient id="linear-gradient-175" x1="473.25" y1="30.57" x2="506.87" y2="30.49" xlink:href="#linear-gradient"/><linearGradient id="linear-gradient-176" x1="473.25" y1="30.57" x2="506.87" y2="30.49" xlink:href="#linear-gradient"/><linearGradient id="linear-gradient-177" x1="473.25" y1="30.57" x2="506.87" y2="30.49" xlink:href="#linear-gradient"/><linearGradient id="linear-gradient-178" x1="473.25" y1="30.57" x2="506.87" y2="30.49" xlink:href="#linear-gradient"/><linearGradient id="linear-gradient-179" x1="473.25" y1="30.57" x2="506.87" y2="30.49" xlink:href="#linear-gradient"/><linearGradient id="linear-gradient-180" x1="473.25" y1="30.57" x2="506.87" y2="30.49" xlink:href="#linear-gradient"/><linearGradient id="linear-gradient-181" x1="473.25" y1="30.57" x2="506.87" y2="30.49" xlink:href="#linear-gradient"/><linearGradient id="linear-gradient-182" x1="473.25" y1="30.58" x2="506.87" y2="30.49" xlink:href="#linear-gradient"/><linearGradient id="linear-gradient-183" x1="473.25" y1="30.58" x2="506.87" y2="30.49" xlink:href="#linear-gradient"/><linearGradient id="linear-gradient-184" x1="473.25" y1="30.58" x2="506.87" y2="30.49" xlink:href="#linear-gradient"/><linearGradient id="linear-gradient-185" x1="473.25" y1="30.58" x2="506.87" y2="30.49" xlink:href="#linear-gradient"/><linearGradient id="linear-gradient-186" x1="473.25" y1="30.58" x2="506.87" y2="30.49" xlink:href="#linear-gradient"/><linearGradient id="linear-gradient-187" x1="473.25" y1="30.58" x2="506.87" y2="30.49" xlink:href="#linear-gradient"/><linearGradient id="linear-gradient-188" x1="473.25" y1="30.58" x2="506.87" y2="30.49" xlink:href="#linear-gradient"/><linearGradient id="linear-gradient-189" x1="473.25" y1="30.58" x2="506.87" y2="30.49" xlink:href="#linear-gradient"/><linearGradient id="linear-gradient-190" x1="473.25" y1="30.58" x2="506.87" y2="30.5" xlink:href="#linear-gradient"/><linearGradient id="linear-gradient-191" x1="473.25" y1="30.58" x2="506.87" y2="30.5" xlink:href="#linear-gradient"/><linearGradient id="linear-gradient-192" x1="473.25" y1="30.58" x2="506.87" y2="30.5" xlink:href="#linear-gradient"/><linearGradient id="linear-gradient-193" x1="473.25" y1="30.58" x2="506.87" y2="30.5" xlink:href="#linear-gradient"/><linearGradient id="linear-gradient-194" x1="473.25" y1="30.58" x2="506.87" y2="30.5" xlink:href="#linear-gradient"/><linearGradient id="linear-gradient-195" x1="473.25" y1="30.58" x2="506.87" y2="30.5" xlink:href="#linear-gradient"/><linearGradient id="linear-gradient-196" x1="473.25" y1="30.58" x2="506.87" y2="30.5" xlink:href="#linear-gradient"/><linearGradient id="linear-gradient-197" x1="473.25" y1="30.58" x2="506.87" y2="30.5" xlink:href="#linear-gradient"/><linearGradient id="linear-gradient-198" x1="473.25" y1="30.58" x2="506.87" y2="30.5" xlink:href="#linear-gradient"/><linearGradient id="linear-gradient-199" x1="473.25" y1="30.58" x2="506.87" y2="30.5" xlink:href="#linear-gradient"/><linearGradient id="linear-gradient-200" x1="473.25" y1="30.58" x2="506.87" y2="30.5" xlink:href="#linear-gradient"/><linearGradient id="linear-gradient-201" x1="473.25" y1="30.58" x2="506.87" y2="30.5" xlink:href="#linear-gradient"/><linearGradient id="linear-gradient-202" x1="473.25" y1="30.58" x2="506.87" y2="30.5" xlink:href="#linear-gradient"/><linearGradient id="linear-gradient-203" x1="473.25" y1="30.58" x2="506.87" y2="30.5" xlink:href="#linear-gradient"/><linearGradient id="linear-gradient-204" x1="473.25" y1="30.58" x2="506.87" y2="30.5" xlink:href="#linear-gradient"/><linearGradient id="linear-gradient-205" x1="473.25" y1="30.58" x2="506.87" y2="30.5" xlink:href="#linear-gradient"/><linearGradient id="linear-gradient-206" x1="473.25" y1="30.59" x2="506.87" y2="30.5" xlink:href="#linear-gradient"/><linearGradient id="linear-gradient-207" x1="473.25" y1="30.59" x2="506.87" y2="30.5" xlink:href="#linear-gradient"/><linearGradient id="linear-gradient-208" x1="473.25" y1="30.59" x2="506.87" y2="30.5" xlink:href="#linear-gradient"/><linearGradient id="linear-gradient-209" x1="473.25" y1="30.59" x2="506.87" y2="30.5" xlink:href="#linear-gradient"/><linearGradient id="linear-gradient-210" x1="473.25" y1="30.59" x2="506.87" y2="30.5" xlink:href="#linear-gradient"/><linearGradient id="linear-gradient-211" x1="473.25" y1="30.59" x2="506.87" y2="30.5" xlink:href="#linear-gradient"/><linearGradient id="linear-gradient-212" x1="473.25" y1="30.59" x2="506.87" y2="30.5" xlink:href="#linear-gradient"/><linearGradient id="linear-gradient-213" x1="473.25" y1="30.59" x2="506.87" y2="30.5" xlink:href="#linear-gradient"/><linearGradient id="linear-gradient-214" x1="473.25" y1="30.59" x2="506.87" y2="30.51" xlink:href="#linear-gradient"/><linearGradient id="linear-gradient-215" x1="473.25" y1="30.59" x2="506.87" y2="30.51" xlink:href="#linear-gradient"/><linearGradient id="linear-gradient-216" x1="473.25" y1="30.59" x2="506.87" y2="30.51" xlink:href="#linear-gradient"/><linearGradient id="linear-gradient-217" x1="473.25" y1="30.59" x2="506.87" y2="30.51" xlink:href="#linear-gradient"/><linearGradient id="linear-gradient-218" x1="473.25" y1="30.59" x2="506.87" y2="30.51" xlink:href="#linear-gradient"/><linearGradient id="linear-gradient-219" x1="473.25" y1="30.59" x2="506.87" y2="30.51" xlink:href="#linear-gradient"/><linearGradient id="linear-gradient-220" x1="473.25" y1="30.59" x2="506.87" y2="30.51" xlink:href="#linear-gradient"/><linearGradient id="linear-gradient-221" x1="473.25" y1="30.59" x2="506.87" y2="30.51" xlink:href="#linear-gradient"/><linearGradient id="linear-gradient-222" x1="473.25" y1="30.59" x2="506.87" y2="30.51" xlink:href="#linear-gradient"/><linearGradient id="linear-gradient-223" x1="473.25" y1="30.59" x2="506.87" y2="30.51" xlink:href="#linear-gradient"/><linearGradient id="linear-gradient-224" x1="473.25" y1="30.59" x2="506.87" y2="30.51" xlink:href="#linear-gradient"/><linearGradient id="linear-gradient-225" x1="473.25" y1="30.59" x2="506.87" y2="30.51" xlink:href="#linear-gradient"/><linearGradient id="linear-gradient-226" x1="473.25" y1="30.59" x2="506.87" y2="30.51" xlink:href="#linear-gradient"/><linearGradient id="linear-gradient-227" x1="473.25" y1="30.59" x2="506.87" y2="30.51" xlink:href="#linear-gradient"/><linearGradient id="linear-gradient-228" x1="473.25" y1="30.59" x2="506.87" y2="30.51" xlink:href="#linear-gradient"/><linearGradient id="linear-gradient-229" x1="473.25" y1="30.59" x2="506.87" y2="30.51" xlink:href="#linear-gradient"/><linearGradient id="linear-gradient-230" x1="473.25" y1="30.6" x2="506.87" y2="30.51" xlink:href="#linear-gradient"/><linearGradient id="linear-gradient-231" x1="473.25" y1="30.6" x2="506.87" y2="30.51" xlink:href="#linear-gradient"/><linearGradient id="linear-gradient-232" x1="473.25" y1="30.6" x2="506.87" y2="30.51" xlink:href="#linear-gradient"/><linearGradient id="linear-gradient-233" x1="473.25" y1="30.6" x2="506.87" y2="30.51" xlink:href="#linear-gradient"/><linearGradient id="linear-gradient-234" x1="473.25" y1="30.6" x2="506.87" y2="30.51" xlink:href="#linear-gradient"/><linearGradient id="linear-gradient-235" x1="473.25" y1="30.6" x2="506.87" y2="30.51" xlink:href="#linear-gradient"/><linearGradient id="linear-gradient-236" x1="473.25" y1="30.6" x2="506.87" y2="30.51" xlink:href="#linear-gradient"/><linearGradient id="linear-gradient-237" x1="473.25" y1="30.6" x2="506.87" y2="30.52" xlink:href="#linear-gradient"/><linearGradient id="linear-gradient-238" x1="473.25" y1="30.6" x2="506.87" y2="30.52" xlink:href="#linear-gradient"/><linearGradient id="linear-gradient-239" x1="473.25" y1="30.6" x2="506.87" y2="30.52" xlink:href="#linear-gradient"/><linearGradient id="linear-gradient-240" x1="473.25" y1="30.6" x2="506.87" y2="30.52" xlink:href="#linear-gradient"/><linearGradient id="linear-gradient-241" x1="473.25" y1="30.6" x2="506.87" y2="30.52" xlink:href="#linear-gradient"/><linearGradient id="linear-gradient-242" x1="473.25" y1="30.6" x2="506.87" y2="30.52" xlink:href="#linear-gradient"/><linearGradient id="linear-gradient-243" x1="473.25" y1="30.6" x2="506.87" y2="30.52" xlink:href="#linear-gradient"/><linearGradient id="linear-gradient-244" x1="473.25" y1="30.6" x2="506.87" y2="30.52" xlink:href="#linear-gradient"/><linearGradient id="linear-gradient-245" x1="473.25" y1="30.6" x2="506.87" y2="30.52" xlink:href="#linear-gradient"/><linearGradient id="linear-gradient-246" x1="473.25" y1="30.6" x2="506.87" y2="30.52" xlink:href="#linear-gradient"/><linearGradient id="linear-gradient-247" x1="473.25" y1="30.6" x2="506.87" y2="30.52" xlink:href="#linear-gradient"/><linearGradient id="linear-gradient-248" x1="473.25" y1="30.6" x2="506.87" y2="30.52" xlink:href="#linear-gradient"/><linearGradient id="linear-gradient-249" x1="473.25" y1="30.6" x2="506.87" y2="30.52" xlink:href="#linear-gradient"/><linearGradient id="linear-gradient-250" x1="473.25" y1="30.6" x2="506.87" y2="30.52" xlink:href="#linear-gradient"/><linearGradient id="linear-gradient-251" x1="473.25" y1="30.6" x2="506.87" y2="30.52" xlink:href="#linear-gradient"/><linearGradient id="linear-gradient-252" x1="473.25" y1="30.6" x2="506.87" y2="30.52" xlink:href="#linear-gradient"/><linearGradient id="linear-gradient-253" x1="473.25" y1="30.61" x2="506.87" y2="30.52" xlink:href="#linear-gradient"/><linearGradient id="linear-gradient-254" x1="473.25" y1="30.61" x2="506.87" y2="30.52" xlink:href="#linear-gradient"/><linearGradient id="linear-gradient-255" x1="473.25" y1="30.61" x2="506.87" y2="30.52" xlink:href="#linear-gradient"/><linearGradient id="linear-gradient-256" x1="473.25" y1="30.61" x2="506.87" y2="30.52" xlink:href="#linear-gradient"/><linearGradient id="linear-gradient-257" x1="473.25" y1="30.61" x2="506.87" y2="30.52" xlink:href="#linear-gradient"/></defs><title>coverage-grades</title><g id="coverage_grades" data-name="coverage grades"><g class="cls-2"><circle class="cls-3" cx="519.14" cy="29.74" r="25.57"/></g><rect x="14.67" y="29.5" width="505" height="1.99"/><circle class="cls-4" cx="15.76" cy="30.5" r="4.44"/><circle class="cls-4" cx="66.26" cy="30.5" r="4.44"/><circle class="cls-4" cx="116.64" cy="30.5" r="4.44"/><circle class="cls-4" cx="166.89" cy="30.5" r="4.44"/><circle class="cls-4" cx="217.14" cy="30.5" r="4.44"/><circle class="cls-4" cx="267.64" cy="30.5" r="4.44"/><circle class="cls-4" cx="317.64" cy="30.5" r="4.44"/><circle class="cls-4" cx="368.14" cy="30.5" r="4.44"/><circle class="cls-4" cx="418.51" cy="30.5" r="4.44"/><circle class="cls-4" cx="468.76" cy="30.5" r="4.44"/><circle class="cls-3" cx="519.14" cy="30.5" r="4.44"/><path class="cls-4" d="M8.62,19.84a.14.14,0,0,1,.11,0,.15.15,0,0,1,0,.11v.25H4.66v-.15a.19.19,0,0,1,0-.1.47.47,0,0,1,.06-.09l2.18-2.2c.18-.18.34-.36.5-.53a3.71,3.71,0,0,0,.39-.52,2.41,2.41,0,0,0,.27-.53,1.92,1.92,0,0,0,.09-.59,1.66,1.66,0,0,0-.11-.61,1.23,1.23,0,0,0-.32-.42,1.1,1.1,0,0,0-.45-.25,1.84,1.84,0,0,0-.53-.08,1.63,1.63,0,0,0-.55.09,1.43,1.43,0,0,0-.45.26,1.55,1.55,0,0,0-.33.39,1.64,1.64,0,0,0-.17.5.22.22,0,0,1-.09.13.2.2,0,0,1-.14,0l-.22,0a2.15,2.15,0,0,1,.23-.73,1.87,1.87,0,0,1,.42-.54,2,2,0,0,1,.59-.33,2.19,2.19,0,0,1,.73-.12,2.33,2.33,0,0,1,.7.11,1.73,1.73,0,0,1,.58.32,1.37,1.37,0,0,1,.4.54,1.73,1.73,0,0,1,.15.75,1.85,1.85,0,0,1-.11.67,2.53,2.53,0,0,1-.3.59,4.32,4.32,0,0,1-.43.55l-.53.55-2,2,.3-.05a1.56,1.56,0,0,1,.31,0Z"/><path class="cls-4" d="M14.8,17.06a5.17,5.17,0,0,1-.18,1.45,3.17,3.17,0,0,1-.49,1,2,2,0,0,1-.73.6,2.06,2.06,0,0,1-.89.19,2.09,2.09,0,0,1-.89-.19,2,2,0,0,1-.72-.6,3,3,0,0,1-.49-1,5.17,5.17,0,0,1-.18-1.45,5.17,5.17,0,0,1,.18-1.45,2.88,2.88,0,0,1,.49-1,2,2,0,0,1,.72-.6,2.1,2.1,0,0,1,.89-.2,2.07,2.07,0,0,1,.89.2,2,2,0,0,1,.73.6,3.07,3.07,0,0,1,.49,1A5.17,5.17,0,0,1,14.8,17.06Zm-.45,0a5,5,0,0,0-.15-1.32,2.68,2.68,0,0,0-.4-.9,1.46,1.46,0,0,0-.58-.51,1.6,1.6,0,0,0-.71-.16,1.53,1.53,0,0,0-.7.16,1.48,1.48,0,0,0-.59.51,2.9,2.9,0,0,0-.4.9,5,5,0,0,0-.15,1.32,5,5,0,0,0,.15,1.32,2.9,2.9,0,0,0,.4.9,1.55,1.55,0,0,0,1.29.67,1.75,1.75,0,0,0,.71-.16,1.64,1.64,0,0,0,.58-.51,2.68,2.68,0,0,0,.4-.9A5,5,0,0,0,14.35,17.06Z"/><path class="cls-4" d="M20.74,17.06a5.17,5.17,0,0,1-.18,1.45,3.17,3.17,0,0,1-.49,1,2,2,0,0,1-.73.6,2.06,2.06,0,0,1-.89.19,2.09,2.09,0,0,1-.89-.19,2,2,0,0,1-.72-.6,3,3,0,0,1-.49-1,5.17,5.17,0,0,1-.18-1.45,5.17,5.17,0,0,1,.18-1.45,2.88,2.88,0,0,1,.49-1,2,2,0,0,1,.72-.6,2.1,2.1,0,0,1,.89-.2,2.07,2.07,0,0,1,.89.2,2,2,0,0,1,.73.6,3.07,3.07,0,0,1,.49,1A5.17,5.17,0,0,1,20.74,17.06Zm-.45,0a5,5,0,0,0-.15-1.32,2.68,2.68,0,0,0-.4-.9,1.42,1.42,0,0,0-.59-.51,1.61,1.61,0,0,0-1.4,0,1.48,1.48,0,0,0-.59.51,2.9,2.9,0,0,0-.4.9,5,5,0,0,0-.15,1.32,5,5,0,0,0,.15,1.32,2.9,2.9,0,0,0,.4.9,1.59,1.59,0,0,0,2,.51,1.58,1.58,0,0,0,.59-.51,2.68,2.68,0,0,0,.4-.9A5,5,0,0,0,20.29,17.06Z"/><path class="cls-4" d="M24.89,16.92a2,2,0,0,1,.56.2,1.48,1.48,0,0,1,.44.34,1.29,1.29,0,0,1,.29.48,1.9,1.9,0,0,1-.05,1.35,1.52,1.52,0,0,1-.42.55,1.74,1.74,0,0,1-.66.35,2.75,2.75,0,0,1-1.67,0,1.74,1.74,0,0,1-.66-.35,1.52,1.52,0,0,1-.42-.55,1.74,1.74,0,0,1-.16-.73,1.71,1.71,0,0,1,.11-.62,1.41,1.41,0,0,1,.28-.48,1.62,1.62,0,0,1,.44-.34,2.07,2.07,0,0,1,.56-.2A2,2,0,0,1,23,16.7a1.48,1.48,0,0,1-.37-.33,1.75,1.75,0,0,1-.22-.43,1.65,1.65,0,0,1,.05-1.15,1.55,1.55,0,0,1,.37-.51,1.61,1.61,0,0,1,.58-.35,2.24,2.24,0,0,1,.76-.13,2.3,2.3,0,0,1,.77.13,1.7,1.7,0,0,1,.58.35,1.55,1.55,0,0,1,.37.51A1.65,1.65,0,0,1,26,15.94a1.32,1.32,0,0,1-.23.42,1.67,1.67,0,0,1-.36.34A2.09,2.09,0,0,1,24.89,16.92Zm-.68,3a2,2,0,0,0,.67-.1,1.28,1.28,0,0,0,.51-.29,1.22,1.22,0,0,0,.34-.44,1.58,1.58,0,0,0,.11-.58,1.45,1.45,0,0,0-.15-.7,1.23,1.23,0,0,0-.39-.45,1.48,1.48,0,0,0-.53-.23,2.2,2.2,0,0,0-.56-.07,2.13,2.13,0,0,0-.55.07,1.4,1.4,0,0,0-.53.23,1.23,1.23,0,0,0-.39.45,1.45,1.45,0,0,0-.15.7,1.4,1.4,0,0,0,.11.58,1.31,1.31,0,0,0,.33.44,1.4,1.4,0,0,0,.52.29A2,2,0,0,0,24.21,20Zm-1.42-4.54a1.43,1.43,0,0,0,.09.5,1.12,1.12,0,0,0,.25.42,1.19,1.19,0,0,0,.45.3,1.89,1.89,0,0,0,1.27,0,1.24,1.24,0,0,0,.7-.72,1.69,1.69,0,0,0,.08-.5,1.44,1.44,0,0,0-.09-.51,1.42,1.42,0,0,0-.28-.41,1.16,1.16,0,0,0-.44-.27,1.66,1.66,0,0,0-.61-.1,1.64,1.64,0,0,0-.6.1,1.2,1.2,0,0,0-.45.27,1.22,1.22,0,0,0-.27.41A1.25,1.25,0,0,0,22.79,15.43Z"/><path class="cls-4" d="M15,40a4.4,4.4,0,0,1,1.1.12,2,2,0,0,1,.74.35,1.4,1.4,0,0,1,.43.54,1.88,1.88,0,0,1,.13.72,1.27,1.27,0,0,1-.07.44,1.06,1.06,0,0,1-.21.39,1.31,1.31,0,0,1-.36.34,2.52,2.52,0,0,1-.52.25c.9.2,1.34.68,1.34,1.45a1.91,1.91,0,0,1-.15.76A1.73,1.73,0,0,1,17,46a2.28,2.28,0,0,1-.74.4,3.47,3.47,0,0,1-1,.14H12.76V40Zm-1,.94v1.88h1a1.61,1.61,0,0,0,.94-.23.81.81,0,0,0,.32-.71.87.87,0,0,0-.29-.73,1.53,1.53,0,0,0-.9-.21Zm1.23,4.62a1.54,1.54,0,0,0,.56-.08.88.88,0,0,0,.37-.21.83.83,0,0,0,.2-.32,1.21,1.21,0,0,0,.06-.38.92.92,0,0,0-.07-.38.75.75,0,0,0-.21-.29,1,1,0,0,0-.37-.18,2.2,2.2,0,0,0-.55-.06H14v1.9Z"/><path class="cls-4" d="M65.22,40a4.26,4.26,0,0,1,1.09.12,2.09,2.09,0,0,1,.75.35,1.37,1.37,0,0,1,.42.54,1.89,1.89,0,0,1,.14.72,1.27,1.27,0,0,1-.07.44,1.06,1.06,0,0,1-.21.39,1.31,1.31,0,0,1-.36.34,2.52,2.52,0,0,1-.52.25c.9.2,1.34.68,1.34,1.45a1.91,1.91,0,0,1-.15.76,1.73,1.73,0,0,1-.46.61,2.23,2.23,0,0,1-.75.4,3.4,3.4,0,0,1-1,.14H63V40Zm-1,.94v1.88h1a1.61,1.61,0,0,0,.94-.23.81.81,0,0,0,.32-.71.87.87,0,0,0-.29-.73,1.53,1.53,0,0,0-.9-.21Zm1.22,4.62a1.57,1.57,0,0,0,.57-.08,1,1,0,0,0,.37-.21.83.83,0,0,0,.2-.32,1.21,1.21,0,0,0,.06-.38,1.12,1.12,0,0,0-.07-.38.86.86,0,0,0-.21-.29,1,1,0,0,0-.37-.18,2.26,2.26,0,0,0-.55-.06H64.19v1.9Z"/><path class="cls-4" d="M73.53,43.89H71.78v1.85h-.9V43.89H69.14v-.82h1.74V41.22h.9v1.85h1.75Z"/><path class="cls-4" d="M114.86,40a4.32,4.32,0,0,1,1.09.12,2.17,2.17,0,0,1,.75.35,1.37,1.37,0,0,1,.42.54,1.89,1.89,0,0,1,.14.72,1.56,1.56,0,0,1-.07.44,1.47,1.47,0,0,1-.21.39,1.31,1.31,0,0,1-.36.34,2.8,2.8,0,0,1-.52.25c.89.2,1.34.68,1.34,1.45a1.76,1.76,0,0,1-.16.76,1.52,1.52,0,0,1-.46.61,2.18,2.18,0,0,1-.74.4,3.42,3.42,0,0,1-1,.14h-2.45V40Zm-1,.94v1.88h1a1.63,1.63,0,0,0,.94-.23.81.81,0,0,0,.32-.71.87.87,0,0,0-.29-.73,1.53,1.53,0,0,0-.9-.21Zm1.22,4.62a1.57,1.57,0,0,0,.57-.08,1,1,0,0,0,.37-.21.8.8,0,0,0,.19-.32,1.21,1.21,0,0,0,.06-.38,1.12,1.12,0,0,0-.06-.38.86.86,0,0,0-.21-.29,1,1,0,0,0-.38-.18,2.12,2.12,0,0,0-.54-.06h-1.22v1.9Z"/><path class="cls-4" d="M123.88,43.89h-1.74v1.85h-.91V43.89H119.5v-.82h1.73V41.22h.91v1.85h1.74Z"/><path class="cls-4" d="M165.26,40a4.32,4.32,0,0,1,1.09.12,2.17,2.17,0,0,1,.75.35,1.37,1.37,0,0,1,.42.54,1.89,1.89,0,0,1,.14.72,1.56,1.56,0,0,1-.07.44,1.47,1.47,0,0,1-.21.39,1.31,1.31,0,0,1-.36.34,2.8,2.8,0,0,1-.52.25c.89.2,1.34.68,1.34,1.45a1.76,1.76,0,0,1-.16.76,1.52,1.52,0,0,1-.46.61,2.18,2.18,0,0,1-.74.4,3.42,3.42,0,0,1-1,.14H163V40Zm-1,.94v1.88h1a1.63,1.63,0,0,0,.94-.23.81.81,0,0,0,.32-.71.87.87,0,0,0-.29-.73,1.53,1.53,0,0,0-.9-.21Zm1.22,4.62a1.57,1.57,0,0,0,.57-.08,1,1,0,0,0,.37-.21.8.8,0,0,0,.19-.32,1.21,1.21,0,0,0,.06-.38,1.12,1.12,0,0,0-.06-.38.77.77,0,0,0-.22-.29.85.85,0,0,0-.37-.18,2.12,2.12,0,0,0-.54-.06h-1.22v1.9Z"/><path class="cls-4" d="M174.28,43.89h-1.74v1.85h-.91V43.89H169.9v-.82h1.73V41.22h.91v1.85h1.74Z"/><path class="cls-4" d="M219,46.6h-.93a.37.37,0,0,1-.26-.08.4.4,0,0,1-.15-.19L217.17,45h-2.7L214,46.33a.41.41,0,0,1-.14.19.39.39,0,0,1-.25.08h-1l2.56-6.5h1.24Zm-2.13-2.45-.8-2.17a3.24,3.24,0,0,1-.12-.34c0-.13-.08-.28-.12-.43a4.38,4.38,0,0,1-.13.43c0,.13-.08.25-.12.35l-.79,2.16Z"/><path class="cls-4" d="M219.46,43.42h2.33v.93h-2.33Z"/><path class="cls-4" d="M268.56,46.6h-.94a.38.38,0,0,1-.26-.08.45.45,0,0,1-.14-.19L266.73,45H264l-.48,1.33a.41.41,0,0,1-.14.19.42.42,0,0,1-.26.08h-.94l2.56-6.5H266Zm-2.14-2.45L265.63,42a3.24,3.24,0,0,1-.12-.34,4.38,4.38,0,0,1-.13-.43c0,.15-.08.3-.12.43s-.08.25-.12.35l-.79,2.16Z"/><path class="cls-4" d="M269,43.42h2.33v.93H269Z"/><path class="cls-4" d="M318.11,46.6h-.93a.37.37,0,0,1-.26-.08.58.58,0,0,1-.15-.19L316.29,45h-2.7l-.48,1.33a.62.62,0,0,1-.14.19.45.45,0,0,1-.26.08h-.95l2.56-6.5h1.24ZM316,44.15l-.8-2.17c0-.09-.08-.21-.12-.34s-.08-.28-.12-.43c0,.15-.08.3-.12.43l-.13.35-.78,2.16Z"/><path class="cls-4" d="M318.58,43.42h2.33v.93h-2.33Z"/><path class="cls-4" d="M369.39,46.6h-.94a.34.34,0,0,1-.25-.08.4.4,0,0,1-.15-.19L367.56,45h-2.69l-.49,1.33a.41.41,0,0,1-.14.19.41.41,0,0,1-.25.08H363l2.56-6.5h1.24Zm-2.14-2.45L366.46,42a3.24,3.24,0,0,1-.12-.34c0-.13-.08-.28-.13-.43,0,.15-.08.3-.12.43s-.08.25-.12.35l-.79,2.16Z"/><path class="cls-4" d="M369.85,43.42h2.34v.93h-2.34Z"/><path class="cls-4" d="M421.35,46.6h-.94a.34.34,0,0,1-.25-.08.4.4,0,0,1-.15-.19L419.52,45h-2.69l-.49,1.33a.41.41,0,0,1-.14.19.41.41,0,0,1-.25.08H415l2.56-6.5h1.23Zm-2.14-2.45L418.42,42a3.24,3.24,0,0,1-.12-.34c0-.13-.08-.28-.13-.43,0,.15-.08.3-.12.43s-.08.25-.12.35l-.79,2.16Z"/><path class="cls-4" d="M471.85,46.6h-.94a.34.34,0,0,1-.25-.08.4.4,0,0,1-.15-.19L470,45h-2.69l-.49,1.33a.41.41,0,0,1-.14.19.41.41,0,0,1-.25.08h-.95l2.56-6.5h1.23Zm-2.14-2.45L468.92,42a3.24,3.24,0,0,1-.12-.34c0-.13-.08-.28-.13-.43,0,.15-.08.3-.12.43s-.08.25-.12.35l-.79,2.16Z"/><path class="cls-3" d="M522,46.6H521a.37.37,0,0,1-.26-.08.58.58,0,0,1-.15-.19L520.15,45h-2.7L517,46.33a.49.49,0,0,1-.14.19.45.45,0,0,1-.26.08h-.94l2.56-6.5h1.23Zm-2.13-2.45L519.05,42c0-.09-.08-.21-.13-.34s-.08-.28-.12-.43c0,.15-.08.3-.12.43l-.13.35-.78,2.16Z"/><path class="cls-4" d="M58.87,19.84a.14.14,0,0,1,.11,0A.15.15,0,0,1,59,20v.25H54.91v-.15a.19.19,0,0,1,0-.1A.47.47,0,0,1,55,19.9l2.18-2.2c.18-.18.34-.36.5-.53a3.71,3.71,0,0,0,.39-.52,2.41,2.41,0,0,0,.27-.53,1.92,1.92,0,0,0,.09-.59,1.66,1.66,0,0,0-.11-.61A1.23,1.23,0,0,0,58,14.5a1.1,1.1,0,0,0-.45-.25,1.84,1.84,0,0,0-.53-.08,1.63,1.63,0,0,0-.55.09,1.43,1.43,0,0,0-.45.26,1.55,1.55,0,0,0-.33.39,1.64,1.64,0,0,0-.17.5.22.22,0,0,1-.09.13.2.2,0,0,1-.14,0l-.22,0a2.15,2.15,0,0,1,.23-.73,1.87,1.87,0,0,1,.42-.54,2,2,0,0,1,.59-.33A2.19,2.19,0,0,1,57,13.8a2.33,2.33,0,0,1,.7.11,1.73,1.73,0,0,1,.58.32,1.37,1.37,0,0,1,.4.54,1.73,1.73,0,0,1,.15.75,1.85,1.85,0,0,1-.11.67,2.53,2.53,0,0,1-.3.59,4.32,4.32,0,0,1-.43.55l-.53.55-2,2,.3-.05a1.56,1.56,0,0,1,.31,0Z"/><path class="cls-4" d="M65.05,17.06a5.17,5.17,0,0,1-.18,1.45,3.17,3.17,0,0,1-.49,1,2,2,0,0,1-.73.6,2.06,2.06,0,0,1-.89.19,2.09,2.09,0,0,1-.89-.19,2,2,0,0,1-.72-.6,3,3,0,0,1-.49-1,5.17,5.17,0,0,1-.18-1.45,5.17,5.17,0,0,1,.18-1.45,2.88,2.88,0,0,1,.49-1,2,2,0,0,1,.72-.6,2.1,2.1,0,0,1,.89-.2,2.07,2.07,0,0,1,.89.2,2,2,0,0,1,.73.6,3.07,3.07,0,0,1,.49,1A5.17,5.17,0,0,1,65.05,17.06Zm-.45,0a5,5,0,0,0-.15-1.32,2.68,2.68,0,0,0-.4-.9,1.46,1.46,0,0,0-.58-.51,1.6,1.6,0,0,0-.71-.16,1.53,1.53,0,0,0-.7.16,1.48,1.48,0,0,0-.59.51,2.9,2.9,0,0,0-.4.9,5,5,0,0,0-.15,1.32,5,5,0,0,0,.15,1.32,2.9,2.9,0,0,0,.4.9,1.55,1.55,0,0,0,1.29.67,1.75,1.75,0,0,0,.71-.16,1.64,1.64,0,0,0,.58-.51,2.68,2.68,0,0,0,.4-.9A5,5,0,0,0,64.6,17.06Z"/><path class="cls-4" d="M71,17.06a5.17,5.17,0,0,1-.18,1.45,3.17,3.17,0,0,1-.49,1,2,2,0,0,1-.73.6,2.06,2.06,0,0,1-.89.19,2.09,2.09,0,0,1-.89-.19,2,2,0,0,1-.72-.6,3,3,0,0,1-.49-1,5.17,5.17,0,0,1-.18-1.45,5.17,5.17,0,0,1,.18-1.45,2.88,2.88,0,0,1,.49-1,2,2,0,0,1,.72-.6,2.1,2.1,0,0,1,.89-.2,2.07,2.07,0,0,1,.89.2,2,2,0,0,1,.73.6,3.07,3.07,0,0,1,.49,1A5.17,5.17,0,0,1,71,17.06Zm-.45,0a5,5,0,0,0-.15-1.32,2.68,2.68,0,0,0-.4-.9,1.42,1.42,0,0,0-.59-.51,1.61,1.61,0,0,0-1.4,0,1.48,1.48,0,0,0-.59.51,2.9,2.9,0,0,0-.4.9,5,5,0,0,0-.15,1.32A5,5,0,0,0,67,18.38a2.9,2.9,0,0,0,.4.9,1.59,1.59,0,0,0,2,.51,1.58,1.58,0,0,0,.59-.51,2.68,2.68,0,0,0,.4-.9A5,5,0,0,0,70.54,17.06Z"/><path class="cls-4" d="M75.22,17.62l.25-.37a3,3,0,0,0,.21-.33,1.71,1.71,0,0,1-.63.46,2.07,2.07,0,0,1-1.52,0A1.7,1.7,0,0,1,73,17a1.73,1.73,0,0,1-.38-.57,2,2,0,0,1-.14-.75A1.88,1.88,0,0,1,72.6,15a1.85,1.85,0,0,1,.42-.61,2,2,0,0,1,.64-.4,2.16,2.16,0,0,1,.81-.15,2,2,0,0,1,.78.15,1.6,1.6,0,0,1,.61.41,1.68,1.68,0,0,1,.39.63,2.09,2.09,0,0,1,.15.81,1.86,1.86,0,0,1-.06.48,2.16,2.16,0,0,1-.15.45,4.23,4.23,0,0,1-.25.46l-.32.5L74,20.14a.25.25,0,0,1-.22.1h-.39Zm-.85-.42a1.62,1.62,0,0,0,.68-.13,1.57,1.57,0,0,0,.51-.34,1.37,1.37,0,0,0,.31-.48,1.4,1.4,0,0,0,.11-.53,1.81,1.81,0,0,0-.11-.63,1.53,1.53,0,0,0-.32-.5,1.49,1.49,0,0,0-.48-.32,1.64,1.64,0,0,0-.6-.11,1.93,1.93,0,0,0-.65.11,1.53,1.53,0,0,0-.5.32,1.37,1.37,0,0,0-.33.48,1.75,1.75,0,0,0-.11.62,1.81,1.81,0,0,0,.1.63,1.26,1.26,0,0,0,.78.78A1.7,1.7,0,0,0,74.37,17.2Z"/><path class="cls-4" d="M109.2,19.84a.12.12,0,0,1,.11,0,.16.16,0,0,1,0,.11v.25h-4.11v-.15a.36.36,0,0,1,0-.1l.07-.09,2.17-2.2c.18-.18.35-.36.5-.53a3.8,3.8,0,0,0,.4-.52,2.37,2.37,0,0,0,.26-.53,1.92,1.92,0,0,0,.1-.59,1.48,1.48,0,0,0-.12-.61,1.21,1.21,0,0,0-.31-.42,1.24,1.24,0,0,0-.45-.25,1.89,1.89,0,0,0-.53-.08,1.69,1.69,0,0,0-.56.09,1.43,1.43,0,0,0-.45.26,1.34,1.34,0,0,0-.32.39,1.43,1.43,0,0,0-.18.5.26.26,0,0,1-.08.13.24.24,0,0,1-.15,0l-.22,0a2.4,2.4,0,0,1,.23-.73,1.87,1.87,0,0,1,.42-.54,1.93,1.93,0,0,1,.6-.33,2.11,2.11,0,0,1,.73-.12,2.26,2.26,0,0,1,.69.11,1.77,1.77,0,0,1,.59.32,1.59,1.59,0,0,1,.4.54,1.73,1.73,0,0,1,.15.75,2.09,2.09,0,0,1-.11.67,3.64,3.64,0,0,1-.3.59,4.42,4.42,0,0,1-.44.55l-.53.55-2,2,.3-.05a1.62,1.62,0,0,1,.31,0Z"/><path class="cls-4" d="M115.38,17.06a5.17,5.17,0,0,1-.18,1.45,3,3,0,0,1-.49,1,2,2,0,0,1-.73.6,2.16,2.16,0,0,1-1.77,0,2,2,0,0,1-.73-.6,3,3,0,0,1-.48-1,5.17,5.17,0,0,1-.18-1.45,5.17,5.17,0,0,1,.18-1.45,2.88,2.88,0,0,1,.48-1,2,2,0,0,1,.73-.6A2.06,2.06,0,0,1,114,14a2,2,0,0,1,.73.6,2.88,2.88,0,0,1,.49,1A5.17,5.17,0,0,1,115.38,17.06Zm-.45,0a5,5,0,0,0-.15-1.32,2.68,2.68,0,0,0-.4-.9,1.4,1.4,0,0,0-.58-.51,1.63,1.63,0,0,0-1.41,0,1.46,1.46,0,0,0-.58.51,2.68,2.68,0,0,0-.4.9,5,5,0,0,0-.15,1.32,5,5,0,0,0,.15,1.32,2.68,2.68,0,0,0,.4.9,1.64,1.64,0,0,0,.58.51,1.63,1.63,0,0,0,1.41,0,1.56,1.56,0,0,0,.58-.51,2.68,2.68,0,0,0,.4-.9A5,5,0,0,0,114.93,17.06Z"/><path class="cls-4" d="M120.91,19.91v.33h-3.28v-.33h1.46V14.75c0-.11,0-.21,0-.33l-1.41,1.25a.15.15,0,0,1-.12,0,.14.14,0,0,1-.1-.06l-.13-.18,1.84-1.62h.33v6.06Z"/><path class="cls-4" d="M127.08,17.06a5.17,5.17,0,0,1-.18,1.45,3,3,0,0,1-.49,1,2,2,0,0,1-.73.6,2.06,2.06,0,0,1-.89.19,2,2,0,0,1-.88-.19,2,2,0,0,1-.73-.6,3.17,3.17,0,0,1-.49-1,6.27,6.27,0,0,1,0-2.9,3.07,3.07,0,0,1,.49-1,2,2,0,0,1,.73-.6,2,2,0,0,1,.88-.2,2.07,2.07,0,0,1,.89.2,2,2,0,0,1,.73.6,2.88,2.88,0,0,1,.49,1A5.17,5.17,0,0,1,127.08,17.06Zm-.45,0a5,5,0,0,0-.15-1.32,2.68,2.68,0,0,0-.4-.9,1.4,1.4,0,0,0-.58-.51,1.6,1.6,0,0,0-.71-.16,1.56,1.56,0,0,0-.7.16,1.4,1.4,0,0,0-.58.51,2.68,2.68,0,0,0-.4.9,5,5,0,0,0-.15,1.32,5,5,0,0,0,.15,1.32,2.68,2.68,0,0,0,.4.9,1.56,1.56,0,0,0,.58.51,1.71,1.71,0,0,0,.7.16,1.75,1.75,0,0,0,.71-.16,1.56,1.56,0,0,0,.58-.51,2.68,2.68,0,0,0,.4-.9A5,5,0,0,0,126.63,17.06Z"/><path class="cls-4" d="M159.54,19.84a.15.15,0,0,1,.11,0,.21.21,0,0,1,0,.11v.25h-4.11v-.15a.19.19,0,0,1,0-.1.24.24,0,0,1,.06-.09l2.17-2.2c.18-.18.35-.36.5-.53a3.14,3.14,0,0,0,.4-.52,2.37,2.37,0,0,0,.26-.53,1.66,1.66,0,0,0,.1-.59,1.48,1.48,0,0,0-.12-.61,1.21,1.21,0,0,0-.31-.42,1.24,1.24,0,0,0-.45-.25,1.89,1.89,0,0,0-.53-.08,1.5,1.5,0,0,0-1,.35,1.52,1.52,0,0,0-.32.39,2,2,0,0,0-.18.5.26.26,0,0,1-.08.13.2.2,0,0,1-.14,0l-.22,0a2.39,2.39,0,0,1,.22-.73,1.74,1.74,0,0,1,.43-.54,1.88,1.88,0,0,1,.59-.33,2.15,2.15,0,0,1,.73-.12,2.26,2.26,0,0,1,.69.11,1.77,1.77,0,0,1,.59.32,1.47,1.47,0,0,1,.4.54,1.73,1.73,0,0,1,.15.75,2.09,2.09,0,0,1-.11.67,2.53,2.53,0,0,1-.3.59,4.42,4.42,0,0,1-.44.55c-.16.18-.34.36-.52.55l-2,2,.3-.05a1.72,1.72,0,0,1,.32,0Z"/><path class="cls-4" d="M165.71,17.06a5.17,5.17,0,0,1-.18,1.45,3,3,0,0,1-.49,1,2,2,0,0,1-.72.6,2.09,2.09,0,0,1-.89.19,2.06,2.06,0,0,1-.89-.19,2,2,0,0,1-.72-.6,3,3,0,0,1-.49-1,5.17,5.17,0,0,1-.18-1.45,5.17,5.17,0,0,1,.18-1.45,2.88,2.88,0,0,1,.49-1,2,2,0,0,1,.72-.6,2.07,2.07,0,0,1,.89-.2,2.1,2.1,0,0,1,.89.2,2,2,0,0,1,.72.6,2.88,2.88,0,0,1,.49,1A5.17,5.17,0,0,1,165.71,17.06Zm-.45,0a5.5,5.5,0,0,0-.14-1.32,2.9,2.9,0,0,0-.4-.9,1.42,1.42,0,0,0-.59-.51,1.56,1.56,0,0,0-.7-.16,1.53,1.53,0,0,0-.7.16,1.42,1.42,0,0,0-.59.51,2.68,2.68,0,0,0-.4.9,5,5,0,0,0-.15,1.32,5,5,0,0,0,.15,1.32,2.68,2.68,0,0,0,.4.9,1.58,1.58,0,0,0,.59.51,1.67,1.67,0,0,0,.7.16,1.71,1.71,0,0,0,.7-.16,1.58,1.58,0,0,0,.59-.51,2.9,2.9,0,0,0,.4-.9A5.5,5.5,0,0,0,165.26,17.06Z"/><path class="cls-4" d="M171.25,19.91v.33H168v-.33h1.47V14.75c0-.11,0-.21,0-.33L168,15.67a.18.18,0,0,1-.13,0,.17.17,0,0,1-.1-.06l-.13-.18,1.84-1.62h.34v6.06Z"/><path class="cls-4" d="M177,19.91v.33h-3.29v-.33h1.47V14.75c0-.11,0-.21,0-.33l-1.4,1.25a.18.18,0,0,1-.13,0,.17.17,0,0,1-.1-.06l-.13-.18,1.84-1.62h.34v6.06Z"/><path class="cls-4" d="M209.7,19.84a.12.12,0,0,1,.11,0,.16.16,0,0,1,.05.11v.25h-4.11v-.15a.36.36,0,0,1,0-.1l.07-.09L208,17.7c.18-.18.35-.36.5-.53a3.8,3.8,0,0,0,.4-.52,2.37,2.37,0,0,0,.26-.53,1.92,1.92,0,0,0,.1-.59,1.48,1.48,0,0,0-.12-.61,1.21,1.21,0,0,0-.31-.42,1.24,1.24,0,0,0-.45-.25,1.89,1.89,0,0,0-.53-.08,1.69,1.69,0,0,0-.56.09,1.43,1.43,0,0,0-.45.26,1.34,1.34,0,0,0-.32.39,1.43,1.43,0,0,0-.18.5.26.26,0,0,1-.08.13.24.24,0,0,1-.15,0l-.22,0a2.4,2.4,0,0,1,.23-.73,1.87,1.87,0,0,1,.42-.54,1.93,1.93,0,0,1,.6-.33,2.11,2.11,0,0,1,.73-.12,2.26,2.26,0,0,1,.69.11,1.77,1.77,0,0,1,.59.32,1.59,1.59,0,0,1,.4.54,1.73,1.73,0,0,1,.15.75,2.09,2.09,0,0,1-.11.67,3.64,3.64,0,0,1-.3.59,4.42,4.42,0,0,1-.44.55l-.53.55-2,2,.3-.05a1.62,1.62,0,0,1,.31,0Z"/><path class="cls-4" d="M215.88,17.06a5.17,5.17,0,0,1-.18,1.45,3,3,0,0,1-.49,1,2,2,0,0,1-.73.6,2.16,2.16,0,0,1-1.77,0,2,2,0,0,1-.73-.6,3,3,0,0,1-.48-1,5.17,5.17,0,0,1-.18-1.45,5.17,5.17,0,0,1,.18-1.45,2.88,2.88,0,0,1,.48-1,2,2,0,0,1,.73-.6,2.06,2.06,0,0,1,1.77,0,2,2,0,0,1,.73.6,2.88,2.88,0,0,1,.49,1A5.17,5.17,0,0,1,215.88,17.06Zm-.45,0a5,5,0,0,0-.15-1.32,2.68,2.68,0,0,0-.4-.9,1.4,1.4,0,0,0-.58-.51,1.63,1.63,0,0,0-1.41,0,1.46,1.46,0,0,0-.58.51,2.68,2.68,0,0,0-.4.9,5,5,0,0,0-.15,1.32,5,5,0,0,0,.15,1.32,2.68,2.68,0,0,0,.4.9,1.64,1.64,0,0,0,.58.51,1.63,1.63,0,0,0,1.41,0,1.56,1.56,0,0,0,.58-.51,2.68,2.68,0,0,0,.4-.9A5,5,0,0,0,215.43,17.06Z"/><path class="cls-4" d="M221.41,19.91v.33h-3.28v-.33h1.46V14.75c0-.11,0-.21,0-.33l-1.41,1.25a.15.15,0,0,1-.12,0,.14.14,0,0,1-.1-.06l-.13-.18,1.84-1.62H220v6.06Z"/><path class="cls-4" d="M227.16,19.84a.12.12,0,0,1,.11,0,.15.15,0,0,1,0,.11v.25h-4.1v-.15a.18.18,0,0,1,0-.1l.07-.09,2.17-2.2c.18-.18.35-.36.5-.53a4.81,4.81,0,0,0,.4-.52,2.37,2.37,0,0,0,.26-.53,1.92,1.92,0,0,0,.09-.59,1.48,1.48,0,0,0-.11-.61,1.21,1.21,0,0,0-.31-.42,1.24,1.24,0,0,0-.45-.25,1.89,1.89,0,0,0-.53-.08,1.64,1.64,0,0,0-.56.09,1.43,1.43,0,0,0-.45.26,1.34,1.34,0,0,0-.32.39,1.43,1.43,0,0,0-.18.5.26.26,0,0,1-.08.13.24.24,0,0,1-.15,0l-.22,0a2.4,2.4,0,0,1,.23-.73,1.87,1.87,0,0,1,.42-.54,1.93,1.93,0,0,1,.6-.33,2.09,2.09,0,0,1,.72-.12,2.28,2.28,0,0,1,.7.11,1.73,1.73,0,0,1,.58.32,1.49,1.49,0,0,1,.41.54,1.73,1.73,0,0,1,.15.75,2.09,2.09,0,0,1-.11.67,3.64,3.64,0,0,1-.3.59,5.58,5.58,0,0,1-.44.55l-.53.55-2,2,.3-.05a1.62,1.62,0,0,1,.31,0Z"/><path class="cls-4" d="M260.12,19.84a.16.16,0,0,1,.12,0,.21.21,0,0,1,0,.11v.25h-4.11v-.15a.36.36,0,0,1,0-.1l.07-.09,2.17-2.2c.18-.18.35-.36.5-.53a3.8,3.8,0,0,0,.4-.52,2.37,2.37,0,0,0,.26-.53,1.92,1.92,0,0,0,.1-.59,1.48,1.48,0,0,0-.12-.61,1.21,1.21,0,0,0-.31-.42,1.24,1.24,0,0,0-.45-.25,1.89,1.89,0,0,0-.53-.08,1.69,1.69,0,0,0-.56.09,1.43,1.43,0,0,0-.45.26,1.34,1.34,0,0,0-.32.39,1.43,1.43,0,0,0-.18.5.26.26,0,0,1-.08.13.21.21,0,0,1-.14,0l-.23,0a2.4,2.4,0,0,1,.23-.73,1.87,1.87,0,0,1,.42-.54,1.93,1.93,0,0,1,.6-.33,2.11,2.11,0,0,1,.73-.12,2.26,2.26,0,0,1,.69.11,1.77,1.77,0,0,1,.59.32,1.47,1.47,0,0,1,.4.54,1.73,1.73,0,0,1,.15.75,2.09,2.09,0,0,1-.11.67,3.64,3.64,0,0,1-.3.59,4.42,4.42,0,0,1-.44.55l-.53.55-2,2,.3-.05a1.62,1.62,0,0,1,.31,0Z"/><path class="cls-4" d="M266.3,17.06a5.17,5.17,0,0,1-.18,1.45,3,3,0,0,1-.49,1,2,2,0,0,1-.73.6,2.16,2.16,0,0,1-1.77,0,2,2,0,0,1-.73-.6,3,3,0,0,1-.48-1,5.17,5.17,0,0,1-.18-1.45,5.17,5.17,0,0,1,.18-1.45,2.88,2.88,0,0,1,.48-1,2,2,0,0,1,.73-.6,2.06,2.06,0,0,1,1.77,0,2,2,0,0,1,.73.6,2.88,2.88,0,0,1,.49,1A5.17,5.17,0,0,1,266.3,17.06Zm-.45,0a5,5,0,0,0-.15-1.32,2.68,2.68,0,0,0-.4-.9,1.4,1.4,0,0,0-.58-.51,1.63,1.63,0,0,0-1.41,0,1.46,1.46,0,0,0-.58.51,2.68,2.68,0,0,0-.4.9,5,5,0,0,0-.15,1.32,5,5,0,0,0,.15,1.32,2.68,2.68,0,0,0,.4.9,1.64,1.64,0,0,0,.58.51,1.63,1.63,0,0,0,1.41,0,1.56,1.56,0,0,0,.58-.51,2.68,2.68,0,0,0,.4-.9A5,5,0,0,0,265.85,17.06Z"/><path class="cls-4" d="M271.84,19.91v.33h-3.29v-.33H270V14.75c0-.11,0-.21,0-.33l-1.41,1.25a.15.15,0,0,1-.12,0,.14.14,0,0,1-.1-.06l-.13-.18,1.84-1.62h.33v6.06Z"/><path class="cls-4" d="M273.81,15.52a2.15,2.15,0,0,1,.23-.73,1.87,1.87,0,0,1,.42-.54,2,2,0,0,1,.59-.33,2.19,2.19,0,0,1,.73-.12,2.26,2.26,0,0,1,.69.11,1.42,1.42,0,0,1,.57.3,1.5,1.5,0,0,1,.39.5,1.75,1.75,0,0,1,.14.7,1.43,1.43,0,0,1-.1.56,1.39,1.39,0,0,1-.26.44,1.41,1.41,0,0,1-.4.32,2,2,0,0,1-.5.19,1.77,1.77,0,0,1,1.06.55,1.48,1.48,0,0,1,.36,1,1.63,1.63,0,0,1-.16.73,1.76,1.76,0,0,1-.43.58,2,2,0,0,1-.65.38,2.38,2.38,0,0,1-.81.14,2.35,2.35,0,0,1-.9-.15,1.72,1.72,0,0,1-.6-.38,1.62,1.62,0,0,1-.36-.52,5.24,5.24,0,0,1-.22-.58l.17-.07a.22.22,0,0,1,.16,0,.14.14,0,0,1,.11.1s0,.09.06.17a1.74,1.74,0,0,0,.11.25,1.6,1.6,0,0,0,.19.29,1.08,1.08,0,0,0,.29.27,1.74,1.74,0,0,0,.41.2,2,2,0,0,0,.58.07,1.76,1.76,0,0,0,.71-.13,1.71,1.71,0,0,0,.51-.35,1.45,1.45,0,0,0,.3-.47,1.27,1.27,0,0,0,.1-.5,1.61,1.61,0,0,0-.09-.54,1,1,0,0,0-.31-.44,1.52,1.52,0,0,0-.57-.28,3,3,0,0,0-.87-.11v-.31a2.61,2.61,0,0,0,.73-.11,1.57,1.57,0,0,0,.53-.28A1,1,0,0,0,277,16a1.32,1.32,0,0,0,.11-.53,1.35,1.35,0,0,0-.12-.59,1.12,1.12,0,0,0-.3-.41,1.23,1.23,0,0,0-.44-.23,1.55,1.55,0,0,0-.53-.08,1.63,1.63,0,0,0-.55.09,1.38,1.38,0,0,0-.46.26,1.34,1.34,0,0,0-.32.39,1.43,1.43,0,0,0-.18.5.26.26,0,0,1-.08.13.2.2,0,0,1-.14,0Z"/><path class="cls-4" d="M310.21,19.84a.14.14,0,0,1,.15.15v.25h-4.11v-.15a.19.19,0,0,1,0-.1.24.24,0,0,1,.06-.09l2.17-2.2c.18-.18.35-.36.5-.53a3.14,3.14,0,0,0,.4-.52,2.37,2.37,0,0,0,.26-.53,1.66,1.66,0,0,0,.1-.59,1.48,1.48,0,0,0-.12-.61,1.21,1.21,0,0,0-.31-.42,1.24,1.24,0,0,0-.45-.25,1.89,1.89,0,0,0-.53-.08,1.59,1.59,0,0,0-.55.09,1.43,1.43,0,0,0-.45.26,1.37,1.37,0,0,0-.33.39,2,2,0,0,0-.18.5.26.26,0,0,1-.08.13.2.2,0,0,1-.14,0l-.22,0a2.39,2.39,0,0,1,.22-.73,1.74,1.74,0,0,1,.43-.54,1.88,1.88,0,0,1,.59-.33,2.19,2.19,0,0,1,.73-.12,2.26,2.26,0,0,1,.69.11,1.77,1.77,0,0,1,.59.32,1.47,1.47,0,0,1,.4.54,1.73,1.73,0,0,1,.15.75,2.09,2.09,0,0,1-.11.67,2.53,2.53,0,0,1-.3.59,4.42,4.42,0,0,1-.44.55c-.16.18-.34.36-.52.55l-2,2,.3-.05a1.72,1.72,0,0,1,.32,0Z"/><path class="cls-4" d="M316.38,17.06a5.17,5.17,0,0,1-.18,1.45,3,3,0,0,1-.49,1,2,2,0,0,1-.72.6,2.09,2.09,0,0,1-.89.19,2.06,2.06,0,0,1-.89-.19,2,2,0,0,1-.72-.6,3,3,0,0,1-.49-1,5.17,5.17,0,0,1-.18-1.45,5.17,5.17,0,0,1,.18-1.45,2.88,2.88,0,0,1,.49-1,2,2,0,0,1,.72-.6,2.07,2.07,0,0,1,.89-.2,2.1,2.1,0,0,1,.89.2,2,2,0,0,1,.72.6,2.88,2.88,0,0,1,.49,1A5.17,5.17,0,0,1,316.38,17.06Zm-.45,0a5.5,5.5,0,0,0-.14-1.32,2.9,2.9,0,0,0-.4-.9,1.42,1.42,0,0,0-.59-.51,1.56,1.56,0,0,0-.7-.16,1.53,1.53,0,0,0-.7.16,1.42,1.42,0,0,0-.59.51,2.68,2.68,0,0,0-.4.9,5,5,0,0,0-.15,1.32,5,5,0,0,0,.15,1.32,2.68,2.68,0,0,0,.4.9,1.58,1.58,0,0,0,.59.51,1.67,1.67,0,0,0,.7.16,1.71,1.71,0,0,0,.7-.16,1.58,1.58,0,0,0,.59-.51,2.9,2.9,0,0,0,.4-.9A5.5,5.5,0,0,0,315.93,17.06Z"/><path class="cls-4" d="M321.92,19.91v.33h-3.29v-.33h1.47V14.75c0-.11,0-.21,0-.33l-1.4,1.25a.18.18,0,0,1-.13,0,.17.17,0,0,1-.1-.06l-.13-.18,1.84-1.62h.34v6.06Z"/><path class="cls-4" d="M328.12,18.08v.23a.11.11,0,0,1,0,.08s0,0-.09,0h-1v1.82h-.38V18.42h-3a.15.15,0,0,1-.1,0,.14.14,0,0,1-.05-.08l0-.21,3.2-4.23H327v4.21Zm-1.54,0V14.74a1,1,0,0,1,0-.17c0-.06,0-.12,0-.18l-2.75,3.69Z"/><path class="cls-4" d="M360.62,19.84a.16.16,0,0,1,.12,0,.21.21,0,0,1,0,.11v.25h-4.11v-.15a.36.36,0,0,1,0-.1l.07-.09,2.17-2.2c.18-.18.35-.36.5-.53a3.8,3.8,0,0,0,.4-.52,2.37,2.37,0,0,0,.26-.53,1.92,1.92,0,0,0,.1-.59,1.48,1.48,0,0,0-.12-.61,1.21,1.21,0,0,0-.31-.42,1.24,1.24,0,0,0-.45-.25,1.89,1.89,0,0,0-.53-.08,1.69,1.69,0,0,0-.56.09,1.43,1.43,0,0,0-.45.26,1.34,1.34,0,0,0-.32.39,1.43,1.43,0,0,0-.18.5.26.26,0,0,1-.08.13.21.21,0,0,1-.14,0l-.23,0a2.4,2.4,0,0,1,.23-.73,1.87,1.87,0,0,1,.42-.54,1.93,1.93,0,0,1,.6-.33,2.11,2.11,0,0,1,.73-.12,2.26,2.26,0,0,1,.69.11,1.77,1.77,0,0,1,.59.32,1.47,1.47,0,0,1,.4.54,1.73,1.73,0,0,1,.15.75,2.09,2.09,0,0,1-.11.67,3.64,3.64,0,0,1-.3.59,4.42,4.42,0,0,1-.44.55l-.53.55-2,2,.3-.05a1.62,1.62,0,0,1,.31,0Z"/><path class="cls-4" d="M366.8,17.06a5.17,5.17,0,0,1-.18,1.45,3,3,0,0,1-.49,1,2,2,0,0,1-.73.6,2.16,2.16,0,0,1-1.77,0,2,2,0,0,1-.73-.6,3,3,0,0,1-.48-1,5.17,5.17,0,0,1-.18-1.45,5.17,5.17,0,0,1,.18-1.45,2.88,2.88,0,0,1,.48-1,2,2,0,0,1,.73-.6,2.06,2.06,0,0,1,1.77,0,2,2,0,0,1,.73.6,2.88,2.88,0,0,1,.49,1A5.17,5.17,0,0,1,366.8,17.06Zm-.45,0a5,5,0,0,0-.15-1.32,2.68,2.68,0,0,0-.4-.9,1.4,1.4,0,0,0-.58-.51,1.63,1.63,0,0,0-1.41,0,1.46,1.46,0,0,0-.58.51,2.68,2.68,0,0,0-.4.9,5,5,0,0,0-.15,1.32,5,5,0,0,0,.15,1.32,2.68,2.68,0,0,0,.4.9,1.64,1.64,0,0,0,.58.51,1.63,1.63,0,0,0,1.41,0,1.56,1.56,0,0,0,.58-.51,2.68,2.68,0,0,0,.4-.9A5,5,0,0,0,366.35,17.06Z"/><path class="cls-4" d="M372.34,19.91v.33h-3.29v-.33h1.46V14.75c0-.11,0-.21,0-.33l-1.41,1.25a.15.15,0,0,1-.12,0,.14.14,0,0,1-.1-.06l-.13-.18,1.84-1.62h.33v6.06Z"/><path class="cls-4" d="M375,16.4a4.38,4.38,0,0,1,.57-.11,3.08,3.08,0,0,1,.51,0,2.58,2.58,0,0,1,.88.14,1.84,1.84,0,0,1,.63.4,1.68,1.68,0,0,1,.39.61,2.29,2.29,0,0,1,.12.76,2.13,2.13,0,0,1-.17.9,1.93,1.93,0,0,1-.47.68,2,2,0,0,1-.71.43,2.37,2.37,0,0,1-.85.15,2.73,2.73,0,0,1-.5-.05,2.13,2.13,0,0,1-.45-.13,2.32,2.32,0,0,1-.39-.18l-.31-.21.13-.18a.15.15,0,0,1,.13-.06.43.43,0,0,1,.17.06,1.77,1.77,0,0,0,.28.15,2,2,0,0,0,.41.15,2.11,2.11,0,0,0,1.24-.05,1.48,1.48,0,0,0,.56-.35,1.5,1.5,0,0,0,.36-.55,2,2,0,0,0,.14-.75,2.08,2.08,0,0,0-.1-.63,1.25,1.25,0,0,0-.31-.49,1.31,1.31,0,0,0-.52-.32,2,2,0,0,0-.73-.12,5.48,5.48,0,0,0-.55,0,5.61,5.61,0,0,0-.61.13l-.27-.08.49-2.82h2.87v.18a.2.2,0,0,1-.06.15.27.27,0,0,1-.19.06h-2.31Z"/><path class="cls-4" d="M410.87,19.84a.16.16,0,0,1,.12,0,.21.21,0,0,1,0,.11v.25h-4.11v-.15a.36.36,0,0,1,0-.1l.07-.09,2.17-2.2c.18-.18.35-.36.5-.53a3.8,3.8,0,0,0,.4-.52,2.37,2.37,0,0,0,.26-.53,1.92,1.92,0,0,0,.1-.59,1.48,1.48,0,0,0-.12-.61,1.21,1.21,0,0,0-.31-.42,1.24,1.24,0,0,0-.45-.25,1.89,1.89,0,0,0-.53-.08,1.69,1.69,0,0,0-.56.09,1.43,1.43,0,0,0-.45.26,1.34,1.34,0,0,0-.32.39,1.43,1.43,0,0,0-.18.5.26.26,0,0,1-.08.13.21.21,0,0,1-.14,0l-.23,0a2.4,2.4,0,0,1,.23-.73,1.87,1.87,0,0,1,.42-.54,1.93,1.93,0,0,1,.6-.33,2.11,2.11,0,0,1,.73-.12,2.26,2.26,0,0,1,.69.11,1.77,1.77,0,0,1,.59.32,1.47,1.47,0,0,1,.4.54,1.73,1.73,0,0,1,.15.75,2.09,2.09,0,0,1-.11.67,3.64,3.64,0,0,1-.3.59,4.42,4.42,0,0,1-.44.55l-.53.55-2,2,.3-.05a1.62,1.62,0,0,1,.31,0Z"/><path class="cls-4" d="M417.05,17.06a5.17,5.17,0,0,1-.18,1.45,3,3,0,0,1-.49,1,2,2,0,0,1-.73.6,2.16,2.16,0,0,1-1.77,0,2,2,0,0,1-.73-.6,3,3,0,0,1-.48-1,5.17,5.17,0,0,1-.18-1.45,5.17,5.17,0,0,1,.18-1.45,2.88,2.88,0,0,1,.48-1,2,2,0,0,1,.73-.6,2.06,2.06,0,0,1,1.77,0,2,2,0,0,1,.73.6,2.88,2.88,0,0,1,.49,1A5.17,5.17,0,0,1,417.05,17.06Zm-.45,0a5,5,0,0,0-.15-1.32,2.68,2.68,0,0,0-.4-.9,1.4,1.4,0,0,0-.58-.51,1.63,1.63,0,0,0-1.41,0,1.46,1.46,0,0,0-.58.51,2.68,2.68,0,0,0-.4.9,5,5,0,0,0-.15,1.32,5,5,0,0,0,.15,1.32,2.68,2.68,0,0,0,.4.9,1.64,1.64,0,0,0,.58.51,1.63,1.63,0,0,0,1.41,0,1.56,1.56,0,0,0,.58-.51,2.68,2.68,0,0,0,.4-.9A5,5,0,0,0,416.6,17.06Z"/><path class="cls-4" d="M422.59,19.91v.33H419.3v-.33h1.46V14.75c0-.11,0-.21,0-.33l-1.41,1.25a.15.15,0,0,1-.12,0,.14.14,0,0,1-.1-.06l-.13-.18,1.84-1.62h.33v6.06Z"/><path class="cls-4" d="M425.73,16.36c-.1.12-.18.23-.26.34s-.15.22-.21.32a2.13,2.13,0,0,1,.63-.43,2.22,2.22,0,0,1,1.55,0,1.86,1.86,0,0,1,.6.38,1.94,1.94,0,0,1,.39.6,2.13,2.13,0,0,1,.14.78,1.86,1.86,0,0,1-.16.79,1.65,1.65,0,0,1-.43.63,1.87,1.87,0,0,1-.66.42,2.34,2.34,0,0,1-.85.15,2.18,2.18,0,0,1-.82-.15,1.76,1.76,0,0,1-.63-.41,2,2,0,0,1-.41-.66,2.66,2.66,0,0,1-.14-.88,2.19,2.19,0,0,1,.19-.84,4.87,4.87,0,0,1,.62-1.06L427,14a.26.26,0,0,1,.23-.1h.38Zm.73,3.6a1.94,1.94,0,0,0,.7-.12,1.46,1.46,0,0,0,.53-.34A1.43,1.43,0,0,0,428,19a2,2,0,0,0,.11-.65,1.88,1.88,0,0,0-.11-.65,1.37,1.37,0,0,0-.33-.5,1.34,1.34,0,0,0-.49-.32,1.91,1.91,0,0,0-.64-.11,1.76,1.76,0,0,0-.71.14,1.54,1.54,0,0,0-.86.85,1.59,1.59,0,0,0-.11.56A2,2,0,0,0,425,19a1.6,1.6,0,0,0,.31.52,1.48,1.48,0,0,0,.5.34A1.67,1.67,0,0,0,426.46,20Z"/><path class="cls-4" d="M461.21,19.84a.14.14,0,0,1,.15.15v.25h-4.11v-.15a.19.19,0,0,1,0-.1.24.24,0,0,1,.06-.09l2.17-2.2c.18-.18.35-.36.5-.53a3.14,3.14,0,0,0,.4-.52,2.37,2.37,0,0,0,.26-.53,1.66,1.66,0,0,0,.1-.59,1.48,1.48,0,0,0-.12-.61,1.21,1.21,0,0,0-.31-.42,1.24,1.24,0,0,0-.45-.25,1.89,1.89,0,0,0-.53-.08,1.59,1.59,0,0,0-.55.09,1.43,1.43,0,0,0-.45.26,1.37,1.37,0,0,0-.33.39,2,2,0,0,0-.18.5.26.26,0,0,1-.08.13.2.2,0,0,1-.14,0l-.22,0a2.39,2.39,0,0,1,.22-.73,1.74,1.74,0,0,1,.43-.54,1.88,1.88,0,0,1,.59-.33,2.19,2.19,0,0,1,.73-.12,2.26,2.26,0,0,1,.69.11,1.77,1.77,0,0,1,.59.32,1.47,1.47,0,0,1,.4.54,1.73,1.73,0,0,1,.15.75,2.09,2.09,0,0,1-.11.67,2.53,2.53,0,0,1-.3.59,4.42,4.42,0,0,1-.44.55c-.16.18-.34.36-.52.55l-2,2,.3-.05a1.72,1.72,0,0,1,.32,0Z"/><path class="cls-4" d="M467.38,17.06a5.17,5.17,0,0,1-.18,1.45,3,3,0,0,1-.49,1,2,2,0,0,1-.72.6,2.09,2.09,0,0,1-.89.19,2.06,2.06,0,0,1-.89-.19,2,2,0,0,1-.72-.6,3,3,0,0,1-.49-1,5.17,5.17,0,0,1-.18-1.45,5.17,5.17,0,0,1,.18-1.45,2.88,2.88,0,0,1,.49-1,2,2,0,0,1,.72-.6,2.07,2.07,0,0,1,.89-.2,2.1,2.1,0,0,1,.89.2,2,2,0,0,1,.72.6,2.88,2.88,0,0,1,.49,1A5.17,5.17,0,0,1,467.38,17.06Zm-.45,0a5.5,5.5,0,0,0-.14-1.32,2.9,2.9,0,0,0-.4-.9,1.42,1.42,0,0,0-.59-.51,1.56,1.56,0,0,0-.7-.16,1.53,1.53,0,0,0-.7.16,1.42,1.42,0,0,0-.59.51,2.68,2.68,0,0,0-.4.9,5,5,0,0,0-.15,1.32,5,5,0,0,0,.15,1.32,2.68,2.68,0,0,0,.4.9,1.58,1.58,0,0,0,.59.51,1.67,1.67,0,0,0,.7.16,1.71,1.71,0,0,0,.7-.16,1.58,1.58,0,0,0,.59-.51,2.9,2.9,0,0,0,.4-.9A5.5,5.5,0,0,0,466.93,17.06Z"/><path class="cls-4" d="M472.92,19.91v.33h-3.29v-.33h1.47V14.75c0-.11,0-.21,0-.33l-1.4,1.25a.18.18,0,0,1-.13,0,.17.17,0,0,1-.1-.06l-.13-.18,1.84-1.62h.34v6.06Z"/><path class="cls-4" d="M479,13.88v.19a.49.49,0,0,1,0,.13.69.69,0,0,0,0,.1L476,20.08a.4.4,0,0,1-.1.12.25.25,0,0,1-.16,0h-.29l2.94-5.76a1.28,1.28,0,0,1,.14-.21h-3.67a.12.12,0,0,1-.09,0,.18.18,0,0,1,0-.09v-.27Z"/><path class="cls-3" d="M511.37,19.84a.16.16,0,0,1,.12,0,.21.21,0,0,1,0,.11v.25h-4.11v-.15a.36.36,0,0,1,0-.1l.07-.09,2.17-2.2c.18-.18.35-.36.5-.53a3.8,3.8,0,0,0,.4-.52,2.37,2.37,0,0,0,.26-.53,1.92,1.92,0,0,0,.1-.59,1.48,1.48,0,0,0-.12-.61,1.21,1.21,0,0,0-.31-.42,1.24,1.24,0,0,0-.45-.25,1.89,1.89,0,0,0-.53-.08,1.69,1.69,0,0,0-.56.09,1.43,1.43,0,0,0-.45.26,1.34,1.34,0,0,0-.32.39,1.43,1.43,0,0,0-.18.5.26.26,0,0,1-.08.13.21.21,0,0,1-.14,0l-.23,0a2.4,2.4,0,0,1,.23-.73,1.87,1.87,0,0,1,.42-.54,1.93,1.93,0,0,1,.6-.33,2.11,2.11,0,0,1,.73-.12,2.26,2.26,0,0,1,.69.11,1.77,1.77,0,0,1,.59.32,1.47,1.47,0,0,1,.4.54,1.73,1.73,0,0,1,.15.75,2.09,2.09,0,0,1-.11.67,3.64,3.64,0,0,1-.3.59,4.42,4.42,0,0,1-.44.55l-.53.55-2,2,.3-.05a1.62,1.62,0,0,1,.31,0Z"/><path class="cls-3" d="M517.55,17.06a5.17,5.17,0,0,1-.18,1.45,3,3,0,0,1-.49,1,2,2,0,0,1-.73.6,2.16,2.16,0,0,1-1.77,0,2,2,0,0,1-.73-.6,3,3,0,0,1-.48-1,5.17,5.17,0,0,1-.18-1.45,5.17,5.17,0,0,1,.18-1.45,2.88,2.88,0,0,1,.48-1,2,2,0,0,1,.73-.6,2.06,2.06,0,0,1,1.77,0,2,2,0,0,1,.73.6,2.88,2.88,0,0,1,.49,1A5.17,5.17,0,0,1,517.55,17.06Zm-.45,0a5,5,0,0,0-.15-1.32,2.68,2.68,0,0,0-.4-.9,1.4,1.4,0,0,0-.58-.51,1.63,1.63,0,0,0-1.41,0,1.46,1.46,0,0,0-.58.51,2.68,2.68,0,0,0-.4.9,5,5,0,0,0-.15,1.32,5,5,0,0,0,.15,1.32,2.68,2.68,0,0,0,.4.9,1.64,1.64,0,0,0,.58.51,1.63,1.63,0,0,0,1.41,0,1.56,1.56,0,0,0,.58-.51,2.68,2.68,0,0,0,.4-.9A5,5,0,0,0,517.1,17.06Z"/><path class="cls-3" d="M523.09,19.91v.33H519.8v-.33h1.46V14.75c0-.11,0-.21,0-.33l-1.41,1.25a.15.15,0,0,1-.12,0,.14.14,0,0,1-.1-.06l-.13-.18,1.84-1.62h.33v6.06Z"/><path class="cls-3" d="M527.65,16.92a2.07,2.07,0,0,1,.56.2,1.62,1.62,0,0,1,.44.34,1.43,1.43,0,0,1,.29.48,2,2,0,0,1,.1.62,1.73,1.73,0,0,1-.15.73,1.67,1.67,0,0,1-.43.55,1.77,1.77,0,0,1-.65.35,2.55,2.55,0,0,1-.84.13,2.47,2.47,0,0,1-.84-.13,1.77,1.77,0,0,1-.65-.35,1.55,1.55,0,0,1-.43-.55,1.9,1.9,0,0,1,0-1.35,1.56,1.56,0,0,1,.72-.82,2.07,2.07,0,0,1,.56-.2,2.2,2.2,0,0,1-.49-.22,1.43,1.43,0,0,1-.36-.33,1.78,1.78,0,0,1-.23-.43,1.7,1.7,0,0,1-.07-.51,1.53,1.53,0,0,1,.13-.64,1.4,1.4,0,0,1,.36-.51,1.61,1.61,0,0,1,.58-.35,2.32,2.32,0,0,1,1.53,0,1.61,1.61,0,0,1,.58.35,1.42,1.42,0,0,1,.37.51,1.53,1.53,0,0,1,.13.64,1.7,1.7,0,0,1-.08.51,1.3,1.3,0,0,1-.22.42,1.51,1.51,0,0,1-.37.34A2.2,2.2,0,0,1,527.65,16.92ZM527,20a2,2,0,0,0,.66-.1,1.4,1.4,0,0,0,.52-.29,1.31,1.31,0,0,0,.33-.44,1.4,1.4,0,0,0,.12-.58,1.34,1.34,0,0,0-.16-.7,1.23,1.23,0,0,0-.39-.45,1.43,1.43,0,0,0-.52-.23,2.26,2.26,0,0,0-.56-.07,2.2,2.2,0,0,0-.56.07,1.48,1.48,0,0,0-.53.23,1.23,1.23,0,0,0-.39.45,1.45,1.45,0,0,0-.15.7,1.4,1.4,0,0,0,.12.58,1.09,1.09,0,0,0,.33.44,1.28,1.28,0,0,0,.51.29A2,2,0,0,0,527,20Zm-1.42-4.54a1.42,1.42,0,0,0,.08.5,1.24,1.24,0,0,0,.7.72,1.89,1.89,0,0,0,1.27,0,1.08,1.08,0,0,0,.44-.3,1,1,0,0,0,.26-.42,1.43,1.43,0,0,0,.09-.5,1.45,1.45,0,0,0-.1-.51,1.11,1.11,0,0,0-.28-.41,1.16,1.16,0,0,0-.44-.27,1.64,1.64,0,0,0-.6-.1,1.57,1.57,0,0,0-.6.1,1.13,1.13,0,0,0-.45.27,1.25,1.25,0,0,0-.28.41A1.44,1.44,0,0,0,525.55,15.43Z"/></g><g id="overall_grades" data-name="overall grades"><rect class="cls-1" x="472.87" y="29.5" width="43.38" height="2.01"/><g class="cls-5"><rect class="cls-6" x="472.87" y="29.5" width="0.17" height="2.01"/><rect class="cls-7" x="473.04" y="29.5" width="0.17" height="2.01"/><rect class="cls-8" x="473.21" y="29.5" width="0.17" height="2.01"/><rect class="cls-9" x="473.38" y="29.5" width="0.17" height="2.01"/><rect class="cls-10" x="473.55" y="29.5" width="0.17" height="2.01"/><rect class="cls-11" x="473.72" y="29.5" width="0.17" height="2.01"/><rect class="cls-12" x="473.89" y="29.5" width="0.17" height="2.01"/><rect class="cls-13" x="474.06" y="29.5" width="0.17" height="2.01"/><rect class="cls-14" x="474.23" y="29.5" width="0.17" height="2.01"/><rect class="cls-15" x="474.4" y="29.5" width="0.17" height="2.01"/><rect class="cls-16" x="474.58" y="29.5" width="0.17" height="2.01"/><rect class="cls-17" x="474.75" y="29.5" width="0.17" height="2.01"/><rect class="cls-18" x="474.92" y="29.5" width="0.17" height="2.01"/><rect class="cls-19" x="475.09" y="29.5" width="0.17" height="2.01"/><rect class="cls-20" x="475.26" y="29.5" width="0.17" height="2.01"/><rect class="cls-21" x="475.43" y="29.5" width="0.17" height="2.01"/><rect class="cls-22" x="475.6" y="29.5" width="0.17" height="2.01"/><rect class="cls-23" x="475.77" y="29.5" width="0.17" height="2.01"/><rect class="cls-24" x="475.94" y="29.5" width="0.17" height="2.01"/><rect class="cls-25" x="476.11" y="29.5" width="0.17" height="2.01"/><rect class="cls-26" x="476.28" y="29.5" width="0.17" height="2.01"/><rect class="cls-27" x="476.45" y="29.5" width="0.17" height="2.01"/><rect class="cls-28" x="476.62" y="29.5" width="0.17" height="2.01"/><rect class="cls-29" x="476.79" y="29.5" width="0.17" height="2.01"/><rect class="cls-30" x="476.96" y="29.5" width="0.17" height="2.01"/><rect class="cls-31" x="477.13" y="29.5" width="0.17" height="2.01"/><rect class="cls-32" x="477.3" y="29.5" width="0.17" height="2.01"/><rect class="cls-33" x="477.47" y="29.5" width="0.17" height="2.01"/><rect class="cls-34" x="477.64" y="29.5" width="0.17" height="2.01"/><rect class="cls-35" x="477.81" y="29.5" width="0.17" height="2.01"/><rect class="cls-36" x="477.98" y="29.5" width="0.17" height="2.01"/><rect class="cls-37" x="478.15" y="29.5" width="0.17" height="2.01"/><rect class="cls-38" x="478.32" y="29.5" width="0.17" height="2.01"/><rect class="cls-39" x="478.49" y="29.5" width="0.17" height="2.01"/><rect class="cls-40" x="478.66" y="29.5" width="0.17" height="2.01"/><rect class="cls-41" x="478.83" y="29.5" width="0.17" height="2.01"/><rect class="cls-42" x="479" y="29.5" width="0.17" height="2.01"/><rect class="cls-43" x="479.17" y="29.5" width="0.17" height="2.01"/><rect class="cls-44" x="479.34" y="29.5" width="0.17" height="2.01"/><rect class="cls-45" x="479.51" y="29.5" width="0.17" height="2.01"/><rect class="cls-46" x="479.68" y="29.5" width="0.17" height="2.01"/><rect class="cls-47" x="479.85" y="29.5" width="0.17" height="2.01"/><rect class="cls-48" x="480.02" y="29.5" width="0.17" height="2.01"/><rect class="cls-49" x="480.19" y="29.5" width="0.17" height="2.01"/><rect class="cls-50" x="480.36" y="29.5" width="0.17" height="2.01"/><rect class="cls-51" x="480.53" y="29.5" width="0.17" height="2.01"/><rect class="cls-52" x="480.7" y="29.5" width="0.17" height="2.01"/><rect class="cls-53" x="480.87" y="29.5" width="0.17" height="2.01"/><rect class="cls-54" x="481.04" y="29.5" width="0.17" height="2.01"/><rect class="cls-55" x="481.21" y="29.5" width="0.17" height="2.01"/><rect class="cls-56" x="481.38" y="29.5" width="0.17" height="2.01"/><rect class="cls-57" x="481.55" y="29.5" width="0.17" height="2.01"/><rect class="cls-58" x="481.72" y="29.5" width="0.17" height="2.01"/><rect class="cls-59" x="481.89" y="29.5" width="0.17" height="2.01"/><rect class="cls-60" x="482.06" y="29.5" width="0.17" height="2.01"/><rect class="cls-61" x="482.23" y="29.5" width="0.17" height="2.01"/><rect class="cls-62" x="482.4" y="29.5" width="0.17" height="2.01"/><rect class="cls-63" x="482.57" y="29.5" width="0.17" height="2.01"/><rect class="cls-64" x="482.74" y="29.5" width="0.17" height="2.01"/><rect class="cls-65" x="482.91" y="29.5" width="0.17" height="2.01"/><rect class="cls-66" x="483.08" y="29.5" width="0.17" height="2.01"/><rect class="cls-67" x="483.25" y="29.5" width="0.17" height="2.01"/><rect class="cls-68" x="483.42" y="29.5" width="0.17" height="2.01"/><rect class="cls-69" x="483.59" y="29.5" width="0.17" height="2.01"/><rect class="cls-70" x="483.76" y="29.5" width="0.17" height="2.01"/><rect class="cls-71" x="483.93" y="29.5" width="0.17" height="2.01"/><rect class="cls-72" x="484.1" y="29.5" width="0.17" height="2.01"/><rect class="cls-73" x="484.27" y="29.5" width="0.17" height="2.01"/><rect class="cls-74" x="484.44" y="29.5" width="0.17" height="2.01"/><rect class="cls-75" x="484.61" y="29.5" width="0.17" height="2.01"/><rect class="cls-76" x="484.78" y="29.5" width="0.17" height="2.01"/><rect class="cls-77" x="484.95" y="29.5" width="0.17" height="2.01"/><rect class="cls-78" x="485.12" y="29.5" width="0.17" height="2.01"/><rect class="cls-79" x="485.29" y="29.5" width="0.17" height="2.01"/><rect class="cls-80" x="485.46" y="29.5" width="0.17" height="2.01"/><rect class="cls-81" x="485.63" y="29.5" width="0.17" height="2.01"/><rect class="cls-82" x="485.8" y="29.5" width="0.17" height="2.01"/><rect class="cls-83" x="485.97" y="29.5" width="0.17" height="2.01"/><rect class="cls-84" x="486.14" y="29.5" width="0.17" height="2.01"/><rect class="cls-85" x="486.31" y="29.5" width="0.17" height="2.01"/><rect class="cls-86" x="486.48" y="29.5" width="0.17" height="2.01"/><rect class="cls-87" x="486.65" y="29.5" width="0.17" height="2.01"/><rect class="cls-88" x="486.82" y="29.5" width="0.17" height="2.01"/><rect class="cls-89" x="486.99" y="29.5" width="0.17" height="2.01"/><rect class="cls-90" x="487.16" y="29.5" width="0.17" height="2.01"/><rect class="cls-91" x="487.33" y="29.5" width="0.17" height="2.01"/><rect class="cls-92" x="487.5" y="29.5" width="0.17" height="2.01"/><rect class="cls-93" x="487.67" y="29.5" width="0.17" height="2.01"/><rect class="cls-94" x="487.85" y="29.5" width="0.17" height="2.01"/><rect class="cls-95" x="488.02" y="29.5" width="0.17" height="2.01"/><rect class="cls-96" x="488.19" y="29.5" width="0.17" height="2.01"/><rect class="cls-97" x="488.36" y="29.5" width="0.17" height="2.01"/><rect class="cls-98" x="488.53" y="29.5" width="0.17" height="2.01"/><rect class="cls-99" x="488.7" y="29.5" width="0.17" height="2.01"/><rect class="cls-100" x="488.87" y="29.5" width="0.17" height="2.01"/><rect class="cls-101" x="489.04" y="29.5" width="0.17" height="2.01"/><rect class="cls-102" x="489.21" y="29.5" width="0.17" height="2.01"/><rect class="cls-103" x="489.38" y="29.5" width="0.17" height="2.01"/><rect class="cls-104" x="489.55" y="29.5" width="0.17" height="2.01"/><rect class="cls-105" x="489.72" y="29.5" width="0.17" height="2.01"/><rect class="cls-106" x="489.89" y="29.5" width="0.17" height="2.01"/><rect class="cls-107" x="490.06" y="29.5" width="0.17" height="2.01"/><rect class="cls-108" x="490.23" y="29.5" width="0.17" height="2.01"/><rect class="cls-109" x="490.4" y="29.5" width="0.17" height="2.01"/><rect class="cls-110" x="490.57" y="29.5" width="0.17" height="2.01"/><rect class="cls-111" x="490.74" y="29.5" width="0.17" height="2.01"/><rect class="cls-112" x="490.91" y="29.5" width="0.17" height="2.01"/><rect class="cls-113" x="491.08" y="29.5" width="0.17" height="2.01"/><rect class="cls-114" x="491.25" y="29.5" width="0.17" height="2.01"/><rect class="cls-115" x="491.42" y="29.5" width="0.17" height="2.01"/><rect class="cls-116" x="491.59" y="29.5" width="0.17" height="2.01"/><rect class="cls-117" x="491.76" y="29.5" width="0.17" height="2.01"/><rect class="cls-118" x="491.93" y="29.5" width="0.17" height="2.01"/><rect class="cls-119" x="492.1" y="29.5" width="0.17" height="2.01"/><rect class="cls-120" x="492.27" y="29.5" width="0.17" height="2.01"/><rect class="cls-121" x="492.44" y="29.5" width="0.17" height="2.01"/><rect class="cls-122" x="492.61" y="29.5" width="0.17" height="2.01"/><rect class="cls-123" x="492.78" y="29.5" width="0.17" height="2.01"/><rect class="cls-124" x="492.95" y="29.5" width="0.17" height="2.01"/><rect class="cls-125" x="493.12" y="29.5" width="0.17" height="2.01"/><rect class="cls-126" x="493.29" y="29.5" width="0.17" height="2.01"/><rect class="cls-127" x="493.46" y="29.5" width="0.17" height="2.01"/><rect class="cls-128" x="493.63" y="29.5" width="0.17" height="2.01"/><rect class="cls-129" x="493.8" y="29.5" width="0.17" height="2.01"/><rect class="cls-130" x="493.97" y="29.5" width="0.17" height="2.01"/><rect class="cls-131" x="494.14" y="29.5" width="0.17" height="2.01"/><rect class="cls-132" x="494.31" y="29.5" width="0.17" height="2.01"/><rect class="cls-1" x="494.48" y="29.5" width="0.17" height="2.01"/><rect class="cls-133" x="494.65" y="29.5" width="0.17" height="2.01"/><rect class="cls-134" x="494.82" y="29.5" width="0.17" height="2.01"/><rect class="cls-135" x="494.99" y="29.5" width="0.17" height="2.01"/><rect class="cls-136" x="495.16" y="29.5" width="0.17" height="2.01"/><rect class="cls-137" x="495.33" y="29.5" width="0.17" height="2.01"/><rect class="cls-138" x="495.5" y="29.5" width="0.17" height="2.01"/><rect class="cls-139" x="495.67" y="29.5" width="0.17" height="2.01"/><rect class="cls-140" x="495.84" y="29.5" width="0.17" height="2.01"/><rect class="cls-141" x="496.01" y="29.5" width="0.17" height="2.01"/><rect class="cls-142" x="496.18" y="29.5" width="0.17" height="2.01"/><rect class="cls-143" x="496.35" y="29.5" width="0.17" height="2.01"/><rect class="cls-144" x="496.52" y="29.5" width="0.17" height="2.01"/><rect class="cls-145" x="496.69" y="29.5" width="0.17" height="2.01"/><rect class="cls-146" x="496.86" y="29.5" width="0.17" height="2.01"/><rect class="cls-147" x="497.03" y="29.5" width="0.17" height="2.01"/><rect class="cls-148" x="497.2" y="29.5" width="0.17" height="2.01"/><rect class="cls-149" x="497.37" y="29.5" width="0.17" height="2.01"/><rect class="cls-150" x="497.54" y="29.5" width="0.17" height="2.01"/><rect class="cls-151" x="497.71" y="29.5" width="0.17" height="2.01"/><rect class="cls-152" x="497.88" y="29.5" width="0.17" height="2.01"/><rect class="cls-153" x="498.05" y="29.5" width="0.17" height="2.01"/><rect class="cls-154" x="498.22" y="29.5" width="0.17" height="2.01"/><rect class="cls-155" x="498.39" y="29.5" width="0.17" height="2.01"/><rect class="cls-156" x="498.56" y="29.5" width="0.17" height="2.01"/><rect class="cls-157" x="498.73" y="29.5" width="0.17" height="2.01"/><rect class="cls-158" x="498.9" y="29.5" width="0.17" height="2.01"/><rect class="cls-159" x="499.07" y="29.5" width="0.17" height="2.01"/><rect class="cls-160" x="499.24" y="29.5" width="0.17" height="2.01"/><rect class="cls-161" x="499.41" y="29.5" width="0.17" height="2.01"/><rect class="cls-162" x="499.58" y="29.5" width="0.17" height="2.01"/><rect class="cls-163" x="499.75" y="29.5" width="0.17" height="2.01"/><rect class="cls-164" x="499.92" y="29.5" width="0.17" height="2.01"/><rect class="cls-165" x="500.09" y="29.5" width="0.17" height="2.01"/><rect class="cls-166" x="500.26" y="29.5" width="0.17" height="2.01"/><rect class="cls-167" x="500.43" y="29.5" width="0.17" height="2.01"/><rect class="cls-168" x="500.6" y="29.5" width="0.17" height="2.01"/><rect class="cls-169" x="500.77" y="29.5" width="0.17" height="2.01"/><rect class="cls-170" x="500.94" y="29.5" width="0.17" height="2.01"/><rect class="cls-171" x="501.12" y="29.5" width="0.17" height="2.01"/><rect class="cls-172" x="501.29" y="29.5" width="0.17" height="2.01"/><rect class="cls-173" x="501.46" y="29.5" width="0.17" height="2.01"/><rect class="cls-174" x="501.63" y="29.5" width="0.17" height="2.01"/><rect class="cls-175" x="501.8" y="29.5" width="0.17" height="2.01"/><rect class="cls-176" x="501.97" y="29.5" width="0.17" height="2.01"/><rect class="cls-177" x="502.14" y="29.5" width="0.17" height="2.01"/><rect class="cls-178" x="502.31" y="29.5" width="0.17" height="2.01"/><rect class="cls-179" x="502.48" y="29.5" width="0.17" height="2.01"/><rect class="cls-180" x="502.65" y="29.5" width="0.17" height="2.01"/><rect class="cls-181" x="502.82" y="29.5" width="0.17" height="2.01"/><rect class="cls-182" x="502.99" y="29.5" width="0.17" height="2.01"/><rect class="cls-183" x="503.16" y="29.5" width="0.17" height="2.01"/><rect class="cls-184" x="503.33" y="29.5" width="0.17" height="2.01"/><rect class="cls-185" x="503.5" y="29.5" width="0.17" height="2.01"/><rect class="cls-186" x="503.67" y="29.5" width="0.17" height="2.01"/><rect class="cls-187" x="503.84" y="29.5" width="0.17" height="2.01"/><rect class="cls-188" x="504.01" y="29.5" width="0.17" height="2.01"/><rect class="cls-189" x="504.18" y="29.5" width="0.17" height="2.01"/><rect class="cls-190" x="504.35" y="29.5" width="0.17" height="2.01"/><rect class="cls-191" x="504.52" y="29.5" width="0.17" height="2.01"/><rect class="cls-192" x="504.69" y="29.5" width="0.17" height="2.01"/><rect class="cls-193" x="504.86" y="29.5" width="0.17" height="2.01"/><rect class="cls-194" x="505.03" y="29.5" width="0.17" height="2.01"/><rect class="cls-195" x="505.2" y="29.5" width="0.17" height="2.01"/><rect class="cls-196" x="505.37" y="29.5" width="0.17" height="2.01"/><rect class="cls-197" x="505.54" y="29.5" width="0.17" height="2.01"/><rect class="cls-198" x="505.71" y="29.5" width="0.17" height="2.01"/><rect class="cls-199" x="505.88" y="29.5" width="0.17" height="2.01"/><rect class="cls-200" x="506.05" y="29.5" width="0.17" height="2.01"/><rect class="cls-201" x="506.22" y="29.5" width="0.17" height="2.01"/><rect class="cls-202" x="506.39" y="29.5" width="0.17" height="2.01"/><rect class="cls-203" x="506.56" y="29.5" width="0.17" height="2.01"/><rect class="cls-204" x="506.73" y="29.5" width="0.17" height="2.01"/><rect class="cls-205" x="506.9" y="29.5" width="0.17" height="2.01"/><rect class="cls-206" x="507.07" y="29.5" width="0.17" height="2.01"/><rect class="cls-207" x="507.24" y="29.5" width="0.17" height="2.01"/><rect class="cls-208" x="507.41" y="29.5" width="0.17" height="2.01"/><rect class="cls-209" x="507.58" y="29.5" width="0.17" height="2.01"/><rect class="cls-210" x="507.75" y="29.5" width="0.17" height="2.01"/><rect class="cls-211" x="507.92" y="29.5" width="0.17" height="2.01"/><rect class="cls-212" x="508.09" y="29.5" width="0.17" height="2.01"/><rect class="cls-213" x="508.26" y="29.5" width="0.17" height="2.01"/><rect class="cls-214" x="508.43" y="29.5" width="0.17" height="2.01"/><rect class="cls-215" x="508.6" y="29.5" width="0.17" height="2.01"/><rect class="cls-216" x="508.77" y="29.5" width="0.17" height="2.01"/><rect class="cls-217" x="508.94" y="29.5" width="0.17" height="2.01"/><rect class="cls-218" x="509.11" y="29.5" width="0.17" height="2.01"/><rect class="cls-219" x="509.28" y="29.5" width="0.17" height="2.01"/><rect class="cls-220" x="509.45" y="29.5" width="0.17" height="2.01"/><rect class="cls-221" x="509.62" y="29.5" width="0.17" height="2.01"/><rect class="cls-222" x="509.79" y="29.5" width="0.17" height="2.01"/><rect class="cls-223" x="509.96" y="29.5" width="0.17" height="2.01"/><rect class="cls-224" x="510.13" y="29.5" width="0.17" height="2.01"/><rect class="cls-225" x="510.3" y="29.5" width="0.17" height="2.01"/><rect class="cls-226" x="510.47" y="29.5" width="0.17" height="2.01"/><rect class="cls-227" x="510.64" y="29.5" width="0.17" height="2.01"/><rect class="cls-228" x="510.81" y="29.5" width="0.17" height="2.01"/><rect class="cls-229" x="510.98" y="29.5" width="0.17" height="2.01"/><rect class="cls-230" x="511.15" y="29.5" width="0.17" height="2.01"/><rect class="cls-231" x="511.32" y="29.5" width="0.17" height="2.01"/><rect class="cls-232" x="511.49" y="29.5" width="0.17" height="2.01"/><rect class="cls-233" x="511.66" y="29.5" width="0.17" height="2.01"/><rect class="cls-234" x="511.83" y="29.5" width="0.17" height="2.01"/><rect class="cls-235" x="512" y="29.5" width="0.17" height="2.01"/><rect class="cls-236" x="512.17" y="29.5" width="0.17" height="2.01"/><rect class="cls-237" x="512.34" y="29.5" width="0.17" height="2.01"/><rect class="cls-238" x="512.51" y="29.5" width="0.17" height="2.01"/><rect class="cls-239" x="512.68" y="29.5" width="0.17" height="2.01"/><rect class="cls-240" x="512.85" y="29.5" width="0.17" height="2.01"/><rect class="cls-241" x="513.02" y="29.5" width="0.17" height="2.01"/><rect class="cls-242" x="513.19" y="29.5" width="0.17" height="2.01"/><rect class="cls-243" x="513.36" y="29.5" width="0.17" height="2.01"/><rect class="cls-244" x="513.53" y="29.5" width="0.17" height="2.01"/><rect class="cls-245" x="513.7" y="29.5" width="0.17" height="2.01"/><rect class="cls-246" x="513.87" y="29.5" width="0.17" height="2.01"/><rect class="cls-247" x="514.04" y="29.5" width="0.17" height="2.01"/><rect class="cls-248" x="514.21" y="29.5" width="0.17" height="2.01"/><rect class="cls-249" x="514.39" y="29.5" width="0.17" height="2.01"/><rect class="cls-250" x="514.56" y="29.5" width="0.17" height="2.01"/><rect class="cls-251" x="514.73" y="29.5" width="0.17" height="2.01"/><rect class="cls-252" x="514.9" y="29.5" width="0.17" height="2.01"/><rect class="cls-253" x="515.07" y="29.5" width="0.17" height="2.01"/><rect class="cls-254" x="515.24" y="29.5" width="0.17" height="2.01"/><rect class="cls-255" x="515.41" y="29.5" width="0.17" height="2.01"/><rect class="cls-256" x="515.58" y="29.5" width="0.17" height="2.01"/><rect class="cls-257" x="515.75" y="29.5" width="0.17" height="2.01"/><rect class="cls-258" x="515.92" y="29.5" width="0.17" height="2.01"/><rect class="cls-259" x="516.09" y="29.5" width="0.17" height="2.01"/></g></g></svg>