<svg id="Layer_1" data-name="Layer 1" xmlns="http://www.w3.org/2000/svg" xmlns:xlink="http://www.w3.org/1999/xlink" viewBox="0 0 548.67 59.33"><defs><style>.cls-1{fill:none;}.cls-2{clip-path:url(#clip-path);}.cls-3{opacity:0.1;}.cls-4{clip-path:url(#clip-path-3);}.cls-14,.cls-5,.cls-7{fill:#5ebf83;}.cls-6{fill:#52c883;}.cls-14,.cls-7{font-size:9px;}.cls-7{font-family:Lato-Light, Lato;}.cls-8{letter-spacing:0.07em;}.cls-9{letter-spacing:2.72em;}.cls-10{letter-spacing:0.07em;}.cls-11{letter-spacing:2.72em;}.cls-12{letter-spacing:2.71em;}.cls-13{letter-spacing:0.07em;}.cls-14{font-family:Lato-Bold, Lato;font-weight:700;}.cls-15{letter-spacing:0.07em;}.cls-16{letter-spacing:0.01em;}</style><clipPath id="clip-path"><rect class="cls-1" x="-10.5" y="4.03" width="555.22" height="51.42"/></clipPath><clipPath id="clip-path-3"><rect class="cls-1" x="484.3" y="-2.97" width="69.42" height="59.42"/></clipPath></defs><title>Grades-Timeline</title><g class="cls-2"><g class="cls-2"><g class="cls-3"><g class="cls-4"><path class="cls-5" d="M519,55.45A25.71,25.71,0,1,0,493.3,29.74,25.71,25.71,0,0,0,519,55.45"/></g></g><path class="cls-6" d="M519.05,26a4.5,4.5,0,0,0-4.38,3.5H473.11a4.49,4.49,0,0,0-8.76,0H422.78a4.48,4.48,0,0,0-8.75,0H372.46a4.49,4.49,0,0,0-8.76,0H322.14a4.49,4.49,0,0,0-8.76,0H271.81a4.49,4.49,0,0,0-8.76,0H221.49a4.49,4.49,0,0,0-8.76,0H171.16a4.49,4.49,0,0,0-8.76,0H120.84a4.49,4.49,0,0,0-8.76,0H70.52a4.49,4.49,0,0,0-8.76,0H20.19a4.5,4.5,0,1,0,0,2H61.76a4.49,4.49,0,0,0,8.76,0h41.56a4.49,4.49,0,0,0,8.76,0H162.4a4.49,4.49,0,0,0,8.76,0h41.57a4.49,4.49,0,0,0,8.76,0h41.56a4.49,4.49,0,0,0,8.76,0h41.57a4.49,4.49,0,0,0,8.76,0H363.7a4.49,4.49,0,0,0,8.76,0H414a4.48,4.48,0,0,0,8.75,0h41.57a4.49,4.49,0,0,0,8.76,0h41.56a4.5,4.5,0,1,0,4.38-5.5"/></g><text class="cls-7" transform="translate(4.11 20.24)"><tspan class="cls-8">2008</tspan><tspan class="cls-9" x="23.4" y="0"> </tspan><tspan class="cls-8" x="50.28" y="0">2009</tspan><tspan class="cls-9" x="73.68" y="0"> </tspan><tspan class="cls-10" x="100.56" y="0">2010</tspan><tspan class="cls-9" x="123.96" y="0"> </tspan><tspan class="cls-8" x="150.83" y="0">2011</tspan><tspan class="cls-9" x="174.23" y="0"> </tspan><tspan class="cls-8" x="201.11" y="0">2012</tspan><tspan class="cls-9" x="224.51" y="0"> </tspan><tspan class="cls-10" x="251.39" y="0">2013</tspan><tspan class="cls-9" x="274.79" y="0"> </tspan><tspan class="cls-10" x="301.67" y="0">2014</tspan><tspan class="cls-11" x="325.07" y="0"> </tspan><tspan class="cls-10" x="351.95" y="0">2015</tspan><tspan class="cls-12" x="375.35" y="0"> </tspan><tspan class="cls-13" x="402.22" y="0">2016</tspan><tspan class="cls-12" x="425.62" y="0"> </tspan><tspan class="cls-13" x="452.5" y="0">2017</tspan><tspan class="cls-11" x="475.9" y="0"> </tspan><tspan class="cls-10" x="502.78" y="0">201</tspan><tspan x="520.33" y="0">8</tspan></text><text class="cls-14" transform="translate(10.99 46.59)"><tspan class="cls-15">B</tspan><tspan x="6.55" y="0">-</tspan></text><text class="cls-14" transform="translate(60.88 46.59)"><tspan class="cls-15">B</tspan><tspan x="6.55" y="0">-</tspan></text><text class="cls-14" transform="translate(112.76 46.59)">C</text><text class="cls-14" transform="translate(156.73 46.59)"><tspan class="cls-10">N</tspan><tspan class="cls-16" x="7.56" y="0">/</tspan><tspan x="11.86" y="0">A</tspan></text><text class="cls-14" transform="translate(212.45 46.59)"><tspan class="cls-15">B</tspan><tspan x="6.55" y="0">-</tspan></text><text class="cls-14" transform="translate(262.48 46.59)"><tspan class="cls-15">B</tspan><tspan x="6.55" y="0">-</tspan></text><text class="cls-14" transform="translate(311.74 46.59)"><tspan class="cls-15">B</tspan><tspan x="6.55" y="0">-</tspan></text><text class="cls-14" transform="translate(363.19 46.59)"><tspan class="cls-15">B</tspan><tspan x="6.55" y="0">-</tspan></text><text class="cls-14" transform="translate(415.17 46.59)">A</text><text class="cls-14" transform="translate(465.72 46.59)">A</text><text class="cls-14" transform="translate(515.75 46.59)">A</text></g></svg>