<svg xmlns="http://www.w3.org/2000/svg" xmlns:xlink="http://www.w3.org/1999/xlink" viewBox="0 0 223 257"><defs><style>.cls-1{fill:none;}.cls-2{isolation:isolate;}.cls-3{clip-path:url(#clip-path);}.cls-4{fill:#dee122;}.cls-5{opacity:0.27;mix-blend-mode:multiply;}.cls-6{fill:#4d4d4d;}.cls-7{opacity:0.24;}.cls-8{fill:#e6e6e6;}.cls-9{clip-path:url(#clip-path-2);}.cls-10{clip-path:url(#clip-path-3);}.cls-11{clip-path:url(#clip-path-4);}</style><clipPath id="clip-path"><polygon class="cls-1" points="217.22 188.75 217.22 67.82 112.49 7.35 7.75 67.82 7.75 188.75 112.49 249.22 217.22 188.75"/></clipPath><clipPath id="clip-path-2"><polygon class="cls-1" points="209.73 472.76 209.73 351.83 105 291.37 0.27 351.83 0.27 472.76 105 533.23 209.73 472.76"/></clipPath><clipPath id="clip-path-3"><polygon class="cls-1" points="457.7 482.76 457.7 361.83 352.97 301.36 248.24 361.83 248.24 482.76 352.97 543.23 457.7 482.76"/></clipPath><clipPath id="clip-path-4"><polygon class="cls-1" points="457.7 188.75 457.7 67.82 352.97 7.35 248.24 67.82 248.24 188.75 352.97 249.22 457.7 188.75"/></clipPath></defs><title>honoree-1</title><g class="cls-2"><g id="Layer_2" data-name="Layer 2"><g class="cls-3"><image width="1701" height="1701" transform="translate(-268.33 -69.01) scale(0.4)" xlink:href="../../../../../../../1000. Events/Canopy Awards/2019 Canopy Awards/5. Honorees/CA19 - Delores Bushong headshot.jpg"/></g><path class="cls-4" d="M112.49,7.35,217.22,67.82V188.75L112.49,249.22,7.75,188.75V67.82L112.49,7.35m0-5.77L110,3,5.25,63.49l-2.5,1.44V191.64l2.5,1.44L110,253.55l2.5,1.44,2.5-1.44,104.73-60.47,2.5-1.44V64.93l-2.5-1.44L115,3l-2.5-1.44Z"/><g class="cls-5"><polygon class="cls-6" points="111.49 128.28 111.49 249.22 216.22 188.75 216.22 188.75 216.22 67.82 111.49 128.28"/></g><g class="cls-7"><polygon class="cls-8" points="111.49 7.35 6.75 67.82 6.75 67.82 111.49 128.28 216.22 67.82 216.22 67.82 111.49 7.35"/></g></g><g id="Layer_3" data-name="Layer 3"><g class="cls-9"><image width="1840" height="1840" transform="translate(-244.29 200.37) scale(0.37)" xlink:href="../../../../../../../1000. Events/Canopy Awards/2019 Canopy Awards/5. Honorees/CA19 - Kahlil Kettering headshot.jpg"/></g></g><g id="Layer_5" data-name="Layer 5"><g class="cls-10"><image width="2736" height="4104" transform="translate(92.78 148.14) scale(0.19)" xlink:href="../../../../../../../1000. Events/Canopy Awards/2019 Canopy Awards/5. Honorees/CA19 - Polly Donaldson headshot.JPG"/></g></g><g id="Layer_6" data-name="Layer 6"><g class="cls-11"><image width="1994" height="1994" transform="translate(22.91 -92.58) scale(0.34)" xlink:href="../../../../../../../1000. Events/Canopy Awards/2019 Canopy Awards/5. Honorees/CA19 - Heidi Burns headshot.jpg"/></g></g></g></svg>