<svg xmlns="http://www.w3.org/2000/svg" xmlns:xlink="http://www.w3.org/1999/xlink" viewBox="0 0 223 257"><defs><style>.cls-1{fill:none;}.cls-2{isolation:isolate;}.cls-3{clip-path:url(#clip-path);}.cls-4{clip-path:url(#clip-path-2);}.cls-5{clip-path:url(#clip-path-3);}.cls-6{fill:#dee122;}.cls-7{opacity:0.27;mix-blend-mode:multiply;}.cls-8{fill:#4d4d4d;}.cls-9{opacity:0.24;}.cls-10{fill:#e6e6e6;}.cls-11{clip-path:url(#clip-path-4);}</style><clipPath id="clip-path"><polygon class="cls-1" points="-24.27 -105.26 -24.27 -226.2 -129 -286.66 -233.73 -226.2 -233.73 -105.26 -129 -44.8 -24.27 -105.26"/></clipPath><clipPath id="clip-path-2"><polygon class="cls-1" points="-31.76 178.75 -31.76 57.82 -136.49 -2.65 -241.22 57.82 -241.22 178.75 -136.49 239.22 -31.76 178.75"/></clipPath><clipPath id="clip-path-3"><polygon class="cls-1" points="216.22 188.75 216.22 67.82 111.49 7.35 6.75 67.82 6.75 188.75 111.49 249.22 216.22 188.75"/></clipPath><clipPath id="clip-path-4"><polygon class="cls-1" points="216.22 -105.26 216.22 -226.2 111.49 -286.66 6.75 -226.2 6.75 -105.26 111.49 -44.8 216.22 -105.26"/></clipPath></defs><title>honoree-5</title><g class="cls-2"><g id="Layer_2" data-name="Layer 2"><g class="cls-3"><image width="1701" height="1701" transform="translate(-509.82 -363.02) scale(0.4)" xlink:href="../../../../../../../1000. Events/Canopy Awards/2019 Canopy Awards/5. Honorees/CA19 - Delores Bushong headshot.jpg"/></g></g><g id="Layer_3" data-name="Layer 3"><g class="cls-4"><image width="1840" height="1840" transform="translate(-485.78 -93.65) scale(0.37)" xlink:href="../../../../../../../1000. Events/Canopy Awards/2019 Canopy Awards/5. Honorees/CA19 - Kahlil Kettering headshot.jpg"/></g></g><g id="Layer_5" data-name="Layer 5"><g class="cls-5"><image width="2736" height="4104" transform="translate(-148.71 -145.87) scale(0.19)" xlink:href="../../../../../../../1000. Events/Canopy Awards/2019 Canopy Awards/5. Honorees/CA19 - Polly Donaldson headshot.JPG"/></g><path class="cls-6" d="M111.49,7.35,216.22,67.82V188.75L111.49,249.22,6.75,188.75V67.82L111.49,7.35m0-5.77L109,3,4.25,63.49l-2.5,1.44V191.64l2.5,1.44L109,253.55l2.5,1.44,2.5-1.44,104.73-60.47,2.5-1.44V64.93l-2.5-1.44L114,3l-2.5-1.44Z"/><g class="cls-7"><polygon class="cls-8" points="111.49 128.28 111.49 249.22 216.22 188.75 216.22 188.75 216.22 67.82 111.49 128.28"/></g><g class="cls-9"><polygon class="cls-10" points="111.49 7.35 6.75 67.82 6.75 67.82 111.49 128.28 216.22 67.82 216.22 67.82 111.49 7.35"/></g></g><g id="Layer_6" data-name="Layer 6"><g class="cls-11"><image width="1994" height="1994" transform="translate(-218.58 -386.59) scale(0.34)" xlink:href="../../../../../../../1000. Events/Canopy Awards/2019 Canopy Awards/5. Honorees/CA19 - Heidi Burns headshot.jpg"/></g></g></g></svg>