<svg xmlns="http://www.w3.org/2000/svg" xmlns:xlink="http://www.w3.org/1999/xlink" viewBox="0 0 223 257"><defs><style>.cls-1{fill:none;}.cls-2{isolation:isolate;}.cls-3{clip-path:url(#clip-path);}.cls-4{fill:#dee122;}.cls-5{opacity:0.27;mix-blend-mode:multiply;}.cls-6{fill:#4d4d4d;}.cls-7{opacity:0.24;}.cls-8{fill:#e6e6e6;}.cls-9{clip-path:url(#clip-path-2);}.cls-10{clip-path:url(#clip-path-3);}</style><clipPath id="clip-path"><polygon class="cls-1" points="216.22 188.75 216.22 67.82 111.49 7.35 6.75 67.82 6.75 188.75 111.49 249.22 216.22 188.75"/></clipPath><clipPath id="clip-path-2"><polygon class="cls-1" points="-42.29 188.75 -42.29 67.82 -147.03 7.35 -251.76 67.82 -251.76 188.75 -147.03 249.22 -42.29 188.75"/></clipPath><clipPath id="clip-path-3"><polygon class="cls-1" points="-42.29 -105.26 -42.29 -226.2 -147.03 -286.66 -251.76 -226.2 -251.76 -105.26 -147.03 -44.8 -42.29 -105.26"/></clipPath></defs><title>honoree-3</title><g class="cls-2"><g id="Layer_4" data-name="Layer 4"><g class="cls-3"><image width="400" height="522" transform="translate(-18.96 -7.61) scale(0.8)" xlink:href="../../../../../../../1000. Events/Canopy Awards/2019 Canopy Awards/5. Honorees/CA19 - Vince Gray headshot.jpg"/></g><path class="cls-4" d="M111.49,7.35,216.22,67.82V188.75L111.49,249.22,6.75,188.75V67.82L111.49,7.35m0-5.77L109,3,4.25,63.49l-2.5,1.44V191.64l2.5,1.44L109,253.55l2.5,1.44,2.5-1.44,104.73-60.47,2.5-1.44V64.93l-2.5-1.44L114,3l-2.5-1.44Z"/><g class="cls-5"><polygon class="cls-6" points="111.49 128.28 111.49 249.22 216.22 188.75 216.22 188.75 216.22 67.82 111.49 128.28"/></g><g class="cls-7"><polygon class="cls-8" points="111.49 7.35 6.75 67.82 6.75 67.82 111.49 128.28 216.22 67.82 216.22 67.82 111.49 7.35"/></g></g><g id="Layer_5" data-name="Layer 5"><g class="cls-9"><image width="2736" height="4104" transform="translate(-407.22 -145.87) scale(0.19)" xlink:href="../../../../../../../1000. Events/Canopy Awards/2019 Canopy Awards/5. Honorees/CA19 - Polly Donaldson headshot.JPG"/></g></g><g id="Layer_6" data-name="Layer 6"><g class="cls-10"><image width="1994" height="1994" transform="translate(-477.09 -386.59) scale(0.34)" xlink:href="../../../../../../../1000. Events/Canopy Awards/2019 Canopy Awards/5. Honorees/CA19 - Heidi Burns headshot.jpg"/></g></g></g></svg>