<svg xmlns="http://www.w3.org/2000/svg" xmlns:xlink="http://www.w3.org/1999/xlink" viewBox="0 0 419.6 108.57"><defs><style>.cls-1{fill:none;}.cls-2{fill:#373737;}.cls-3{clip-path:url(#clip-path);}.cls-4{fill:#134523;}.cls-5{fill:#720e29;}.cls-6{fill:#0e7d3f;}.cls-7{fill:#d61b65;}</style><clipPath id="clip-path"><rect class="cls-1" x="8.89" y="-5" width="425.13" height="114.75"/></clipPath></defs><title>legend</title><g id="overall_grades" data-name="overall grades"><path class="cls-2" d="M76.14,18.78a7.53,7.53,0,0,1-.44,2.64,5.73,5.73,0,0,1-1.24,2,5.31,5.31,0,0,1-1.91,1.26,6.56,6.56,0,0,1-2.46.44H65.45V12.44h4.64a6.56,6.56,0,0,1,2.46.44,5.31,5.31,0,0,1,1.91,1.26,5.73,5.73,0,0,1,1.24,2A7.53,7.53,0,0,1,76.14,18.78Zm-1,0a6.94,6.94,0,0,0-.37-2.37,4.89,4.89,0,0,0-1-1.76,4.46,4.46,0,0,0-1.61-1.09,5.58,5.58,0,0,0-2.08-.38H66.38v11.2h3.71A5.58,5.58,0,0,0,72.17,24a4.46,4.46,0,0,0,1.61-1.09,4.81,4.81,0,0,0,1-1.76A6.94,6.94,0,0,0,75.19,18.78Z"/><path class="cls-2" d="M78.85,20.31v.17a5.92,5.92,0,0,0,.24,1.77,3.48,3.48,0,0,0,.66,1.27,2.65,2.65,0,0,0,1,.78,3.51,3.51,0,0,0,1.36.26,4.06,4.06,0,0,0,1.17-.15,4.77,4.77,0,0,0,.83-.33,4.21,4.21,0,0,0,.53-.33A.6.6,0,0,1,85,23.6a.2.2,0,0,1,.18.09l.23.29a2.37,2.37,0,0,1-.57.5,4.17,4.17,0,0,1-.79.4,5.28,5.28,0,0,1-.93.26,4.78,4.78,0,0,1-1,.1,4.32,4.32,0,0,1-1.67-.32A3.5,3.5,0,0,1,79.13,24a4.21,4.21,0,0,1-.83-1.49,6.56,6.56,0,0,1-.29-2,5.3,5.3,0,0,1,.28-1.77,4.06,4.06,0,0,1,.78-1.4,3.67,3.67,0,0,1,1.27-.92,4.16,4.16,0,0,1,1.7-.33,3.79,3.79,0,0,1,1.4.26,3.18,3.18,0,0,1,1.12.76,3.62,3.62,0,0,1,.74,1.22A4.57,4.57,0,0,1,85.58,20a.45.45,0,0,1-.06.27.18.18,0,0,1-.17.07Zm6-.55a3.91,3.91,0,0,0-.2-1.28,3,3,0,0,0-.57-1,2.55,2.55,0,0,0-.88-.6,2.89,2.89,0,0,0-1.11-.21,3.43,3.43,0,0,0-1.24.21,2.79,2.79,0,0,0-1,.62,3.15,3.15,0,0,0-.64,1,4.48,4.48,0,0,0-.32,1.26Z"/><path class="cls-2" d="M88.72,17.76a5.06,5.06,0,0,1,1.43-1.23,3.55,3.55,0,0,1,1.8-.47,3.51,3.51,0,0,1,1.3.23,2.44,2.44,0,0,1,.93.68A2.92,2.92,0,0,1,94.73,18a4.69,4.69,0,0,1,.19,1.4v5.7h-.86v-5.7a3.1,3.1,0,0,0-.57-2,2.14,2.14,0,0,0-1.75-.71,3.15,3.15,0,0,0-1.63.45,4.58,4.58,0,0,0-1.35,1.23v6.7H87.9V16.2h.48a.25.25,0,0,1,.26.23Z"/><path class="cls-2" d="M102.67,17.31a.24.24,0,0,1-.21.12.48.48,0,0,1-.25-.11,2.73,2.73,0,0,0-.41-.25,3.18,3.18,0,0,0-.63-.25,3.09,3.09,0,0,0-.92-.11,2.75,2.75,0,0,0-.88.13,2.23,2.23,0,0,0-.68.38,1.64,1.64,0,0,0-.44.54,1.47,1.47,0,0,0-.15.65,1.09,1.09,0,0,0,.22.7,1.87,1.87,0,0,0,.56.47,3.83,3.83,0,0,0,.79.34l.91.29c.31.1.61.2.91.32a3.5,3.5,0,0,1,.79.43,2.14,2.14,0,0,1,.56.64,1.77,1.77,0,0,1,.22.92,2.77,2.77,0,0,1-.21,1.08,2.47,2.47,0,0,1-.6.87,3.07,3.07,0,0,1-1,.58,4.37,4.37,0,0,1-3-.08,4.34,4.34,0,0,1-1.22-.79l.2-.3a.27.27,0,0,1,.1-.11.34.34,0,0,1,.16,0,.48.48,0,0,1,.28.15,4,4,0,0,0,.44.31,4.54,4.54,0,0,0,.69.31,3.24,3.24,0,0,0,1,.14,2.78,2.78,0,0,0,1-.16,2,2,0,0,0,.72-.42,1.65,1.65,0,0,0,.43-.64,1.94,1.94,0,0,0,.15-.76,1.28,1.28,0,0,0-.21-.75,2.14,2.14,0,0,0-.57-.5,4.81,4.81,0,0,0-.79-.35l-.91-.28c-.31-.1-.62-.2-.91-.32a3.14,3.14,0,0,1-.79-.43,1.91,1.91,0,0,1-.57-.63,1.88,1.88,0,0,1-.21-.93,2,2,0,0,1,.2-.91,2.21,2.21,0,0,1,.59-.77,2.8,2.8,0,0,1,.93-.53,3.59,3.59,0,0,1,1.22-.2,4.28,4.28,0,0,1,1.45.23,3.48,3.48,0,0,1,1.15.72Z"/><path class="cls-2" d="M105.69,20.31v.17a5.94,5.94,0,0,0,.23,1.77,3.64,3.64,0,0,0,.66,1.27,2.72,2.72,0,0,0,1,.78,3.52,3.52,0,0,0,1.37.26,4,4,0,0,0,1.16-.15,4.47,4.47,0,0,0,.83-.33,4.21,4.21,0,0,0,.53-.33.6.6,0,0,1,.29-.15.2.2,0,0,1,.18.09l.23.29a2.37,2.37,0,0,1-.57.5,4.17,4.17,0,0,1-.79.4,5.28,5.28,0,0,1-.93.26,4.78,4.78,0,0,1-1,.1,4.32,4.32,0,0,1-1.67-.32A3.5,3.5,0,0,1,106,24a4.37,4.37,0,0,1-.83-1.49,6.56,6.56,0,0,1-.29-2,5.3,5.3,0,0,1,.28-1.77,3.92,3.92,0,0,1,.79-1.4,3.55,3.55,0,0,1,1.26-.92,4.19,4.19,0,0,1,1.7-.33,3.79,3.79,0,0,1,1.4.26,3.18,3.18,0,0,1,1.12.76,3.81,3.81,0,0,1,.75,1.22,4.8,4.8,0,0,1,.27,1.67.56.56,0,0,1,0,.27.21.21,0,0,1-.18.07Zm6-.55a3.91,3.91,0,0,0-.2-1.28,3,3,0,0,0-.57-1,2.55,2.55,0,0,0-.88-.6,2.85,2.85,0,0,0-1.11-.21,3.43,3.43,0,0,0-1.24.21,2.89,2.89,0,0,0-1,.62,3.34,3.34,0,0,0-.64,1,4.48,4.48,0,0,0-.32,1.26Z"/><path class="cls-2" d="M72.21,34.13l-3.76,8.92h-.76l-3.76-8.92h.67a.31.31,0,0,1,.21.07.25.25,0,0,1,.1.15l3,7a6.62,6.62,0,0,1,.22.78,6.62,6.62,0,0,1,.22-.78l3-7a.4.4,0,0,1,.12-.16.31.31,0,0,1,.19-.06Zm1.92,4.11v.17a6.16,6.16,0,0,0,.23,1.76A3.61,3.61,0,0,0,75,41.45a2.77,2.77,0,0,0,1,.78,3.47,3.47,0,0,0,1.36.26,4.06,4.06,0,0,0,1.17-.15,4.65,4.65,0,0,0,.82-.33q.35-.19.54-.33a.58.58,0,0,1,.28-.15.2.2,0,0,1,.18.09l.24.28a2.86,2.86,0,0,1-.57.51,4.47,4.47,0,0,1-.79.39,5.29,5.29,0,0,1-.93.27,4.92,4.92,0,0,1-1,.1,4.29,4.29,0,0,1-1.67-.32,3.5,3.5,0,0,1-1.29-.93,4.06,4.06,0,0,1-.83-1.49,6.56,6.56,0,0,1-.29-2,5.57,5.57,0,0,1,.27-1.77,4.08,4.08,0,0,1,.79-1.4,3.64,3.64,0,0,1,1.26-.92,4.19,4.19,0,0,1,1.7-.33,3.56,3.56,0,0,1,1.4.26,3,3,0,0,1,1.12.76,3.49,3.49,0,0,1,.75,1.22,4.76,4.76,0,0,1,.27,1.67.46.46,0,0,1,0,.27.25.25,0,0,1-.18.07Zm6-.55a3.72,3.72,0,0,0-.2-1.29,2.56,2.56,0,0,0-.57-1,2.42,2.42,0,0,0-.87-.6,2.73,2.73,0,0,0-1.12-.22,3.37,3.37,0,0,0-1.23.22,2.65,2.65,0,0,0-1,.62,3,3,0,0,0-.64,1,4.31,4.31,0,0,0-.32,1.26Zm10.27-3.16v.29c0,.13-.09.21-.25.24l-1.37.1a2.6,2.6,0,0,1,.39.76,3.05,3.05,0,0,1,.13.92A2.94,2.94,0,0,1,89,38a2.67,2.67,0,0,1-.65.9,3,3,0,0,1-1,.57,3.9,3.9,0,0,1-1.3.21,4.09,4.09,0,0,1-1.39-.23,1.84,1.84,0,0,0-.59.5,1,1,0,0,0-.22.58.68.68,0,0,0,.27.59,1.7,1.7,0,0,0,.72.3,4.91,4.91,0,0,0,1,.12l1.16.06c.39,0,.78.06,1.16.11a3.63,3.63,0,0,1,1,.29,1.76,1.76,0,0,1,.72.56,1.59,1.59,0,0,1,.27,1,2.23,2.23,0,0,1-.27,1.06,3,3,0,0,1-.81.91,4.37,4.37,0,0,1-1.26.63,5.48,5.48,0,0,1-1.67.24,6.21,6.21,0,0,1-1.65-.2,3.72,3.72,0,0,1-1.19-.52,2.22,2.22,0,0,1-.72-.75,1.86,1.86,0,0,1-.24-.92,1.73,1.73,0,0,1,.46-1.21,3.19,3.19,0,0,1,1.28-.8,1.72,1.72,0,0,1-.73-.44,1.11,1.11,0,0,1-.27-.79,1.46,1.46,0,0,1,.07-.4,1.59,1.59,0,0,1,.22-.4,1.82,1.82,0,0,1,.35-.39,3.13,3.13,0,0,1,.46-.32,2.66,2.66,0,0,1-1-1,2.82,2.82,0,0,1-.35-1.42,2.94,2.94,0,0,1,.23-1.17,2.54,2.54,0,0,1,.65-.9,2.79,2.79,0,0,1,1-.58,3.81,3.81,0,0,1,1.3-.21,4.11,4.11,0,0,1,1.09.14,3.16,3.16,0,0,1,.89.41Zm-.93,9.12A1,1,0,0,0,89.2,43a1.38,1.38,0,0,0-.59-.4,3.41,3.41,0,0,0-.85-.21l-1-.08-1.06,0a9.66,9.66,0,0,1-1-.11,3.69,3.69,0,0,0-.63.31,2.14,2.14,0,0,0-.49.4,1.61,1.61,0,0,0-.32.48,1.39,1.39,0,0,0-.12.57,1.4,1.4,0,0,0,.2.73,1.84,1.84,0,0,0,.59.59,3.56,3.56,0,0,0,1,.39,5.57,5.57,0,0,0,1.3.14,5.2,5.2,0,0,0,1.27-.15,3.64,3.64,0,0,0,1-.43,2.29,2.29,0,0,0,.68-.67A1.53,1.53,0,0,0,89.42,43.65Zm-3.34-4.54a3,3,0,0,0,1-.17,2.15,2.15,0,0,0,.76-.46,2,2,0,0,0,.46-.71,2.42,2.42,0,0,0,.16-.91,2.47,2.47,0,0,0-.16-.92,1.86,1.86,0,0,0-.48-.71,2,2,0,0,0-.75-.46,3.27,3.27,0,0,0-2,0,2.2,2.2,0,0,0-.75.46,1.84,1.84,0,0,0-.47.71,2.47,2.47,0,0,0-.16.92,2.42,2.42,0,0,0,.16.91,1.92,1.92,0,0,0,.47.71,2.2,2.2,0,0,0,.75.46A2.89,2.89,0,0,0,86.08,39.11Zm6.44-.87v.17a6.16,6.16,0,0,0,.23,1.76,3.77,3.77,0,0,0,.66,1.28,2.94,2.94,0,0,0,1,.78,3.52,3.52,0,0,0,1.37.26A4,4,0,0,0,97,42.34a4.47,4.47,0,0,0,.83-.33c.23-.13.4-.24.53-.33a.64.64,0,0,1,.29-.15.2.2,0,0,1,.18.09l.23.28a2.4,2.4,0,0,1-.57.51,4.06,4.06,0,0,1-.78.39,5.16,5.16,0,0,1-.94.27,4.78,4.78,0,0,1-1,.1,4.24,4.24,0,0,1-1.66-.32,3.34,3.34,0,0,1-1.29-.93A4.06,4.06,0,0,1,92,40.43a6.27,6.27,0,0,1-.3-2A5.57,5.57,0,0,1,92,36.64a3.92,3.92,0,0,1,.79-1.4A3.55,3.55,0,0,1,94,34.32,4.19,4.19,0,0,1,95.7,34a3.6,3.6,0,0,1,1.4.26,3.05,3.05,0,0,1,1.12.76A3.49,3.49,0,0,1,99,36.23a4.76,4.76,0,0,1,.27,1.67.56.56,0,0,1,0,.27.25.25,0,0,1-.18.07Zm6-.55a4,4,0,0,0-.2-1.29,2.85,2.85,0,0,0-.57-1,2.61,2.61,0,0,0-.87-.6,2.73,2.73,0,0,0-1.12-.22,3.47,3.47,0,0,0-1.24.22,2.61,2.61,0,0,0-.94.62,3,3,0,0,0-.64,1,4.31,4.31,0,0,0-.33,1.26Zm5.5,5.5a1.9,1.9,0,0,1-1.41-.5,2.08,2.08,0,0,1-.5-1.55V35.05h-1.29a.23.23,0,0,1-.16-.06.18.18,0,0,1-.06-.15v-.33l1.52-.11.22-3.19a.37.37,0,0,1,.07-.14.18.18,0,0,1,.15-.07h.41v3.41h2.81v.64h-2.81V41.1a2,2,0,0,0,.09.63,1.08,1.08,0,0,0,.26.43.9.9,0,0,0,.39.25,1.28,1.28,0,0,0,.48.09,1.52,1.52,0,0,0,.56-.1,2.13,2.13,0,0,0,.4-.2l.28-.21a.35.35,0,0,1,.17-.1.2.2,0,0,1,.15.09l.23.38a2.66,2.66,0,0,1-.87.61A2.72,2.72,0,0,1,104,43.19Zm3.45-7.79a5,5,0,0,1,1.47-1.06,4.05,4.05,0,0,1,1.75-.36,3.24,3.24,0,0,1,1.25.23,2.26,2.26,0,0,1,.89.65,2.89,2.89,0,0,1,.54,1,4.79,4.79,0,0,1,.18,1.35v5.81h-.35a.31.31,0,0,1-.33-.25l-.12-1.15c-.25.24-.49.46-.73.65a4.81,4.81,0,0,1-.76.48,3.91,3.91,0,0,1-.85.31,4.55,4.55,0,0,1-1,.1,2.89,2.89,0,0,1-.88-.13,2.28,2.28,0,0,1-.77-.41,2.16,2.16,0,0,1-.54-.71,2.55,2.55,0,0,1-.2-1,1.88,1.88,0,0,1,.32-1,2.74,2.74,0,0,1,1-.84,6.57,6.57,0,0,1,1.77-.57,15.15,15.15,0,0,1,2.59-.26v-.93a3,3,0,0,0-.53-1.9,1.89,1.89,0,0,0-1.58-.67,3,3,0,0,0-1.1.18,4.24,4.24,0,0,0-.77.39,5.39,5.39,0,0,0-.51.4.55.55,0,0,1-.33.18.25.25,0,0,1-.16,0,.57.57,0,0,1-.11-.11Zm5.24,3.34a17.52,17.52,0,0,0-2.19.2,6.65,6.65,0,0,0-1.52.43,2.28,2.28,0,0,0-.88.64,1.37,1.37,0,0,0-.29.85,1.86,1.86,0,0,0,.15.77,1.47,1.47,0,0,0,.4.54,1.57,1.57,0,0,0,.57.31,2.47,2.47,0,0,0,.67.1,3.53,3.53,0,0,0,1-.12,3.58,3.58,0,0,0,.81-.31,3.28,3.28,0,0,0,.69-.48,7.13,7.13,0,0,0,.64-.6Zm11,4.31h-.86v-8h-5.16V41.1a2,2,0,0,0,.09.63,1.08,1.08,0,0,0,.26.43.9.9,0,0,0,.39.25,1.28,1.28,0,0,0,.48.09,1.52,1.52,0,0,0,.56-.1,2.13,2.13,0,0,0,.4-.2l.28-.21a.35.35,0,0,1,.17-.1.2.2,0,0,1,.15.09l.23.38a2.66,2.66,0,0,1-.87.61,2.72,2.72,0,0,1-1.09.22,1.9,1.9,0,0,1-1.41-.5,2.08,2.08,0,0,1-.5-1.55V35.05h-1.29a.23.23,0,0,1-.16-.06.18.18,0,0,1-.06-.15v-.33l1.52-.11.22-3.19a.37.37,0,0,1,.07-.14.18.18,0,0,1,.15-.07h.41v3.41h6Zm.4-12.1a.73.73,0,0,1-.07.3,1.44,1.44,0,0,1-.18.25,1.17,1.17,0,0,1-.26.17.73.73,0,0,1-.3.06.81.81,0,0,1-.31-.06,1.1,1.1,0,0,1-.25-.17,1,1,0,0,1-.17-.25.73.73,0,0,1-.06-.3.81.81,0,0,1,.06-.31.9.9,0,0,1,.17-.26,1.1,1.1,0,0,1,.25-.17.81.81,0,0,1,.31-.06.73.73,0,0,1,.3.06,1.17,1.17,0,0,1,.26.17,1.2,1.2,0,0,1,.18.26A.82.82,0,0,1,124.06,31Zm6.16,3a4.26,4.26,0,0,1,1.72.33,3.39,3.39,0,0,1,1.28.92,4.22,4.22,0,0,1,.79,1.45,6.27,6.27,0,0,1,.27,1.9,6.16,6.16,0,0,1-.27,1.89,4.18,4.18,0,0,1-.79,1.44,3.53,3.53,0,0,1-1.28.93,4.43,4.43,0,0,1-1.72.32,4.38,4.38,0,0,1-1.71-.32,3.56,3.56,0,0,1-1.29-.93,4.18,4.18,0,0,1-.79-1.44,5.87,5.87,0,0,1-.28-1.89,6,6,0,0,1,.28-1.9,4.22,4.22,0,0,1,.79-1.45,3.43,3.43,0,0,1,1.29-.92A4.21,4.21,0,0,1,130.22,34Zm0,8.51a3.36,3.36,0,0,0,1.4-.28,2.61,2.61,0,0,0,1-.78,3.37,3.37,0,0,0,.6-1.23,6.66,6.66,0,0,0,0-3.24,3.49,3.49,0,0,0-.6-1.24,2.63,2.63,0,0,0-1-.79,3.62,3.62,0,0,0-2.79,0,2.66,2.66,0,0,0-1,.79,3.87,3.87,0,0,0-.6,1.24,6.66,6.66,0,0,0,0,3.24,3.71,3.71,0,0,0,.6,1.23,2.64,2.64,0,0,0,1,.78A3.35,3.35,0,0,0,130.22,42.5Zm7.29-6.81a5.1,5.1,0,0,1,1.43-1.24,3.56,3.56,0,0,1,1.81-.46,3.41,3.41,0,0,1,1.29.23,2.37,2.37,0,0,1,.93.67,3.07,3.07,0,0,1,.56,1.06,5,5,0,0,1,.19,1.4v5.7h-.87v-5.7a3.08,3.08,0,0,0-.57-2,2.11,2.11,0,0,0-1.75-.71,3.18,3.18,0,0,0-1.62.44,4.51,4.51,0,0,0-1.35,1.24v6.7h-.86V34.13h.47a.24.24,0,0,1,.26.23Z"/><path class="cls-2" d="M78,66.23V78.91h-.8V68.1c0-.16,0-.32,0-.49l-5,8.86a.38.38,0,0,1-.36.24h-.14a.38.38,0,0,1-.36-.24l-5.13-8.88a4.63,4.63,0,0,1,0,.51V78.91h-.81V66.23h.64l.2,0a.41.41,0,0,1,.14.15l5.12,8.82a3.25,3.25,0,0,1,.23.54l.12-.29a2.1,2.1,0,0,1,.13-.26l5-8.81a.35.35,0,0,1,.15-.15l.2,0Z"/><path class="cls-2" d="M84.59,69.85a4.29,4.29,0,0,1,1.72.33,3.47,3.47,0,0,1,1.28.92,4.22,4.22,0,0,1,.79,1.45,6.27,6.27,0,0,1,.27,1.9,6.16,6.16,0,0,1-.27,1.89,4.18,4.18,0,0,1-.79,1.44,3.61,3.61,0,0,1-1.28.93,4.47,4.47,0,0,1-1.72.32,4.38,4.38,0,0,1-1.71-.32,3.56,3.56,0,0,1-1.29-.93,4,4,0,0,1-.79-1.44,5.87,5.87,0,0,1-.28-1.89,6,6,0,0,1,.28-1.9,4.06,4.06,0,0,1,.79-1.45,3.43,3.43,0,0,1,1.29-.92A4.21,4.21,0,0,1,84.59,69.85Zm0,8.51a3.24,3.24,0,0,0,1.4-.28,2.61,2.61,0,0,0,1-.78,3.37,3.37,0,0,0,.6-1.23,6.66,6.66,0,0,0,0-3.24,3.49,3.49,0,0,0-.6-1.24,2.63,2.63,0,0,0-1-.79,3.24,3.24,0,0,0-1.4-.28,3.19,3.19,0,0,0-1.39.28,2.66,2.66,0,0,0-1,.79,3.87,3.87,0,0,0-.6,1.24,6.66,6.66,0,0,0,0,3.24,3.71,3.71,0,0,0,.6,1.23,2.64,2.64,0,0,0,1,.78A3.19,3.19,0,0,0,84.59,78.36Z"/><path class="cls-2" d="M98,65.87v13h-.46a.24.24,0,0,1-.27-.23l-.09-1.41a4.76,4.76,0,0,1-1.38,1.28A3.37,3.37,0,0,1,94,79a3.09,3.09,0,0,1-2.56-1.14,5.39,5.39,0,0,1-.92-3.42,6.25,6.25,0,0,1,.26-1.82,4.34,4.34,0,0,1,.75-1.47,3.49,3.49,0,0,1,1.21-1,3.7,3.7,0,0,1,1.67-.36,3.52,3.52,0,0,1,1.57.33,3.26,3.26,0,0,1,1.15,1V65.87Zm-.85,6A3,3,0,0,0,96,70.83a3.37,3.37,0,0,0-2.8,0,2.61,2.61,0,0,0-1,.81,3.54,3.54,0,0,0-.6,1.25,5.86,5.86,0,0,0-.21,1.61,4.8,4.8,0,0,0,.73,2.93,2.51,2.51,0,0,0,2.12.94,2.9,2.9,0,0,0,1.6-.46,4.33,4.33,0,0,0,1.28-1.28Z"/><path class="cls-2" d="M101.25,74.1v.17a6.16,6.16,0,0,0,.23,1.76,3.61,3.61,0,0,0,.67,1.28,2.77,2.77,0,0,0,1,.78,3.47,3.47,0,0,0,1.36.26,4,4,0,0,0,1.16-.15,4.47,4.47,0,0,0,.83-.33c.23-.13.4-.24.54-.33a.58.58,0,0,1,.28-.15.2.2,0,0,1,.18.09l.24.28a2.86,2.86,0,0,1-.57.51,5.3,5.3,0,0,1-.79.4,6.12,6.12,0,0,1-.94.26,4.78,4.78,0,0,1-1,.1,4.27,4.27,0,0,1-1.66-.32,3.5,3.5,0,0,1-1.29-.93,4.06,4.06,0,0,1-.83-1.49,6.27,6.27,0,0,1-.29-2,5.57,5.57,0,0,1,.27-1.77,3.92,3.92,0,0,1,.79-1.4,3.55,3.55,0,0,1,1.26-.92,4.19,4.19,0,0,1,1.7-.33,3.79,3.79,0,0,1,1.4.26,3.05,3.05,0,0,1,1.12.76,3.49,3.49,0,0,1,.75,1.22,4.76,4.76,0,0,1,.27,1.67.56.56,0,0,1,0,.27.25.25,0,0,1-.18.07Zm6-.55a4,4,0,0,0-.2-1.29,2.56,2.56,0,0,0-.57-1,2.51,2.51,0,0,0-.87-.6,2.9,2.9,0,0,0-1.12-.21,3.47,3.47,0,0,0-1.24.21,2.61,2.61,0,0,0-.94.62,3,3,0,0,0-.64,1,4.65,4.65,0,0,0-.33,1.26Z"/><path class="cls-2" d="M111.11,72.14a5.47,5.47,0,0,1,.47-1,3.32,3.32,0,0,1,.61-.72A2.4,2.4,0,0,1,113,70a2.59,2.59,0,0,1,1-.16,3.29,3.29,0,0,1,.54,0,1.44,1.44,0,0,1,.48.17l-.07.59a.18.18,0,0,1-.17.15,1.45,1.45,0,0,1-.33-.06,1.87,1.87,0,0,0-.58-.07,2.6,2.6,0,0,0-.92.16,2,2,0,0,0-.71.47,2.89,2.89,0,0,0-.56.78,7.72,7.72,0,0,0-.44,1.06v5.77h-.86V70h.46a.34.34,0,0,1,.22.06.41.41,0,0,1,.08.22Z"/><path class="cls-2" d="M116.22,71.26a5.24,5.24,0,0,1,1.47-1.06,4.09,4.09,0,0,1,1.75-.36,3.2,3.2,0,0,1,1.25.23,2.37,2.37,0,0,1,.9.65,3,3,0,0,1,.53,1,4.79,4.79,0,0,1,.18,1.35v5.81H122a.3.3,0,0,1-.33-.25l-.13-1.15c-.25.24-.49.46-.73.65a4,4,0,0,1-.76.48,3.91,3.91,0,0,1-.85.31,4.44,4.44,0,0,1-1,.11,3,3,0,0,1-.89-.14,2.38,2.38,0,0,1-.77-.41,2.16,2.16,0,0,1-.54-.71,2.55,2.55,0,0,1-.2-1,1.84,1.84,0,0,1,.33-1,2.62,2.62,0,0,1,1-.84,6.57,6.57,0,0,1,1.77-.57,15.15,15.15,0,0,1,2.59-.26V73.1a3,3,0,0,0-.53-1.9,1.88,1.88,0,0,0-1.58-.67,3,3,0,0,0-1.1.18,4.24,4.24,0,0,0-.77.39,5.39,5.39,0,0,0-.51.4.55.55,0,0,1-.33.18.28.28,0,0,1-.16-.05.57.57,0,0,1-.11-.11Zm5.24,3.34a17.7,17.7,0,0,0-2.19.2,6.41,6.41,0,0,0-1.51.43,2.32,2.32,0,0,0-.89.64,1.36,1.36,0,0,0-.28.85,1.86,1.86,0,0,0,.15.77,1.45,1.45,0,0,0,.39.54,1.57,1.57,0,0,0,.57.31,2.47,2.47,0,0,0,.67.1,3.6,3.6,0,0,0,1-.12,3.09,3.09,0,0,0,.8-.31,3.63,3.63,0,0,0,.7-.48q.32-.27.63-.6Z"/><path class="cls-2" d="M127.5,79.06a1.87,1.87,0,0,1-1.41-.51,2.08,2.08,0,0,1-.51-1.55V70.91H124.3a.21.21,0,0,1-.16-.06.16.16,0,0,1-.07-.15v-.33l1.53-.11.21-3.19a.37.37,0,0,1,.07-.14.19.19,0,0,1,.16-.07h.4v3.41h2.81v.64h-2.81v6a2,2,0,0,0,.09.63,1.2,1.2,0,0,0,.26.43,1,1,0,0,0,.39.26,1.53,1.53,0,0,0,.49.08,1.5,1.5,0,0,0,.55-.1,2.61,2.61,0,0,0,.41-.2l.28-.21a.28.28,0,0,1,.17-.09.18.18,0,0,1,.14.09l.23.37a2.62,2.62,0,0,1-.86.61A2.77,2.77,0,0,1,127.5,79.06Z"/><path class="cls-2" d="M131.49,74.1v.17a5.82,5.82,0,0,0,.23,1.76,3.77,3.77,0,0,0,.66,1.28,2.94,2.94,0,0,0,1,.78,3.52,3.52,0,0,0,1.37.26A4,4,0,0,0,136,78.2a4.47,4.47,0,0,0,.83-.33l.53-.33a.64.64,0,0,1,.29-.15.2.2,0,0,1,.18.09l.23.28a2.4,2.4,0,0,1-.57.51,5.18,5.18,0,0,1-.78.4,6.45,6.45,0,0,1-.94.26,4.78,4.78,0,0,1-1,.1,4.24,4.24,0,0,1-1.66-.32,3.45,3.45,0,0,1-1.3-.93,4.2,4.2,0,0,1-.82-1.49,6.27,6.27,0,0,1-.3-2,5.57,5.57,0,0,1,.28-1.77,3.92,3.92,0,0,1,.79-1.4,3.55,3.55,0,0,1,1.26-.92,4.19,4.19,0,0,1,1.7-.33,3.79,3.79,0,0,1,1.4.26,3.05,3.05,0,0,1,1.12.76,3.64,3.64,0,0,1,.75,1.22,4.76,4.76,0,0,1,.27,1.67.56.56,0,0,1-.05.27.25.25,0,0,1-.18.07Zm5.95-.55a4,4,0,0,0-.2-1.29,2.85,2.85,0,0,0-.57-1,2.55,2.55,0,0,0-.88-.6,2.82,2.82,0,0,0-1.11-.21,3.47,3.47,0,0,0-1.24.21,2.61,2.61,0,0,0-.94.62,3.17,3.17,0,0,0-.65,1,4.65,4.65,0,0,0-.32,1.26Z"/><path class="cls-2" d="M72.21,87.92l-3.76,8.92h-.76l-3.76-8.92h.67a.31.31,0,0,1,.21.07.25.25,0,0,1,.1.15l3,7a6.62,6.62,0,0,1,.22.78,6.62,6.62,0,0,1,.22-.78l3-7a.4.4,0,0,1,.12-.16.31.31,0,0,1,.19-.06ZM74.13,92v.17A6.16,6.16,0,0,0,74.36,94,3.61,3.61,0,0,0,75,95.24a2.77,2.77,0,0,0,1,.78,3.47,3.47,0,0,0,1.36.26,4.06,4.06,0,0,0,1.17-.15,4.65,4.65,0,0,0,.82-.33,4.8,4.8,0,0,0,.54-.34.63.63,0,0,1,.28-.14.2.2,0,0,1,.18.09l.24.28a2.86,2.86,0,0,1-.57.51,4.47,4.47,0,0,1-.79.39,6.31,6.31,0,0,1-.93.27,5.74,5.74,0,0,1-1,.1,4.29,4.29,0,0,1-1.67-.32,3.5,3.5,0,0,1-1.29-.93,4.15,4.15,0,0,1-.83-1.49,6.56,6.56,0,0,1-.29-2,5.57,5.57,0,0,1,.27-1.77,4.08,4.08,0,0,1,.79-1.4,3.64,3.64,0,0,1,1.26-.92,4.19,4.19,0,0,1,1.7-.33,3.56,3.56,0,0,1,1.4.26,3.07,3.07,0,0,1,1.12.75A3.53,3.53,0,0,1,80.58,90a4.76,4.76,0,0,1,.27,1.67.41.41,0,0,1,0,.26.22.22,0,0,1-.18.08Zm6-.55a3.72,3.72,0,0,0-.2-1.29,2.56,2.56,0,0,0-.57-1,2.45,2.45,0,0,0-.87-.61,2.9,2.9,0,0,0-1.12-.21,3.37,3.37,0,0,0-1.23.22,2.65,2.65,0,0,0-1,.62,3,3,0,0,0-.64,1,4.31,4.31,0,0,0-.32,1.26Zm10.27-3.16v.29c0,.13-.09.21-.25.24l-1.37.1a2.6,2.6,0,0,1,.39.76,3,3,0,0,1,.13.92A2.94,2.94,0,0,1,89,91.8a2.53,2.53,0,0,1-.65.89,2.83,2.83,0,0,1-1,.58,3.9,3.9,0,0,1-1.3.21,4.09,4.09,0,0,1-1.39-.23,1.84,1.84,0,0,0-.59.5,1,1,0,0,0-.22.58.7.7,0,0,0,.27.59,1.7,1.7,0,0,0,.72.3,4.91,4.91,0,0,0,1,.12L87,95.4c.39,0,.78.06,1.16.11a3.63,3.63,0,0,1,1,.29,1.76,1.76,0,0,1,.72.56,1.56,1.56,0,0,1,.27,1,2.24,2.24,0,0,1-.27,1.07,3,3,0,0,1-.81.91,4.37,4.37,0,0,1-1.26.63,5.48,5.48,0,0,1-1.67.24,6.21,6.21,0,0,1-1.65-.2,3.72,3.72,0,0,1-1.19-.52,2.22,2.22,0,0,1-.72-.75,1.89,1.89,0,0,1-.24-.92,1.71,1.71,0,0,1,.46-1.21,3.19,3.19,0,0,1,1.28-.8,1.83,1.83,0,0,1-.73-.44,1.11,1.11,0,0,1-.27-.79,1.46,1.46,0,0,1,.07-.4,1.64,1.64,0,0,1,.22-.41,2,2,0,0,1,.35-.38,3.13,3.13,0,0,1,.46-.32,2.66,2.66,0,0,1-1-1,2.82,2.82,0,0,1-.35-1.42,2.94,2.94,0,0,1,.23-1.17,2.54,2.54,0,0,1,.65-.9,3,3,0,0,1,1-.59,4.32,4.32,0,0,1,2.39-.06,3.16,3.16,0,0,1,.89.41Zm-.93,9.12a1,1,0,0,0-.22-.68,1.45,1.45,0,0,0-.59-.39,3.41,3.41,0,0,0-.85-.21l-1-.08L85.7,96a7.53,7.53,0,0,1-1-.1,3.69,3.69,0,0,0-.63.31,2.14,2.14,0,0,0-.49.4,1.49,1.49,0,0,0-.32.48,1.39,1.39,0,0,0-.12.57,1.4,1.4,0,0,0,.2.73,1.84,1.84,0,0,0,.59.59,3.56,3.56,0,0,0,1,.39,5.57,5.57,0,0,0,1.3.14,5.2,5.2,0,0,0,1.27-.15,3.64,3.64,0,0,0,1-.43,2.29,2.29,0,0,0,.68-.67A1.53,1.53,0,0,0,89.42,97.44ZM86.08,92.9a3,3,0,0,0,1-.17,2.15,2.15,0,0,0,.76-.46,2,2,0,0,0,.46-.71,2.7,2.7,0,0,0,0-1.83,2,2,0,0,0-.48-.72,2,2,0,0,0-.75-.45,3.27,3.27,0,0,0-2,0,2.18,2.18,0,0,0-.75.45,2,2,0,0,0-.47.72,2.7,2.7,0,0,0,0,1.83,1.92,1.92,0,0,0,.47.71,2.2,2.2,0,0,0,.75.46A2.89,2.89,0,0,0,86.08,92.9ZM92.52,92v.17A6.16,6.16,0,0,0,92.75,94a3.77,3.77,0,0,0,.66,1.28,2.94,2.94,0,0,0,1,.78,3.52,3.52,0,0,0,1.37.26A4,4,0,0,0,97,96.13a4.47,4.47,0,0,0,.83-.33,4.54,4.54,0,0,0,.53-.34.71.71,0,0,1,.29-.14.2.2,0,0,1,.18.09l.23.28a2.4,2.4,0,0,1-.57.51,4.06,4.06,0,0,1-.78.39,6.11,6.11,0,0,1-.94.27,5.56,5.56,0,0,1-1,.1,4.24,4.24,0,0,1-1.66-.32,3.34,3.34,0,0,1-1.29-.93A4.15,4.15,0,0,1,92,94.22a6.27,6.27,0,0,1-.3-2A5.57,5.57,0,0,1,92,90.43a3.92,3.92,0,0,1,.79-1.4A3.55,3.55,0,0,1,94,88.11a4.19,4.19,0,0,1,1.7-.33,3.6,3.6,0,0,1,1.4.26,3.16,3.16,0,0,1,1.12.75A3.53,3.53,0,0,1,99,90a4.76,4.76,0,0,1,.27,1.67.49.49,0,0,1,0,.26A.22.22,0,0,1,99,92Zm6-.55a4,4,0,0,0-.2-1.29,2.85,2.85,0,0,0-.57-1,2.64,2.64,0,0,0-.87-.61,2.9,2.9,0,0,0-1.12-.21,3.47,3.47,0,0,0-1.24.22,2.61,2.61,0,0,0-.94.62,3,3,0,0,0-.64,1,4.31,4.31,0,0,0-.33,1.26ZM104,97a1.9,1.9,0,0,1-1.41-.5,2.08,2.08,0,0,1-.5-1.55V88.84h-1.29a.23.23,0,0,1-.16-.06.19.19,0,0,1-.06-.15V88.3l1.52-.11.22-3.19a.41.41,0,0,1,.07-.15.2.2,0,0,1,.15-.06h.41V88.2h2.81v.64h-2.81v6a2,2,0,0,0,.09.63,1.15,1.15,0,0,0,.26.43.9.9,0,0,0,.39.25,1.27,1.27,0,0,0,.48.08,1.53,1.53,0,0,0,.56-.09,1.66,1.66,0,0,0,.4-.21,1.87,1.87,0,0,0,.28-.2.35.35,0,0,1,.17-.1.2.2,0,0,1,.15.09l.23.38a2.66,2.66,0,0,1-.87.61A2.72,2.72,0,0,1,104,97Zm3.45-7.8a5.12,5.12,0,0,1,1.47-1.05,4.05,4.05,0,0,1,1.75-.36,3.06,3.06,0,0,1,1.25.23,2.26,2.26,0,0,1,.89.65,2.89,2.89,0,0,1,.54,1A4.79,4.79,0,0,1,113.5,91v5.81h-.35a.31.31,0,0,1-.33-.25l-.12-1.15c-.25.24-.49.46-.73.65a4.81,4.81,0,0,1-.76.48,3.83,3.83,0,0,1-1.86.41,2.89,2.89,0,0,1-.88-.13,2.28,2.28,0,0,1-.77-.41,2.2,2.2,0,0,1-.54-.72,2.5,2.5,0,0,1-.2-1,1.88,1.88,0,0,1,.32-1.05,2.74,2.74,0,0,1,1-.84,6.92,6.92,0,0,1,1.77-.58,16.35,16.35,0,0,1,2.59-.25V91a3,3,0,0,0-.53-1.9,1.89,1.89,0,0,0-1.58-.67,3,3,0,0,0-1.1.18,4.24,4.24,0,0,0-.77.39,5.39,5.39,0,0,0-.51.4.55.55,0,0,1-.33.18.25.25,0,0,1-.16,0,.43.43,0,0,1-.11-.12Zm5.24,3.35a17.52,17.52,0,0,0-2.19.2,6.18,6.18,0,0,0-1.52.43,2.28,2.28,0,0,0-.88.64,1.36,1.36,0,0,0-.29.84,1.87,1.87,0,0,0,.15.78,1.47,1.47,0,0,0,.4.54,1.57,1.57,0,0,0,.57.31,2.47,2.47,0,0,0,.67.1,3.53,3.53,0,0,0,1-.12,3.58,3.58,0,0,0,.81-.31,3.28,3.28,0,0,0,.69-.48c.22-.19.43-.39.64-.6Zm11,4.31h-.86v-8h-5.16v6a2,2,0,0,0,.09.63A1.15,1.15,0,0,0,118,96a.9.9,0,0,0,.39.25,1.27,1.27,0,0,0,.48.08,1.53,1.53,0,0,0,.56-.09,1.66,1.66,0,0,0,.4-.21,1.87,1.87,0,0,0,.28-.2.35.35,0,0,1,.17-.1.2.2,0,0,1,.15.09l.23.38a2.66,2.66,0,0,1-.87.61,2.72,2.72,0,0,1-1.09.22,1.9,1.9,0,0,1-1.41-.5,2.08,2.08,0,0,1-.5-1.55V88.84h-1.29a.23.23,0,0,1-.16-.06.19.19,0,0,1-.06-.15V88.3l1.52-.11L117,85a.41.41,0,0,1,.07-.15.2.2,0,0,1,.15-.06h.41V88.2h6Zm.4-12.1a.73.73,0,0,1-.07.3,1.08,1.08,0,0,1-.18.24.93.93,0,0,1-.26.18.73.73,0,0,1-.3.06.81.81,0,0,1-.31-.06.88.88,0,0,1-.25-.18.81.81,0,0,1-.17-.24.73.73,0,0,1-.06-.3.81.81,0,0,1,.06-.31.9.9,0,0,1,.17-.26.85.85,0,0,1,.25-.17.81.81,0,0,1,.31-.06.73.73,0,0,1,.3.06.9.9,0,0,1,.26.17,1.2,1.2,0,0,1,.18.26A.82.82,0,0,1,124.06,84.74Zm6.16,3a4.43,4.43,0,0,1,1.72.32,3.53,3.53,0,0,1,1.28.93,4.22,4.22,0,0,1,.79,1.45,6.23,6.23,0,0,1,.27,1.9,6.16,6.16,0,0,1-.27,1.89,4.18,4.18,0,0,1-.79,1.44,3.39,3.39,0,0,1-1.28.92,4.26,4.26,0,0,1-1.72.33,4.21,4.21,0,0,1-1.71-.33,3.43,3.43,0,0,1-1.29-.92,4.18,4.18,0,0,1-.79-1.44,5.87,5.87,0,0,1-.28-1.89,5.93,5.93,0,0,1,.28-1.9,4.22,4.22,0,0,1,.79-1.45,3.56,3.56,0,0,1,1.29-.93A4.38,4.38,0,0,1,130.22,87.78Zm0,8.5a3.36,3.36,0,0,0,1.4-.27,2.61,2.61,0,0,0,1-.78,3.34,3.34,0,0,0,.6-1.24,6.17,6.17,0,0,0,.2-1.61,6.25,6.25,0,0,0-.2-1.62,3.41,3.41,0,0,0-.6-1.24,2.63,2.63,0,0,0-1-.79,3.62,3.62,0,0,0-2.79,0,2.66,2.66,0,0,0-1,.79,3.77,3.77,0,0,0-.6,1.24,6.25,6.25,0,0,0-.2,1.62,6.17,6.17,0,0,0,.2,1.61,3.67,3.67,0,0,0,.6,1.24,2.64,2.64,0,0,0,1,.78A3.35,3.35,0,0,0,130.22,96.28Zm7.29-6.8a5.1,5.1,0,0,1,1.43-1.24,3.56,3.56,0,0,1,1.81-.46A3.23,3.23,0,0,1,142,88a2.37,2.37,0,0,1,.93.67,3.07,3.07,0,0,1,.56,1.06,5,5,0,0,1,.19,1.4v5.7h-.87v-5.7a3.08,3.08,0,0,0-.57-2,2.11,2.11,0,0,0-1.75-.71,3.18,3.18,0,0,0-1.62.44,4.61,4.61,0,0,0-1.35,1.23v6.71h-.86V87.92h.47a.24.24,0,0,1,.26.22Z"/><g class="cls-3"><path class="cls-4" d="M29.06,48.45A20.17,20.17,0,1,0,8.89,28.28,20.17,20.17,0,0,0,29.06,48.45"/><path class="cls-5" d="M230.19,48.45A20.17,20.17,0,1,0,210,28.28a20.17,20.17,0,0,0,20.17,20.17"/><path class="cls-6" d="M31.31,101.7A20.17,20.17,0,1,0,11.13,81.53,20.17,20.17,0,0,0,31.31,101.7"/><path class="cls-7" d="M232.44,101.7a20.17,20.17,0,1,0-20.17-20.17,20.17,20.17,0,0,0,20.17,20.17"/></g><path class="cls-2" d="M271,18.78a7.54,7.54,0,0,1-.43,2.64,5.89,5.89,0,0,1-1.24,2,5.26,5.26,0,0,1-1.92,1.26,6.49,6.49,0,0,1-2.46.44h-4.63V12.44H265a6.49,6.49,0,0,1,2.46.44,5.26,5.26,0,0,1,1.92,1.26,5.89,5.89,0,0,1,1.24,2A7.54,7.54,0,0,1,271,18.78Zm-1,0a7.2,7.2,0,0,0-.36-2.37,5.2,5.2,0,0,0-1-1.76,4.42,4.42,0,0,0-1.62-1.09,5.54,5.54,0,0,0-2.08-.38h-3.71v11.2H265a5.54,5.54,0,0,0,2.08-.38,4.42,4.42,0,0,0,1.62-1.09,5.1,5.1,0,0,0,1-1.76A7.2,7.2,0,0,0,270.09,18.78Z"/><path class="cls-2" d="M273.76,20.31v.17a6.28,6.28,0,0,0,.23,1.77,3.65,3.65,0,0,0,.67,1.27,2.58,2.58,0,0,0,1,.78,3.47,3.47,0,0,0,1.36.26,4.06,4.06,0,0,0,1.17-.15,4.65,4.65,0,0,0,.82-.33,3.76,3.76,0,0,0,.54-.33.58.58,0,0,1,.28-.15.2.2,0,0,1,.18.09l.24.29a2.83,2.83,0,0,1-.57.5,4.49,4.49,0,0,1-.79.4,5.28,5.28,0,0,1-.93.26,4.92,4.92,0,0,1-1,.1,4.29,4.29,0,0,1-1.67-.32A3.5,3.5,0,0,1,274,24a4.06,4.06,0,0,1-.83-1.49,6.27,6.27,0,0,1-.29-2,5.57,5.57,0,0,1,.27-1.77,4.08,4.08,0,0,1,.79-1.4,3.64,3.64,0,0,1,1.26-.92,4.19,4.19,0,0,1,1.7-.33,3.79,3.79,0,0,1,1.4.26,3.09,3.09,0,0,1,1.12.76,3.49,3.49,0,0,1,.75,1.22,4.8,4.8,0,0,1,.27,1.67.46.46,0,0,1-.05.27.21.21,0,0,1-.18.07Zm5.95-.55a3.66,3.66,0,0,0-.2-1.28,2.68,2.68,0,0,0-.57-1,2.42,2.42,0,0,0-.87-.6A2.9,2.9,0,0,0,277,16.7a3.47,3.47,0,0,0-1.24.21,2.75,2.75,0,0,0-.94.62,3,3,0,0,0-.64,1,4.48,4.48,0,0,0-.32,1.26Z"/><path class="cls-2" d="M283.62,17.76a5.06,5.06,0,0,1,1.43-1.23,3.56,3.56,0,0,1,1.81-.47,3.41,3.41,0,0,1,1.29.23,2.3,2.3,0,0,1,.93.68,2.94,2.94,0,0,1,.56,1.05,5,5,0,0,1,.19,1.4v5.7H289v-5.7a3.1,3.1,0,0,0-.57-2,2.11,2.11,0,0,0-1.75-.71,3.09,3.09,0,0,0-1.62.45,4.35,4.35,0,0,0-1.35,1.23v6.7h-.86V16.2h.47a.24.24,0,0,1,.26.23Z"/><path class="cls-2" d="M297.57,17.31a.24.24,0,0,1-.21.12.55.55,0,0,1-.25-.11,2.57,2.57,0,0,0-.4-.25,3.29,3.29,0,0,0-.64-.25,3,3,0,0,0-.91-.11,2.71,2.71,0,0,0-.88.13,2.28,2.28,0,0,0-.69.38,1.61,1.61,0,0,0-.43.54,1.47,1.47,0,0,0-.15.65,1.14,1.14,0,0,0,.21.7,2,2,0,0,0,.56.47,3.93,3.93,0,0,0,.8.34l.91.29c.3.1.61.2.91.32a3.5,3.5,0,0,1,.79.43,2.14,2.14,0,0,1,.56.64,1.87,1.87,0,0,1,.22.92,2.77,2.77,0,0,1-.21,1.08,2.5,2.5,0,0,1-.61.87,2.86,2.86,0,0,1-1,.58,3.9,3.9,0,0,1-1.33.22,4.05,4.05,0,0,1-1.63-.3,4.49,4.49,0,0,1-1.22-.79l.2-.3a.29.29,0,0,1,.11-.11.3.3,0,0,1,.15,0,.46.46,0,0,1,.28.15,3.41,3.41,0,0,0,.45.31,4,4,0,0,0,.68.31,3.28,3.28,0,0,0,1,.14,2.8,2.8,0,0,0,1-.16,2,2,0,0,0,.71-.42,1.67,1.67,0,0,0,.44-.64,1.94,1.94,0,0,0,.15-.76,1.21,1.21,0,0,0-.22-.75,2,2,0,0,0-.56-.5,4.94,4.94,0,0,0-.8-.35l-.91-.28c-.31-.1-.61-.2-.91-.32A3.33,3.33,0,0,1,293,20a2,2,0,0,1-.56-.63,1.78,1.78,0,0,1-.22-.93,2.06,2.06,0,0,1,.21-.91,2.18,2.18,0,0,1,.58-.77,3,3,0,0,1,.93-.53,3.69,3.69,0,0,1,1.23-.2,4.32,4.32,0,0,1,1.45.23,3.58,3.58,0,0,1,1.15.72Z"/><path class="cls-2" d="M300.59,20.31v.17a5.92,5.92,0,0,0,.24,1.77,3.48,3.48,0,0,0,.66,1.27,2.65,2.65,0,0,0,1,.78,3.47,3.47,0,0,0,1.36.26,4.06,4.06,0,0,0,1.17-.15,4.77,4.77,0,0,0,.83-.33,4.21,4.21,0,0,0,.53-.33.6.6,0,0,1,.29-.15.23.23,0,0,1,.18.09l.23.29a2.37,2.37,0,0,1-.57.5,4.49,4.49,0,0,1-.79.4,5.28,5.28,0,0,1-.93.26,4.85,4.85,0,0,1-1,.1,4.29,4.29,0,0,1-1.67-.32,3.5,3.5,0,0,1-1.29-.93A4.06,4.06,0,0,1,300,22.5a6.56,6.56,0,0,1-.29-2,5.57,5.57,0,0,1,.27-1.77,4.25,4.25,0,0,1,.79-1.4,3.67,3.67,0,0,1,1.27-.92,4.11,4.11,0,0,1,1.69-.33,3.75,3.75,0,0,1,1.4.26,3.09,3.09,0,0,1,1.12.76A3.49,3.49,0,0,1,307,18.3a4.79,4.79,0,0,1,.28,1.67.45.45,0,0,1-.06.27c0,.05-.09.07-.18.07Zm6-.55a3.66,3.66,0,0,0-.2-1.28,2.68,2.68,0,0,0-.57-1,2.42,2.42,0,0,0-.87-.6,2.9,2.9,0,0,0-1.12-.21,3.37,3.37,0,0,0-1.23.21,2.79,2.79,0,0,0-.95.62,3,3,0,0,0-.64,1,4.48,4.48,0,0,0-.32,1.26Z"/><path class="cls-2" d="M261.27,31.06a.73.73,0,0,1-.06.3,1.44,1.44,0,0,1-.18.25.74.74,0,0,1-.25.17.81.81,0,0,1-.31.06.8.8,0,0,1-.3-.06.74.74,0,0,1-.25-.17,1,1,0,0,1-.17-.25.73.73,0,0,1-.06-.3.81.81,0,0,1,.06-.31.9.9,0,0,1,.17-.26.92.92,0,0,1,.25-.17.8.8,0,0,1,.3-.06.81.81,0,0,1,.31.06.92.92,0,0,1,.25.17,1.2,1.2,0,0,1,.18.26A.81.81,0,0,1,261.27,31.06Zm-.37,3.07v8.92h-.85V34.13Z"/><path class="cls-2" d="M263.94,43.05V34.13h.48a.24.24,0,0,1,.26.23l.08,1.29a4.53,4.53,0,0,1,1.19-1.2,2.62,2.62,0,0,1,1.52-.46,2.14,2.14,0,0,1,1.56.57,2.83,2.83,0,0,1,.79,1.56,3.11,3.11,0,0,1,.46-.95,2.78,2.78,0,0,1,1.49-1.05,3.29,3.29,0,0,1,2.1.09,2.31,2.31,0,0,1,.89.65,2.91,2.91,0,0,1,.57,1.06,4.84,4.84,0,0,1,.2,1.43v5.7h-.86v-5.7a3,3,0,0,0-.56-2,2,2,0,0,0-1.61-.69,2.52,2.52,0,0,0-.9.17,2.22,2.22,0,0,0-.75.51,2.35,2.35,0,0,0-.52.84,3.17,3.17,0,0,0-.19,1.16v5.7h-.86v-5.7a3.25,3.25,0,0,0-.52-2,1.75,1.75,0,0,0-1.51-.69,2.35,2.35,0,0,0-1.34.43,4.25,4.25,0,0,0-1.11,1.19v6.76Z"/><path class="cls-2" d="M279.2,35.74a4.67,4.67,0,0,1,1.39-1.28,3.37,3.37,0,0,1,1.78-.48,3.12,3.12,0,0,1,2.56,1.14,5.39,5.39,0,0,1,.91,3.42,6.26,6.26,0,0,1-.25,1.82,4.25,4.25,0,0,1-.75,1.47,3.62,3.62,0,0,1-1.22,1,3.7,3.7,0,0,1-1.67.36,3.45,3.45,0,0,1-1.56-.33,3.16,3.16,0,0,1-1.15-1v4.35h-.86V34.13h.47a.24.24,0,0,1,.26.23Zm0,5.37a3.58,3.58,0,0,0,.54.65,2.66,2.66,0,0,0,.6.43,2.61,2.61,0,0,0,.66.24,4.54,4.54,0,0,0,.75.07,3.12,3.12,0,0,0,1.38-.29,2.61,2.61,0,0,0,1-.81,3.54,3.54,0,0,0,.6-1.25,5.86,5.86,0,0,0,.21-1.61,4.72,4.72,0,0,0-.74-2.93,2.53,2.53,0,0,0-2.11-.94,2.88,2.88,0,0,0-1.6.46,4.41,4.41,0,0,0-1.28,1.27Z"/><path class="cls-2" d="M288.57,38.24v.17a6.28,6.28,0,0,0,.23,1.77,3.65,3.65,0,0,0,.67,1.27,2.58,2.58,0,0,0,1,.78,3.47,3.47,0,0,0,1.36.26,3.94,3.94,0,0,0,1.16-.15,4.47,4.47,0,0,0,.83-.33,3.76,3.76,0,0,0,.54-.33.58.58,0,0,1,.28-.15.2.2,0,0,1,.18.09l.24.29a2.83,2.83,0,0,1-.57.5,4.49,4.49,0,0,1-.79.4,5.28,5.28,0,0,1-.93.26,4.92,4.92,0,0,1-1,.1,4.11,4.11,0,0,1-1.67-.32,3.5,3.5,0,0,1-1.29-.93,4.06,4.06,0,0,1-.83-1.49,6.27,6.27,0,0,1-.29-2,5.57,5.57,0,0,1,.27-1.77,4.08,4.08,0,0,1,.79-1.4,3.55,3.55,0,0,1,1.26-.92,4.19,4.19,0,0,1,1.7-.33,3.79,3.79,0,0,1,1.4.26,3.18,3.18,0,0,1,1.12.76,3.49,3.49,0,0,1,.75,1.22,4.8,4.8,0,0,1,.27,1.67.46.46,0,0,1-.05.27.21.21,0,0,1-.18.07Zm5.95-.55a3.7,3.7,0,0,0-.2-1.28,2.68,2.68,0,0,0-.57-1,2.42,2.42,0,0,0-.87-.6,2.9,2.9,0,0,0-1.12-.21,3.47,3.47,0,0,0-1.24.21,2.75,2.75,0,0,0-.94.62,3,3,0,0,0-.64,1,4.85,4.85,0,0,0-.33,1.26Z"/><path class="cls-2" d="M298.43,36.29a6.39,6.39,0,0,1,.47-1,3.32,3.32,0,0,1,.61-.72,2.4,2.4,0,0,1,.77-.45,2.63,2.63,0,0,1,1-.16,3.41,3.41,0,0,1,.55.05,1.28,1.28,0,0,1,.47.18l-.07.59a.18.18,0,0,1-.17.14,1.45,1.45,0,0,1-.33-.06,2.29,2.29,0,0,0-.58-.06,2.65,2.65,0,0,0-.92.15,2.2,2.2,0,0,0-.71.47,2.89,2.89,0,0,0-.56.78,7.07,7.07,0,0,0-.43,1.06v5.77h-.86V34.13h.45a.28.28,0,0,1,.22.07.34.34,0,0,1,.08.21Z"/><path class="cls-2" d="M311.12,34.13l-3.77,8.92h-.75l-3.77-8.92h.68a.32.32,0,0,1,.2.07.36.36,0,0,1,.11.15l2.95,7a5.64,5.64,0,0,1,.21.78,5.75,5.75,0,0,1,.23-.78l3-7a.4.4,0,0,1,.12-.16.28.28,0,0,1,.18-.06Z"/><path class="cls-2" d="M314.26,31.06a.73.73,0,0,1-.06.3,1.44,1.44,0,0,1-.18.25.74.74,0,0,1-.25.17.8.8,0,0,1-.3.06.81.81,0,0,1-.31-.06.85.85,0,0,1-.25-.17,1,1,0,0,1-.17-.25.73.73,0,0,1-.06-.3.81.81,0,0,1,.06-.31.9.9,0,0,1,.17-.26,1.1,1.1,0,0,1,.25-.17.81.81,0,0,1,.31-.06.8.8,0,0,1,.3.06.92.92,0,0,1,.25.17,1.2,1.2,0,0,1,.18.26A.81.81,0,0,1,314.26,31.06Zm-.36,3.07v8.92H313V34.13Z"/><path class="cls-2" d="M320.47,34a4.21,4.21,0,0,1,1.71.33,3.53,3.53,0,0,1,1.28.93,4,4,0,0,1,.79,1.44,6,6,0,0,1,.28,1.9,5.87,5.87,0,0,1-.28,1.89,4,4,0,0,1-.79,1.44,3.53,3.53,0,0,1-1.28.93,4.38,4.38,0,0,1-1.71.32,4.43,4.43,0,0,1-1.72-.32,3.53,3.53,0,0,1-1.28-.93,4,4,0,0,1-.8-1.44,6.16,6.16,0,0,1-.27-1.89,6.27,6.27,0,0,1,.27-1.9,4,4,0,0,1,.8-1.44,3.53,3.53,0,0,1,1.28-.93A4.26,4.26,0,0,1,320.47,34Zm0,8.51a3.35,3.35,0,0,0,1.39-.27,2.77,2.77,0,0,0,1-.79,3.52,3.52,0,0,0,.59-1.23,6.62,6.62,0,0,0,0-3.23,3.48,3.48,0,0,0-.59-1.24,2.69,2.69,0,0,0-1-.8,3.62,3.62,0,0,0-2.79,0,2.58,2.58,0,0,0-1,.8,3.34,3.34,0,0,0-.6,1.24,6.62,6.62,0,0,0,0,3.23,3.37,3.37,0,0,0,.6,1.23,2.65,2.65,0,0,0,1,.79A3.36,3.36,0,0,0,320.47,42.5Z"/><path class="cls-2" d="M333.86,34.13v8.92h-.48a.24.24,0,0,1-.26-.23L333,41.49a4.94,4.94,0,0,1-1.43,1.24,3.55,3.55,0,0,1-1.8.47,3.24,3.24,0,0,1-1.3-.24,2.32,2.32,0,0,1-.93-.67,2.88,2.88,0,0,1-.55-1.06,4.58,4.58,0,0,1-.19-1.39V34.13h.86v5.71a3,3,0,0,0,.58,2,2.08,2.08,0,0,0,1.74.72,3.13,3.13,0,0,0,1.63-.45A4.46,4.46,0,0,0,333,40.84V34.13Z"/><path class="cls-2" d="M341.7,35.24a.24.24,0,0,1-.21.12.48.48,0,0,1-.25-.11,3.93,3.93,0,0,0-.41-.25,3.18,3.18,0,0,0-.63-.25,3.09,3.09,0,0,0-.92-.11,2.5,2.5,0,0,0-.88.14,2,2,0,0,0-.68.37,1.64,1.64,0,0,0-.44.54,1.47,1.47,0,0,0-.15.65,1.09,1.09,0,0,0,.22.7,1.87,1.87,0,0,0,.56.47,3.84,3.84,0,0,0,.79.35l.91.28c.31.1.61.2.91.32a3.5,3.5,0,0,1,.79.43,2.14,2.14,0,0,1,.56.64,1.77,1.77,0,0,1,.22.92,2.77,2.77,0,0,1-.21,1.08,2.47,2.47,0,0,1-.6.87,2.8,2.8,0,0,1-1,.58,3.73,3.73,0,0,1-1.34.22,4,4,0,0,1-1.62-.3,4.34,4.34,0,0,1-1.22-.79l.2-.3a.27.27,0,0,1,.1-.11.34.34,0,0,1,.16,0,.48.48,0,0,1,.28.15,4,4,0,0,0,.44.31,4.54,4.54,0,0,0,.69.31,3.24,3.24,0,0,0,1,.14,2.74,2.74,0,0,0,1-.16,2,2,0,0,0,.72-.42,1.69,1.69,0,0,0,.43-.63,2,2,0,0,0,.15-.77,1.22,1.22,0,0,0-.21-.74,1.88,1.88,0,0,0-.57-.51,4.81,4.81,0,0,0-.79-.35l-.91-.28c-.31-.1-.62-.2-.91-.32a2.86,2.86,0,0,1-.79-.43,1.91,1.91,0,0,1-.57-.63,1.88,1.88,0,0,1-.21-.93,2.08,2.08,0,0,1,.2-.91,2.21,2.21,0,0,1,.59-.77,2.8,2.8,0,0,1,.93-.53,3.6,3.6,0,0,1,1.23-.2,4.26,4.26,0,0,1,1.44.23,3.48,3.48,0,0,1,1.15.72Z"/><path class="cls-2" d="M354.18,35.24a.21.21,0,0,1-.2.12.48.48,0,0,1-.25-.11c-.11-.07-.24-.16-.41-.25a3.18,3.18,0,0,0-.63-.25,3.09,3.09,0,0,0-.92-.11,2.46,2.46,0,0,0-.88.14,2,2,0,0,0-.68.37,1.52,1.52,0,0,0-.44.54,1.47,1.47,0,0,0-.15.65,1.09,1.09,0,0,0,.22.7,1.87,1.87,0,0,0,.56.47,3.84,3.84,0,0,0,.79.35l.91.28c.31.1.61.2.91.32a3.5,3.5,0,0,1,.79.43,2.14,2.14,0,0,1,.56.64,1.77,1.77,0,0,1,.22.92,2.77,2.77,0,0,1-.21,1.08,2.61,2.61,0,0,1-.6.87,2.85,2.85,0,0,1-1,.58,3.64,3.64,0,0,1-1.33.22,4,4,0,0,1-1.62-.3,4.34,4.34,0,0,1-1.22-.79l.19-.3a.29.29,0,0,1,.11-.11.33.33,0,0,1,.15,0,.48.48,0,0,1,.29.15,4,4,0,0,0,.44.31,4.13,4.13,0,0,0,.69.31,3.17,3.17,0,0,0,1,.14,2.8,2.8,0,0,0,1-.16,2,2,0,0,0,.72-.42,1.81,1.81,0,0,0,.43-.63,2,2,0,0,0,.15-.77,1.16,1.16,0,0,0-.22-.74,1.84,1.84,0,0,0-.56-.51,4.81,4.81,0,0,0-.79-.35l-.91-.28c-.31-.1-.62-.2-.91-.32a3.07,3.07,0,0,1-.8-.43,2,2,0,0,1-.56-.63,1.78,1.78,0,0,1-.22-.93,2.09,2.09,0,0,1,.21-.91,2.21,2.21,0,0,1,.59-.77,2.85,2.85,0,0,1,.92-.53,3.69,3.69,0,0,1,1.23-.2,4.28,4.28,0,0,1,1.45.23,3.48,3.48,0,0,1,1.15.72Z"/><path class="cls-2" d="M363.82,34.13v8.92h-.48a.24.24,0,0,1-.26-.23L363,41.49a4.94,4.94,0,0,1-1.43,1.24,3.55,3.55,0,0,1-1.8.47,3.24,3.24,0,0,1-1.3-.24,2.32,2.32,0,0,1-.93-.67,2.88,2.88,0,0,1-.55-1.06,4.58,4.58,0,0,1-.19-1.39V34.13h.86v5.71a3,3,0,0,0,.57,2,2.12,2.12,0,0,0,1.75.72,3.13,3.13,0,0,0,1.63-.45A4.46,4.46,0,0,0,363,40.84V34.13Z"/><path class="cls-2" d="M367.57,36.29a5,5,0,0,1,.47-1,3.06,3.06,0,0,1,.61-.72,2.3,2.3,0,0,1,.77-.45,2.58,2.58,0,0,1,.94-.16,3.31,3.31,0,0,1,.55.05,1.26,1.26,0,0,1,.48.18l-.08.59a.17.17,0,0,1-.17.14,1.3,1.3,0,0,1-.32-.06,2.29,2.29,0,0,0-.58-.06,2.61,2.61,0,0,0-.92.15,2.24,2.24,0,0,0-.72.47,3.1,3.1,0,0,0-.55.78,7.05,7.05,0,0,0-.44,1.06v5.77h-.86V34.13h.46a.25.25,0,0,1,.21.07.29.29,0,0,1,.08.21Z"/><path class="cls-2" d="M373.62,43.05v-8L372.36,35c-.16,0-.25-.1-.25-.23v-.35h1.51V33.28a4,4,0,0,1,.2-1.34,2.66,2.66,0,0,1,.55-1,2.3,2.3,0,0,1,.86-.58,3.08,3.08,0,0,1,1.11-.19,2.59,2.59,0,0,1,.56.05,2.36,2.36,0,0,1,.51.14l0,.41c0,.05,0,.09-.07.1a.42.42,0,0,1-.17,0l-.28,0-.39,0a2.37,2.37,0,0,0-.81.13,1.62,1.62,0,0,0-.64.42,1.94,1.94,0,0,0-.42.75,3.64,3.64,0,0,0-.15,1.13v1.1h2.9v.64h-2.87v8Z"/><path class="cls-2" d="M378.94,35.4a5.24,5.24,0,0,1,1.47-1.06,4.12,4.12,0,0,1,1.75-.36,3.26,3.26,0,0,1,1.26.23,2.34,2.34,0,0,1,.89.65,2.84,2.84,0,0,1,.53,1,4.67,4.67,0,0,1,.18,1.34v5.81h-.34a.3.3,0,0,1-.33-.25l-.13-1.14a8.36,8.36,0,0,1-.73.64,5.08,5.08,0,0,1-.75.49,4,4,0,0,1-.86.3,4.44,4.44,0,0,1-1,.11,3,3,0,0,1-.89-.14,2.16,2.16,0,0,1-.76-.41,1.84,1.84,0,0,1-.54-.71,2.4,2.4,0,0,1-.2-1,1.8,1.8,0,0,1,.32-1,2.56,2.56,0,0,1,1-.85,6.57,6.57,0,0,1,1.77-.57,14.41,14.41,0,0,1,2.6-.25v-.94a3,3,0,0,0-.54-1.9,1.91,1.91,0,0,0-1.58-.67,3,3,0,0,0-1.1.18,3.59,3.59,0,0,0-.76.4,4.17,4.17,0,0,0-.51.39.56.56,0,0,1-.34.18.29.29,0,0,1-.16,0,.58.58,0,0,1-.1-.12Zm5.25,3.34a17.52,17.52,0,0,0-2.19.2,6.51,6.51,0,0,0-1.52.43,2.21,2.21,0,0,0-.88.64,1.37,1.37,0,0,0-.29.85,1.79,1.79,0,0,0,.15.77,1.57,1.57,0,0,0,.39.54,1.76,1.76,0,0,0,.57.31,2.18,2.18,0,0,0,.67.1,4.08,4.08,0,0,0,1-.11,3.6,3.6,0,0,0,.81-.32,3.56,3.56,0,0,0,.69-.48,7.13,7.13,0,0,0,.64-.6Z"/><path class="cls-2" d="M393.87,35.33l-.09.07a.16.16,0,0,1-.11,0,.44.44,0,0,1-.24-.12,2.68,2.68,0,0,0-.41-.26,3.11,3.11,0,0,0-.65-.27,3.28,3.28,0,0,0-.95-.12,3.09,3.09,0,0,0-1.36.28,2.67,2.67,0,0,0-1,.78,3.38,3.38,0,0,0-.63,1.24,5.86,5.86,0,0,0-.21,1.63,6,6,0,0,0,.22,1.67,3.61,3.61,0,0,0,.63,1.22,2.57,2.57,0,0,0,1,.76,3.15,3.15,0,0,0,1.28.26,3.35,3.35,0,0,0,1.08-.15,3.64,3.64,0,0,0,.71-.34,2.63,2.63,0,0,0,.45-.33.41.41,0,0,1,.27-.15.23.23,0,0,1,.18.09l.22.29a2.76,2.76,0,0,1-.52.5,3.74,3.74,0,0,1-.71.4,4.45,4.45,0,0,1-.85.27,5.07,5.07,0,0,1-1,.09,3.73,3.73,0,0,1-1.55-.31,3.34,3.34,0,0,1-1.21-.89,4.35,4.35,0,0,1-.79-1.44,6.13,6.13,0,0,1-.29-1.94,6.06,6.06,0,0,1,.27-1.86,4.27,4.27,0,0,1,.79-1.46,3.6,3.6,0,0,1,1.27-.94,4.06,4.06,0,0,1,1.72-.34,3.92,3.92,0,0,1,1.54.28,3.56,3.56,0,0,1,1.17.75Z"/><path class="cls-2" d="M396.47,38.24v.17a6.28,6.28,0,0,0,.23,1.77,3.65,3.65,0,0,0,.67,1.27,2.58,2.58,0,0,0,1,.78,3.47,3.47,0,0,0,1.36.26,3.94,3.94,0,0,0,1.16-.15,4.47,4.47,0,0,0,.83-.33,3.76,3.76,0,0,0,.54-.33.58.58,0,0,1,.28-.15.2.2,0,0,1,.18.09l.24.29a2.83,2.83,0,0,1-.57.5,4.49,4.49,0,0,1-.79.4,5.28,5.28,0,0,1-.93.26,4.92,4.92,0,0,1-1,.1,4.11,4.11,0,0,1-1.67-.32,3.5,3.5,0,0,1-1.29-.93,4.06,4.06,0,0,1-.83-1.49,6.27,6.27,0,0,1-.29-2,5.57,5.57,0,0,1,.27-1.77,4.08,4.08,0,0,1,.79-1.4,3.55,3.55,0,0,1,1.26-.92,4.19,4.19,0,0,1,1.7-.33,3.79,3.79,0,0,1,1.4.26,3.18,3.18,0,0,1,1.12.76,3.49,3.49,0,0,1,.75,1.22,4.8,4.8,0,0,1,.27,1.67.46.46,0,0,1-.05.27.21.21,0,0,1-.18.07Zm5.95-.55a3.7,3.7,0,0,0-.2-1.28,2.68,2.68,0,0,0-.57-1,2.51,2.51,0,0,0-.87-.6,2.9,2.9,0,0,0-1.12-.21,3.47,3.47,0,0,0-1.24.21,2.75,2.75,0,0,0-.94.62,3,3,0,0,0-.64,1,4.85,4.85,0,0,0-.33,1.26Z"/><path class="cls-2" d="M272.89,66.23V78.91h-.8V68.1a4.15,4.15,0,0,1,0-.49l-5,8.86a.4.4,0,0,1-.36.24h-.15a.38.38,0,0,1-.35-.24l-5.13-8.88a4.63,4.63,0,0,1,0,.51V78.91h-.81V66.23H261l.2,0a.35.35,0,0,1,.15.15l5.11,8.82a4.41,4.41,0,0,1,.24.54c0-.1.07-.19.11-.29s.09-.18.14-.26l5-8.81a.35.35,0,0,1,.15-.15l.2,0Z"/><path class="cls-2" d="M279.5,69.85a4.21,4.21,0,0,1,1.71.33,3.31,3.31,0,0,1,1.28.92,4.24,4.24,0,0,1,.8,1.45,6.27,6.27,0,0,1,.27,1.9,6.16,6.16,0,0,1-.27,1.89,4.2,4.2,0,0,1-.8,1.44,3.44,3.44,0,0,1-1.28.93,4.38,4.38,0,0,1-1.71.32,4.47,4.47,0,0,1-1.72-.32,3.61,3.61,0,0,1-1.28-.93,4,4,0,0,1-.8-1.44,6.16,6.16,0,0,1-.27-1.89,6.27,6.27,0,0,1,.27-1.9,4.08,4.08,0,0,1,.8-1.45,3.47,3.47,0,0,1,1.28-.92A4.29,4.29,0,0,1,279.5,69.85Zm0,8.51a3.19,3.19,0,0,0,1.39-.28,2.64,2.64,0,0,0,1-.78,3.52,3.52,0,0,0,.59-1.23,6.66,6.66,0,0,0,0-3.24,3.66,3.66,0,0,0-.59-1.24,2.66,2.66,0,0,0-1-.79,3.19,3.19,0,0,0-1.39-.28,3.24,3.24,0,0,0-1.4.28,2.63,2.63,0,0,0-1,.79,3.49,3.49,0,0,0-.6,1.24,6.66,6.66,0,0,0,0,3.24,3.37,3.37,0,0,0,.6,1.23,2.61,2.61,0,0,0,1,.78A3.24,3.24,0,0,0,279.5,78.36Z"/><path class="cls-2" d="M292.91,65.87v13h-.47a.25.25,0,0,1-.27-.23l-.09-1.41a4.52,4.52,0,0,1-1.38,1.28,3.31,3.31,0,0,1-1.77.48,3.11,3.11,0,0,1-2.57-1.14,5.39,5.39,0,0,1-.91-3.42,6.25,6.25,0,0,1,.26-1.82,4.52,4.52,0,0,1,.74-1.47,3.53,3.53,0,0,1,1.22-1,3.65,3.65,0,0,1,1.66-.36,3.46,3.46,0,0,1,1.57.33,3.29,3.29,0,0,1,1.16,1V65.87Zm-.85,6a3,3,0,0,0-1.14-1.08,3.09,3.09,0,0,0-1.42-.32,3.18,3.18,0,0,0-1.38.29,2.77,2.77,0,0,0-1,.81,3.92,3.92,0,0,0-.6,1.25,6.28,6.28,0,0,0-.2,1.61,4.73,4.73,0,0,0,.73,2.93,2.51,2.51,0,0,0,2.11.94,2.93,2.93,0,0,0,1.61-.46,4.33,4.33,0,0,0,1.28-1.28Z"/><path class="cls-2" d="M296.15,74.1v.17a5.81,5.81,0,0,0,.24,1.76,3.45,3.45,0,0,0,.66,1.28,2.85,2.85,0,0,0,1,.78,3.51,3.51,0,0,0,1.36.26,4.06,4.06,0,0,0,1.17-.15,4.77,4.77,0,0,0,.83-.33l.53-.33a.6.6,0,0,1,.29-.15.2.2,0,0,1,.18.09l.23.28a2.4,2.4,0,0,1-.57.51,4.86,4.86,0,0,1-.79.4,6.31,6.31,0,0,1-.93.26,4.78,4.78,0,0,1-1,.1,4.32,4.32,0,0,1-1.67-.32,3.5,3.5,0,0,1-1.29-.93,4.21,4.21,0,0,1-.83-1.49,6.56,6.56,0,0,1-.29-2,5.3,5.3,0,0,1,.28-1.77,4.06,4.06,0,0,1,.78-1.4,3.67,3.67,0,0,1,1.27-.92,4.16,4.16,0,0,1,1.7-.33,3.79,3.79,0,0,1,1.4.26,3.05,3.05,0,0,1,1.12.76,3.62,3.62,0,0,1,.74,1.22,4.53,4.53,0,0,1,.28,1.67.45.45,0,0,1-.06.27.21.21,0,0,1-.17.07Zm6-.55a4,4,0,0,0-.2-1.29,2.85,2.85,0,0,0-.57-1,2.55,2.55,0,0,0-.88-.6,2.89,2.89,0,0,0-1.11-.21,3.43,3.43,0,0,0-1.24.21,2.65,2.65,0,0,0-.95.62,3.15,3.15,0,0,0-.64,1,4.31,4.31,0,0,0-.32,1.26Z"/><path class="cls-2" d="M306,72.14a4.86,4.86,0,0,1,.47-1,3.06,3.06,0,0,1,.61-.72,2.3,2.3,0,0,1,.77-.45,2.58,2.58,0,0,1,.94-.16,3.31,3.31,0,0,1,.55,0,1.31,1.31,0,0,1,.47.17l-.07.59c0,.1-.08.15-.17.15a1.3,1.3,0,0,1-.32-.06,1.87,1.87,0,0,0-.58-.07,2.56,2.56,0,0,0-.92.16,2,2,0,0,0-.72.47,2.86,2.86,0,0,0-.55.78,6.64,6.64,0,0,0-.44,1.06v5.77h-.86V70h.46a.29.29,0,0,1,.21.06.41.41,0,0,1,.08.22Z"/><path class="cls-2" d="M311.13,71.26a5,5,0,0,1,1.47-1.06,4,4,0,0,1,1.74-.36,3.26,3.26,0,0,1,1.26.23,2.34,2.34,0,0,1,.89.65,2.88,2.88,0,0,1,.53,1,4.79,4.79,0,0,1,.18,1.35v5.81h-.34a.3.3,0,0,1-.33-.25l-.12-1.15c-.25.24-.49.46-.73.65a4.81,4.81,0,0,1-.76.48,4.11,4.11,0,0,1-.85.31,4.53,4.53,0,0,1-1,.11,3,3,0,0,1-.89-.14,2.33,2.33,0,0,1-.76-.41,1.92,1.92,0,0,1-.54-.71,2.55,2.55,0,0,1-.2-1,1.9,1.9,0,0,1,.32-1,2.7,2.7,0,0,1,1-.84,6.57,6.57,0,0,1,1.77-.57,15.28,15.28,0,0,1,2.6-.26V73.1a3,3,0,0,0-.53-1.9,1.91,1.91,0,0,0-1.59-.67,2.93,2.93,0,0,0-1.09.18,3.93,3.93,0,0,0-.77.39,5.39,5.39,0,0,0-.51.4.55.55,0,0,1-.33.18.25.25,0,0,1-.16-.05.38.38,0,0,1-.11-.11Zm5.24,3.34a17.52,17.52,0,0,0-2.19.2,6.65,6.65,0,0,0-1.52.43,2.28,2.28,0,0,0-.88.64,1.37,1.37,0,0,0-.29.85,1.86,1.86,0,0,0,.15.77,1.47,1.47,0,0,0,.4.54,1.61,1.61,0,0,0,.56.31,2.54,2.54,0,0,0,.68.1,3.58,3.58,0,0,0,1-.12A3.16,3.16,0,0,0,315,78a3.28,3.28,0,0,0,.69-.48,7.13,7.13,0,0,0,.64-.6Z"/><path class="cls-2" d="M322.4,79.06a1.91,1.91,0,0,1-1.41-.51,2.08,2.08,0,0,1-.51-1.55V70.91H319.2a.23.23,0,0,1-.16-.06.18.18,0,0,1-.06-.15v-.33l1.52-.11.22-3.19a.27.27,0,0,1,.07-.14.18.18,0,0,1,.15-.07h.41v3.41h2.81v.64h-2.81v6a2,2,0,0,0,.09.63,1.08,1.08,0,0,0,.26.43,1,1,0,0,0,.39.26,1.51,1.51,0,0,0,.48.08,1.56,1.56,0,0,0,.56-.1,2.48,2.48,0,0,0,.4-.2,2.88,2.88,0,0,0,.28-.21.31.31,0,0,1,.17-.09.15.15,0,0,1,.14.09l.24.37a2.66,2.66,0,0,1-.87.61A2.73,2.73,0,0,1,322.4,79.06Z"/><path class="cls-2" d="M326.39,74.1v.17a5.81,5.81,0,0,0,.24,1.76,3.45,3.45,0,0,0,.66,1.28,2.85,2.85,0,0,0,1,.78,3.47,3.47,0,0,0,1.36.26,4.06,4.06,0,0,0,1.17-.15,4.77,4.77,0,0,0,.83-.33l.53-.33a.6.6,0,0,1,.29-.15.23.23,0,0,1,.18.09l.23.28a2.4,2.4,0,0,1-.57.51,5.3,5.3,0,0,1-.79.4,6.31,6.31,0,0,1-.93.26,4.85,4.85,0,0,1-1,.1,4.29,4.29,0,0,1-1.67-.32,3.5,3.5,0,0,1-1.29-.93,4.21,4.21,0,0,1-.83-1.49,6.56,6.56,0,0,1-.29-2,5.57,5.57,0,0,1,.27-1.77,4.25,4.25,0,0,1,.79-1.4,3.67,3.67,0,0,1,1.27-.92,4.14,4.14,0,0,1,1.69-.33,3.75,3.75,0,0,1,1.4.26,3,3,0,0,1,1.12.76,3.49,3.49,0,0,1,.75,1.22,4.53,4.53,0,0,1,.28,1.67.45.45,0,0,1-.06.27.22.22,0,0,1-.18.07Zm5.95-.55a3.72,3.72,0,0,0-.2-1.29,2.56,2.56,0,0,0-.57-1,2.42,2.42,0,0,0-.87-.6,2.9,2.9,0,0,0-1.12-.21,3.37,3.37,0,0,0-1.23.21,2.65,2.65,0,0,0-1,.62,3,3,0,0,0-.64,1,4.31,4.31,0,0,0-.32,1.26Z"/><path class="cls-2" d="M261.27,84.85a.77.77,0,0,1-.06.3,1.08,1.08,0,0,1-.18.24.76.76,0,0,1-.25.18.81.81,0,0,1-.31.06.8.8,0,0,1-.3-.06.76.76,0,0,1-.25-.18.81.81,0,0,1-.17-.24.77.77,0,0,1-.06-.3.81.81,0,0,1,.06-.31.78.78,0,0,1,.17-.26.74.74,0,0,1,.25-.17.8.8,0,0,1,.3-.06.81.81,0,0,1,.31.06.74.74,0,0,1,.25.17,1,1,0,0,1,.18.26A.81.81,0,0,1,261.27,84.85Zm-.37,3.07v8.92h-.85V87.92Z"/><path class="cls-2" d="M263.94,96.84V87.92h.48a.24.24,0,0,1,.26.23l.08,1.29a4.53,4.53,0,0,1,1.19-1.2,2.62,2.62,0,0,1,1.52-.46,2.18,2.18,0,0,1,1.56.56,2.9,2.9,0,0,1,.79,1.57,3.11,3.11,0,0,1,.46-1,2.67,2.67,0,0,1,.67-.67,3,3,0,0,1,.82-.39,3.39,3.39,0,0,1,.91-.12,3,3,0,0,1,1.19.22,2.31,2.31,0,0,1,.89.65,2.91,2.91,0,0,1,.57,1.06,4.75,4.75,0,0,1,.2,1.43v5.7h-.86v-5.7a3,3,0,0,0-.56-2,2,2,0,0,0-1.61-.69,2.52,2.52,0,0,0-.9.17,2.09,2.09,0,0,0-.75.51,2.35,2.35,0,0,0-.52.84,3.17,3.17,0,0,0-.19,1.16v5.7h-.86v-5.7a3.23,3.23,0,0,0-.52-2,1.75,1.75,0,0,0-1.51-.69,2.27,2.27,0,0,0-1.34.43,4.12,4.12,0,0,0-1.11,1.19v6.76Z"/><path class="cls-2" d="M279.2,89.53a4.85,4.85,0,0,1,1.39-1.29,3.45,3.45,0,0,1,1.78-.47,3.12,3.12,0,0,1,2.56,1.14,5.38,5.38,0,0,1,.91,3.41,6.33,6.33,0,0,1-.25,1.83,4.44,4.44,0,0,1-.75,1.47,3.75,3.75,0,0,1-1.22,1A3.7,3.7,0,0,1,282,97a3.45,3.45,0,0,1-1.56-.33,3.16,3.16,0,0,1-1.15-1V100h-.86V87.92h.47a.24.24,0,0,1,.26.23Zm0,5.37a4,4,0,0,0,.54.65,3,3,0,0,0,.6.43,2.25,2.25,0,0,0,.66.23,3.67,3.67,0,0,0,.75.08,3.12,3.12,0,0,0,1.38-.29,2.61,2.61,0,0,0,1-.81,3.51,3.51,0,0,0,.6-1.26,5.76,5.76,0,0,0,.21-1.61,4.71,4.71,0,0,0-.74-2.92,2.51,2.51,0,0,0-2.11-.94,2.88,2.88,0,0,0-1.6.46,4.41,4.41,0,0,0-1.28,1.27Z"/><path class="cls-2" d="M288.57,92v.17A6.16,6.16,0,0,0,288.8,94a3.61,3.61,0,0,0,.67,1.28,2.67,2.67,0,0,0,1,.78,3.47,3.47,0,0,0,1.36.26,3.94,3.94,0,0,0,1.16-.15,4.47,4.47,0,0,0,.83-.33,3.76,3.76,0,0,0,.54-.33.58.58,0,0,1,.28-.15.2.2,0,0,1,.18.09l.24.28a2.86,2.86,0,0,1-.57.51,4.49,4.49,0,0,1-.79.4,6.31,6.31,0,0,1-.93.26,4.92,4.92,0,0,1-1,.1,4.29,4.29,0,0,1-1.67-.32,3.5,3.5,0,0,1-1.29-.93,4.06,4.06,0,0,1-.83-1.49,6.27,6.27,0,0,1-.29-2,5.57,5.57,0,0,1,.27-1.77,4.08,4.08,0,0,1,.79-1.4,3.55,3.55,0,0,1,1.26-.92,4.19,4.19,0,0,1,1.7-.33,3.79,3.79,0,0,1,1.4.26,3.05,3.05,0,0,1,1.12.76A3.49,3.49,0,0,1,295,90a4.76,4.76,0,0,1,.27,1.67.46.46,0,0,1-.05.27.25.25,0,0,1-.18.07Zm5.95-.55a3.72,3.72,0,0,0-.2-1.29,2.64,2.64,0,0,0-.57-1,2.42,2.42,0,0,0-.87-.6,2.9,2.9,0,0,0-1.12-.21,3.47,3.47,0,0,0-1.24.21,2.61,2.61,0,0,0-.94.62,3,3,0,0,0-.64,1,4.75,4.75,0,0,0-.33,1.26Z"/><path class="cls-2" d="M298.43,90.07a6.74,6.74,0,0,1,.47-1,3.32,3.32,0,0,1,.61-.72,2.4,2.4,0,0,1,.77-.45,2.63,2.63,0,0,1,1-.16,3.41,3.41,0,0,1,.55,0,1.47,1.47,0,0,1,.47.17l-.07.6a.18.18,0,0,1-.17.14,1.45,1.45,0,0,1-.33-.06,1.87,1.87,0,0,0-.58-.07,2.65,2.65,0,0,0-.92.16,2,2,0,0,0-.71.47,2.89,2.89,0,0,0-.56.78,7.07,7.07,0,0,0-.43,1.06v5.77h-.86V87.92h.45a.28.28,0,0,1,.22.07.34.34,0,0,1,.08.21Z"/><path class="cls-2" d="M311.12,87.92l-3.77,8.92h-.75l-3.77-8.92h.68a.27.27,0,0,1,.2.07.27.27,0,0,1,.11.15l2.95,7A5.91,5.91,0,0,1,307,96a6.07,6.07,0,0,1,.23-.77l3-7a.4.4,0,0,1,.12-.16.28.28,0,0,1,.18-.06Z"/><path class="cls-2" d="M314.26,84.85a.77.77,0,0,1-.06.3,1.08,1.08,0,0,1-.18.24.76.76,0,0,1-.25.18.8.8,0,0,1-.3.06.81.81,0,0,1-.31-.06.88.88,0,0,1-.25-.18.81.81,0,0,1-.17-.24.77.77,0,0,1-.06-.3.81.81,0,0,1,.06-.31.78.78,0,0,1,.17-.26.85.85,0,0,1,.25-.17.81.81,0,0,1,.31-.06.8.8,0,0,1,.3.06.74.74,0,0,1,.25.17,1,1,0,0,1,.18.26A.81.81,0,0,1,314.26,84.85Zm-.36,3.07v8.92H313V87.92Z"/><path class="cls-2" d="M320.47,87.78a4.21,4.21,0,0,1,1.71.33,3.39,3.39,0,0,1,1.28.92,4.06,4.06,0,0,1,.79,1.45,6,6,0,0,1,.28,1.9,5.87,5.87,0,0,1-.28,1.89,4,4,0,0,1-.79,1.44,3.53,3.53,0,0,1-1.28.93,4.38,4.38,0,0,1-1.71.32,4.43,4.43,0,0,1-1.72-.32,3.53,3.53,0,0,1-1.28-.93,4,4,0,0,1-.8-1.44,6.16,6.16,0,0,1-.27-1.89,6.27,6.27,0,0,1,.27-1.9,4.08,4.08,0,0,1,.8-1.45,3.39,3.39,0,0,1,1.28-.92A4.26,4.26,0,0,1,320.47,87.78Zm0,8.51a3.19,3.19,0,0,0,1.39-.28,2.64,2.64,0,0,0,1-.78,3.52,3.52,0,0,0,.59-1.23,6.19,6.19,0,0,0,.2-1.62,6.3,6.3,0,0,0-.2-1.62,3.66,3.66,0,0,0-.59-1.24,2.66,2.66,0,0,0-1-.79,3.62,3.62,0,0,0-2.79,0,2.56,2.56,0,0,0-1,.79,3.49,3.49,0,0,0-.6,1.24,5.89,5.89,0,0,0-.2,1.62,5.8,5.8,0,0,0,.2,1.62,3.37,3.37,0,0,0,.6,1.23,2.53,2.53,0,0,0,1,.78A3.21,3.21,0,0,0,320.47,96.29Z"/><path class="cls-2" d="M333.86,87.92v8.92h-.48a.24.24,0,0,1-.26-.23L333,95.28a4.94,4.94,0,0,1-1.43,1.24,3.55,3.55,0,0,1-1.8.47,3.24,3.24,0,0,1-1.3-.24,2.42,2.42,0,0,1-.93-.67A2.88,2.88,0,0,1,327,95a4.65,4.65,0,0,1-.19-1.4v-5.7h.86v5.7a3,3,0,0,0,.58,2,2.08,2.08,0,0,0,1.74.71,3.12,3.12,0,0,0,1.63-.44A4.6,4.6,0,0,0,333,94.63V87.92Z"/><path class="cls-2" d="M341.7,89a.24.24,0,0,1-.21.12.48.48,0,0,1-.25-.11,2.73,2.73,0,0,0-.41-.25,2.67,2.67,0,0,0-.63-.25,3.07,3.07,0,0,0-.92-.12,2.75,2.75,0,0,0-.88.14,2.23,2.23,0,0,0-.68.38,1.64,1.64,0,0,0-.44.54,1.44,1.44,0,0,0-.15.65,1.09,1.09,0,0,0,.22.7,1.87,1.87,0,0,0,.56.47,3.83,3.83,0,0,0,.79.34l.91.29c.31.1.61.2.91.32a3.14,3.14,0,0,1,.79.43,2.14,2.14,0,0,1,.56.64,1.73,1.73,0,0,1,.22.91,2.82,2.82,0,0,1-.21,1.09,2.47,2.47,0,0,1-.6.87,3,3,0,0,1-1,.58,4.37,4.37,0,0,1-3-.08,4.57,4.57,0,0,1-1.22-.79l.2-.3a.27.27,0,0,1,.1-.11.25.25,0,0,1,.16,0,.48.48,0,0,1,.28.15,4,4,0,0,0,.44.31,3.75,3.75,0,0,0,.69.3,3,3,0,0,0,1,.15,2.74,2.74,0,0,0,1-.16,2.11,2.11,0,0,0,.72-.42,1.65,1.65,0,0,0,.43-.64,1.94,1.94,0,0,0,.15-.76,1.28,1.28,0,0,0-.21-.75,2,2,0,0,0-.57-.5,4.09,4.09,0,0,0-.79-.35l-.91-.29c-.31-.09-.62-.2-.91-.31a3.14,3.14,0,0,1-.79-.43,1.91,1.91,0,0,1-.57-.63,1.88,1.88,0,0,1-.21-.93,2,2,0,0,1,.2-.91,2.21,2.21,0,0,1,.59-.77,2.63,2.63,0,0,1,.93-.53,3.38,3.38,0,0,1,1.23-.2,4.26,4.26,0,0,1,1.44.23,3.48,3.48,0,0,1,1.15.72Z"/><path class="cls-2" d="M354.18,89a.21.21,0,0,1-.2.12.48.48,0,0,1-.25-.11,3.36,3.36,0,0,0-.41-.25,2.67,2.67,0,0,0-.63-.25,3.07,3.07,0,0,0-.92-.12,2.71,2.71,0,0,0-.88.14,2.23,2.23,0,0,0-.68.38,1.52,1.52,0,0,0-.44.54,1.44,1.44,0,0,0-.15.65,1.09,1.09,0,0,0,.22.7,1.87,1.87,0,0,0,.56.47,3.83,3.83,0,0,0,.79.34l.91.29c.31.1.61.2.91.32a3.14,3.14,0,0,1,.79.43,2.14,2.14,0,0,1,.56.64,1.73,1.73,0,0,1,.22.91,2.82,2.82,0,0,1-.21,1.09,2.61,2.61,0,0,1-.6.87,3,3,0,0,1-1,.58,3.86,3.86,0,0,1-1.33.22,4,4,0,0,1-1.62-.3,4.57,4.57,0,0,1-1.22-.79l.19-.3a.29.29,0,0,1,.11-.11.24.24,0,0,1,.15,0,.48.48,0,0,1,.29.15,4,4,0,0,0,.44.31,3.47,3.47,0,0,0,.69.3,2.89,2.89,0,0,0,1,.15,2.8,2.8,0,0,0,1-.16,2.11,2.11,0,0,0,.72-.42,1.76,1.76,0,0,0,.43-.64,1.94,1.94,0,0,0,.15-.76,1.21,1.21,0,0,0-.22-.75,2,2,0,0,0-.56-.5,4.09,4.09,0,0,0-.79-.35l-.91-.29c-.31-.09-.62-.2-.91-.31a3.4,3.4,0,0,1-.8-.43,2,2,0,0,1-.56-.63,1.78,1.78,0,0,1-.22-.93,2.06,2.06,0,0,1,.21-.91,2.21,2.21,0,0,1,.59-.77,2.68,2.68,0,0,1,.92-.53,3.45,3.45,0,0,1,1.23-.2,4.28,4.28,0,0,1,1.45.23,3.48,3.48,0,0,1,1.15.72Z"/><path class="cls-2" d="M363.82,87.92v8.92h-.48a.24.24,0,0,1-.26-.23L363,95.28a4.94,4.94,0,0,1-1.43,1.24,3.55,3.55,0,0,1-1.8.47,3.24,3.24,0,0,1-1.3-.24,2.42,2.42,0,0,1-.93-.67A2.88,2.88,0,0,1,357,95a4.65,4.65,0,0,1-.19-1.4v-5.7h.86v5.7a3.06,3.06,0,0,0,.57,2,2.11,2.11,0,0,0,1.75.71,3.12,3.12,0,0,0,1.63-.44A4.6,4.6,0,0,0,363,94.63V87.92Z"/><path class="cls-2" d="M367.57,90.07a5.14,5.14,0,0,1,.47-1,3.06,3.06,0,0,1,.61-.72,2.3,2.3,0,0,1,.77-.45,2.58,2.58,0,0,1,.94-.16,3.31,3.31,0,0,1,.55,0,1.44,1.44,0,0,1,.48.17l-.08.6a.17.17,0,0,1-.17.14,1.3,1.3,0,0,1-.32-.06,1.87,1.87,0,0,0-.58-.07,2.6,2.6,0,0,0-.92.16,2.09,2.09,0,0,0-.72.47,3.1,3.1,0,0,0-.55.78,7.05,7.05,0,0,0-.44,1.06v5.77h-.86V87.92h.46a.25.25,0,0,1,.21.07.29.29,0,0,1,.08.21Z"/><path class="cls-2" d="M373.62,96.84v-8l-1.26-.09c-.16,0-.25-.09-.25-.22V88.2h1.51V87.07a3.94,3.94,0,0,1,.2-1.34,2.58,2.58,0,0,1,.55-1,2.3,2.3,0,0,1,.86-.58,3.08,3.08,0,0,1,1.11-.19,2.59,2.59,0,0,1,.56,0,2.37,2.37,0,0,1,.51.13l0,.42a.13.13,0,0,1-.07.1l-.17,0-.28,0-.39,0a2.37,2.37,0,0,0-.81.13,1.43,1.43,0,0,0-.64.42,2,2,0,0,0-.42.74,3.75,3.75,0,0,0-.15,1.14v1.1h2.9v.64h-2.87v8Z"/><path class="cls-2" d="M378.94,89.19a5.24,5.24,0,0,1,1.47-1.06,4.12,4.12,0,0,1,1.75-.36,3.26,3.26,0,0,1,1.26.23,2.34,2.34,0,0,1,.89.65,2.88,2.88,0,0,1,.53,1A4.79,4.79,0,0,1,385,91v5.81h-.34a.3.3,0,0,1-.33-.25l-.13-1.15a8.53,8.53,0,0,1-.73.65,4.32,4.32,0,0,1-.75.48,4,4,0,0,1-.86.31,4.44,4.44,0,0,1-1,.11,3,3,0,0,1-.89-.14,2.33,2.33,0,0,1-.76-.41,1.92,1.92,0,0,1-.54-.71,2.4,2.4,0,0,1-.2-1,1.85,1.85,0,0,1,.32-1.05,2.62,2.62,0,0,1,1-.84,6.57,6.57,0,0,1,1.77-.57,14.41,14.41,0,0,1,2.6-.25V91a3,3,0,0,0-.54-1.9,1.88,1.88,0,0,0-1.58-.67,3,3,0,0,0-1.1.18,4.13,4.13,0,0,0-.76.39,5.39,5.39,0,0,0-.51.4.56.56,0,0,1-.34.18.3.3,0,0,1-.16,0,.52.52,0,0,1-.1-.11Zm5.25,3.34a17.52,17.52,0,0,0-2.19.2,6.51,6.51,0,0,0-1.52.43,2.21,2.21,0,0,0-.88.64,1.37,1.37,0,0,0-.29.85,1.86,1.86,0,0,0,.15.77,1.57,1.57,0,0,0,.39.54,1.76,1.76,0,0,0,.57.31,2.53,2.53,0,0,0,.67.1,4.08,4.08,0,0,0,1-.11,3.6,3.6,0,0,0,.81-.32,3.56,3.56,0,0,0,.69-.48,7.13,7.13,0,0,0,.64-.6Z"/><path class="cls-2" d="M393.87,89.11a.32.32,0,0,1-.09.08.16.16,0,0,1-.11,0,.44.44,0,0,1-.24-.12,2.68,2.68,0,0,0-.41-.26,3.11,3.11,0,0,0-.65-.27,3.28,3.28,0,0,0-.95-.12,3.24,3.24,0,0,0-1.36.27,2.8,2.8,0,0,0-1,.79,3.38,3.38,0,0,0-.63,1.24,5.81,5.81,0,0,0-.21,1.63,6,6,0,0,0,.22,1.67,3.61,3.61,0,0,0,.63,1.22,2.67,2.67,0,0,0,1,.76,3.15,3.15,0,0,0,1.28.26,3.08,3.08,0,0,0,1.08-.16,3.16,3.16,0,0,0,.71-.33,3.3,3.3,0,0,0,.45-.33.41.41,0,0,1,.27-.15.23.23,0,0,1,.18.09l.22.28a2.8,2.8,0,0,1-.52.51,3.74,3.74,0,0,1-.71.4,4.43,4.43,0,0,1-.85.26,4.37,4.37,0,0,1-1,.1,3.73,3.73,0,0,1-1.55-.31,3.26,3.26,0,0,1-1.21-.9,4.16,4.16,0,0,1-.79-1.44,6,6,0,0,1-.29-1.93,6.12,6.12,0,0,1,.27-1.87,4.32,4.32,0,0,1,.79-1.45,3.63,3.63,0,0,1,1.27-1,4.22,4.22,0,0,1,1.72-.33,3.92,3.92,0,0,1,1.54.28,3.56,3.56,0,0,1,1.17.75Z"/><path class="cls-2" d="M396.47,92v.17A6.16,6.16,0,0,0,396.7,94a3.61,3.61,0,0,0,.67,1.28,2.67,2.67,0,0,0,1,.78,3.47,3.47,0,0,0,1.36.26,3.94,3.94,0,0,0,1.16-.15,4.47,4.47,0,0,0,.83-.33,3.76,3.76,0,0,0,.54-.33.58.58,0,0,1,.28-.15.2.2,0,0,1,.18.09l.24.28a2.86,2.86,0,0,1-.57.51,4.49,4.49,0,0,1-.79.4,6.31,6.31,0,0,1-.93.26,4.92,4.92,0,0,1-1,.1,4.29,4.29,0,0,1-1.67-.32,3.5,3.5,0,0,1-1.29-.93,4.06,4.06,0,0,1-.83-1.49,6.27,6.27,0,0,1-.29-2,5.57,5.57,0,0,1,.27-1.77,4.08,4.08,0,0,1,.79-1.4,3.55,3.55,0,0,1,1.26-.92,4.19,4.19,0,0,1,1.7-.33,3.79,3.79,0,0,1,1.4.26,3.05,3.05,0,0,1,1.12.76,3.49,3.49,0,0,1,.75,1.22,4.76,4.76,0,0,1,.27,1.67.46.46,0,0,1-.05.27A.25.25,0,0,1,403,92Zm5.95-.55a3.72,3.72,0,0,0-.2-1.29,2.64,2.64,0,0,0-.57-1,2.51,2.51,0,0,0-.87-.6,2.9,2.9,0,0,0-1.12-.21,3.47,3.47,0,0,0-1.24.21,2.61,2.61,0,0,0-.94.62,3,3,0,0,0-.64,1,4.75,4.75,0,0,0-.33,1.26Z"/></g></svg>