<svg xmlns="http://www.w3.org/2000/svg" viewBox="0 0 223 257"><defs><style>.cls-1{fill:#ebed7a;}.cls-2{fill:#dee122;}.cls-3{fill:#2f459b;}.cls-4,.cls-5{fill:none;}.cls-4{stroke:#2f459b;stroke-linecap:round;stroke-miterlimit:10;stroke-width:4.08px;}.cls-6{opacity:0.18;}.cls-7{fill:#686811;}.cls-8{opacity:0.24;}.cls-9{fill:#e6e6e6;}</style></defs><title>Redwood</title><g id="Layer_10" data-name="Layer 10"><polygon class="cls-1" points="4.25 190.19 4.25 66.37 111.49 4.46 218.72 66.37 218.72 190.19 111.49 252.1 4.25 190.19"/><path class="cls-2" d="M111.49,7.35,216.22,67.82V188.75L111.49,249.22,6.75,188.75V67.82L111.49,7.35m0-5.77L109,3,4.25,63.49l-2.5,1.44V191.64l2.5,1.44L109,253.55l2.5,1.44,2.5-1.44,104.73-60.47,2.5-1.44V64.93l-2.5-1.44L114,3l-2.5-1.44Z"/><ellipse class="cls-3" cx="171.58" cy="53.82" rx="10.88" ry="2.55" transform="translate(-0.24 106.87) rotate(-34.57)"/><ellipse class="cls-3" cx="156.68" cy="51.52" rx="2.32" ry="10.53" transform="translate(-1.56 98.01) rotate(-34.57)"/><ellipse class="cls-3" cx="169.53" cy="47.26" rx="6.15" ry="1.69" transform="translate(3.12 104.55) rotate(-34.57)"/><ellipse class="cls-3" cx="161.58" cy="45.94" rx="1.71" ry="5.96" transform="translate(2.46 99.81) rotate(-34.57)"/><ellipse class="cls-3" cx="174.93" cy="62.58" rx="19.61" ry="3.3" transform="translate(-7.51 97.68) rotate(-30.57)"/><ellipse class="cls-3" cx="150.32" cy="57.67" rx="3.32" ry="17.69" transform="translate(-8.43 84.48) rotate(-30.57)"/><ellipse class="cls-3" cx="173.92" cy="74.95" rx="23.4" ry="3.3" transform="translate(-15.16 85.73) rotate(-26.57)"/><ellipse class="cls-3" cx="144.72" cy="66.82" rx="3.32" ry="21.28" transform="translate(-14.6 71.8) rotate(-26.57)"/><ellipse class="cls-3" cx="168.67" cy="88.92" rx="23.4" ry="3.3" transform="translate(-21.21 71.56) rotate(-22.57)"/><ellipse class="cls-3" cx="139.23" cy="76.66" rx="3.32" ry="23.56" transform="translate(-18.76 59.32) rotate(-22.57)"/><ellipse class="cls-3" cx="162.45" cy="102.48" rx="23.4" ry="3.3" transform="translate(-24.18 57.08) rotate(-18.57)"/><ellipse class="cls-3" cx="133.94" cy="88.2" rx="3.32" ry="23.56" transform="translate(-21.12 47.26) rotate(-18.57)"/><ellipse class="cls-3" cx="155.3" cy="115.58" rx="23.4" ry="3.3" transform="translate(-24.09 42.8) rotate(-14.57)"/><ellipse class="cls-3" cx="127.86" cy="99.34" rx="3.32" ry="23.56" transform="translate(-20.88 35.37) rotate(-14.57)"/><ellipse class="cls-3" cx="147.25" cy="128.14" rx="23.4" ry="3.3" transform="translate(-21.02 29.2) rotate(-10.57)"/><ellipse class="cls-3" cx="121.01" cy="110.03" rx="3.32" ry="23.56" transform="translate(-18.14 24.08) rotate(-10.57)"/><ellipse class="cls-3" cx="138.35" cy="140.12" rx="23.4" ry="3.3" transform="translate(-15.13 16.76) rotate(-6.57)"/><ellipse class="cls-3" cx="113.44" cy="120.22" rx="3.32" ry="23.56" transform="translate(-13.02 13.78) rotate(-6.57)"/><ellipse class="cls-3" cx="128.64" cy="151.44" rx="23.4" ry="3.3" transform="translate(-6.67 5.93) rotate(-2.57)"/><ellipse class="cls-3" cx="105.17" cy="129.86" rx="3.32" ry="23.56" transform="translate(-5.73 4.86) rotate(-2.57)"/><ellipse class="cls-3" cx="118.15" cy="162.06" rx="3.3" ry="23.4" transform="translate(-46.79 276.15) rotate(-88.57)"/><ellipse class="cls-3" cx="96.25" cy="138.89" rx="23.56" ry="3.32" transform="translate(-44.99 231.66) rotate(-88.57)"/><ellipse class="cls-3" cx="106.96" cy="171.92" rx="3.3" ry="23.4" transform="translate(-74.31 262.15) rotate(-84.57)"/><ellipse class="cls-3" cx="86.72" cy="147.28" rx="3.32" ry="23.56"/><ellipse class="cls-3" cx="95.1" cy="180.98" rx="3.3" ry="23.4" transform="matrix(0.16, -0.99, 0.99, 0.16, -99.01, 245.16)"/><ellipse class="cls-3" cx="76.63" cy="154.99" rx="3.32" ry="23.56"/><ellipse class="cls-3" cx="82.64" cy="189.19" rx="3.3" ry="23.4" transform="translate(-120.56 225.64) rotate(-76.57)"/><ellipse class="cls-3" cx="66.03" cy="161.97" rx="23.56" ry="3.32" transform="matrix(0.09, -1, 1, 0.09, -101.45, 212.39)"/><ellipse class="cls-3" cx="69.06" cy="194.83" rx="2.62" ry="19.96" transform="translate(-137.51 202.37) rotate(-72.57)"/><ellipse class="cls-3" cx="55.19" cy="170.31" rx="20.03" ry="2.51" transform="translate(-119.58 209.15) rotate(-84.57)"/><path class="cls-4" d="M164.61,51s-13.13,50.4-40.36,81.48c-25.21,28.78-64.59,54.91-92.43,67"/><polygon class="cls-5" points="216.22 188.75 216.22 67.82 111.49 7.35 6.75 67.82 6.75 188.75 111.49 249.22 216.22 188.75"/><g class="cls-6"><polygon class="cls-7" points="111.49 128.28 111.49 249.22 216.22 188.75 216.22 188.75 216.22 67.82 111.49 128.28"/></g><g class="cls-8"><polygon class="cls-9" points="111.49 7.35 6.75 67.82 6.75 67.82 111.49 128.28 216.22 67.82 216.22 67.82 111.49 7.35"/></g></g></svg>