<svg id="Layer_1" data-name="Layer 1" xmlns="http://www.w3.org/2000/svg" xmlns:xlink="http://www.w3.org/1999/xlink" viewBox="0 0 459.34 94.61"><defs><style>.cls-1{fill:none;}.cls-2{clip-path:url(#clip-path);}.cls-3{fill:#fff;}</style><clipPath id="clip-path"><rect class="cls-1" y="14.21" width="459.34" height="61.64"/></clipPath></defs><title>TRC-Title</title><g class="cls-2"><path class="cls-3" d="M37.59,15.12c-.35-.4-.62.82-.85.55,0,0,0,.12.06.16Z"/><path class="cls-3" d="M36.5,15.6c-.31-.17-.43.16-.5.28.1-.26.57.08.5-.28"/><path class="cls-3" d="M24.91,31.89V25.34H37l1.28.21a9.29,9.29,0,0,0,.16-1.19c0-.21,0-.44,0-.67a5.19,5.19,0,0,0,0-.56l-.19.08c.37-.53-.08-1.15-.2-1.65v-.35a.54.54,0,0,1,.25-.32l0,.09c.22-.22,0-.47-.29-.7V18.46a.6.6,0,0,0,0-.19v-.5c0-.15.15-.26.42-.27,0,.28.38-.45.58.19.1-.18,0-1.05-.36-1s-.75-.35-1.06,0H13.78c.94-.08,1.89-.15,2.86-.21-.06,0-.08.11-.13.14.17-.09.36-.26.55-.24s-.06.12-.12.15c.75.44,2.19-.28,2.65.06.21-.05.3-.23.19-.37,2.75-.11,5.7-.2,8.51-.54a.25.25,0,0,1,.12.33c2.4-.71,4.91-.43,7.37-.31.09-.19-.25-.2,0-.4-.79-.23-1.44.46-2.16.12l.09-.18c-.52-.12-.1.46-.65.22-.21-.15.06-.23,0-.24a9.85,9.85,0,0,0-3.3.35c-.26-.39-1.19,0-1.6-.39-.29.16-.58.12-.69.38-3.87-.21-7.83.17-11.8.14-1.85.76-4.08-.15-6.28.11a.06.06,0,0,1,0-.08,7.8,7.8,0,0,1-2.63.18L6,16.27c-.85-.11-1.7-.19-2.56-.25-.68,0-2.11-.09-3.38-.11,0,3.41,0,6.84,0,10.28l2.78.07,5.72.24,2.78.07h1.15l.39,0c0,.12,0,.24.07.39s0,0,0,.15l0,.36.06.71c.09.95.21,1.91.38,2.89-.08,0-.12,0-.15-.11.16,1.68-.12,3.2,0,4.78H13.2c.62,3.91-.09,8.15.59,11.92-.07,4.6,0,9.77.19,14.65l-.15,0c0,.49.06,1,.07,1.41,1.92,0,3.53.09,5.24.2.85.06,1.7.11,2.55.14.42,0,.85,0,1.27,0s1.07,0,1.56,0l.87,0c0-.59,0-1.22,0-1.84l0-.8,0-.72c-.07-1-.17-1.94-.27-2.91-.06-.69-.12-1.39-.16-2.08V52.58c0-.19,0-.39,0-.58a9.79,9.79,0,0,0,0-4V43.7c.91-4,.54-7.86,0-11.81M4.15,25.34h1a2.57,2.57,0,0,1-1,0m1.38,0h.29a3.43,3.43,0,0,0-.34.06Zm2,0H10.2a4.47,4.47,0,0,1-2.66,0m3.13,0h.21a.33.33,0,0,0,0,.1Z"/><path class="cls-3" d="M16.94,16.56h0c-.05,0,0,0,0,0"/><polygon class="cls-3" points="34.93 65.27 35.07 65.02 34.88 65.18 34.93 65.27"/><path class="cls-3" d="M35.21,65.17c.24.4.42-.82.58-.55,0,0,0-.12,0-.16Z"/><path class="cls-3" d="M36,64.69c.2.17.29-.16.34-.28-.07.26-.39-.08-.34.28"/><path class="cls-3" d="M56.43,38.49c0-.2.06-.43.08-.58l.06-.41c0-.26.11-.52.17-.78A7.56,7.56,0,0,0,57,35.15l.08,0a10.48,10.48,0,0,1,.09-2c0-.34.09-.67.15-1s.17-.86.21-1.26l0-.33a.81.81,0,0,0,0-.15l-.14-.1a5.22,5.22,0,0,0-.54-.38,4.29,4.29,0,0,0-1.17-.52,4.21,4.21,0,0,0-2.08-.06,8,8,0,0,0-4.77,1.24,11.42,11.42,0,0,0-2,1.61,13.81,13.81,0,0,0-1.56,1.87v-.22c-.31.5-.64,1-.91,1.38l-.09.13s0-.11,0-.16l0-.39L44.17,34l-.09-1.39a4.85,4.85,0,0,0-.07-.58c0-.25-.11-.52-.18-.79A2,2,0,0,0,42.48,30a3.7,3.7,0,0,0-2-.28c-.62,0-1.24.13-1.87.22s-1.31.19-1.95.25H34.88v.43c0,.1,0,.21,0,.31a4.43,4.43,0,0,0,0,2.74v2.87c-.91,2.67-.55,5.28,0,7.94V57.05a6.1,6.1,0,0,0-.39,2.21l.19,0c-.37.36.08.77.2,1.1v.24a.4.4,0,0,1-.25.22l0-.06c-.22.15,0,.31.29.47V62.4a.28.28,0,0,0,0,.13v.34c0,.1-.15.17-.42.18,0-.19-.38.3-.58-.13-.1.12-.05.71.36.65s.73.21,1,0h9.57V57.2c.07.63.15,1.27.2,1.92,0,0-.1,0-.13-.09s.26.24.23.37-.12,0-.15-.08c-.44.5.28,1.47-.06,1.78a.26.26,0,0,0,.37.13c0,1,.1,1.94.15,3l-2.3.16c-.57.06-1.13.14-1.69.24-.09-.06-.11-.18-.08-.33-1.61.71-3.31.43-5,.31-.06.19.17.2,0,.4.53.23,1-.46,1.45-.12l-.06.18c.35.12.07-.46.44-.22.14.15,0,.23,0,.24a4.6,4.6,0,0,0,2.22-.35c.17.39.8,0,1.07.39.2-.16.39-.12.46-.38l.69,0,.91,0H46c0-1.42-.08-3.13-.12-3.74,0-.85-.08-1.71-.07-2.58-.76-1.24.15-2.74-.1-4.22h.07a3.72,3.72,0,0,1-.18-1.77L45.3,52a28,28,0,0,0,.38-5.25V43.48a.47.47,0,0,1,.13-.33l.31-.44a6,6,0,0,1,.38-.47,5.5,5.5,0,0,1,3.76-2c.68-.08,1.43.06,2.17,0a6,6,0,0,1,.69,0h.75a2.6,2.6,0,0,0,1.83-.59,2.06,2.06,0,0,0,.62-1.37c.06,0,.12,0,.11.16M46.4,41a5.81,5.81,0,0,1,.43-.43,1.46,1.46,0,0,1-.43.43m.64-.6.14-.11c0,.06-.09.1-.13.17Zm1.14-.76a6.3,6.3,0,0,1,1.67-.55,2.07,2.07,0,0,1-1.3.49l-.37.06m2-.6h.14a.31.31,0,0,0,0,.09L50.17,39"/><polygon class="cls-3" points="73.39 38.03 73.34 38.19 73.35 38.28 73.39 38.03"/><path class="cls-3" d="M73.57,37.64a.92.92,0,0,0,0-.16l-.14.71c0,.4.11-.82.15-.55"/><path class="cls-3" d="M73.71,37.44c0,.26-.1-.08-.1.28,0,.16.08-.17.1-.28"/><polygon class="cls-3" points="73.07 28.02 72.88 28.27 73.15 28.11 73.07 28.02"/><path class="cls-3" d="M72.68,28.12c-.35-.39-.55.83-.77.58,0,0,0,.11.06.16.23-.25.47-.5.71-.74"/><path class="cls-3" d="M71.69,28.64c-.3-.15-.39.19-.44.31.07-.26.52,0,.44-.31"/><path class="cls-3" d="M88,57.89c-.19-.19-.38-.36-.57-.53-.63-.79-1.29-1.61-2-2.45-.17-.19-.32-.42-.55-.64a2.17,2.17,0,0,0-.77-.46,3.22,3.22,0,0,0-1.74-.05,5.47,5.47,0,0,0-1.54.66c-.48.26-1,.54-1.43.78L78,55.86a6.19,6.19,0,0,1-1.49.54l0-.15a7.33,7.33,0,0,1-4.83-.37,7.74,7.74,0,0,1-3.43-3.12c-.15-.38-.29-.77-.43-1.16l-.38-1.14c-.11-.31-.21-.65-.31-1L67,49.13A1,1,0,0,1,67,49l.11,0,.51-.08c.53-.07,1.2-.15,1.88-.2h2.8l.53,0a7.24,7.24,0,0,0,3.52,0h3.72a18.36,18.36,0,0,0,6.07.51,2.29,2.29,0,0,0,1.66-.78,2.6,2.6,0,0,0,.41-1.68c0-.34-.07-.67-.1-1s0-.46,0-.74A17.61,17.61,0,0,0,87,38.54a13.62,13.62,0,0,0-3.08-4.81,13.07,13.07,0,0,0-2.62-2h0a6,6,0,0,0-2.54-1.56v.2c-.37-.55-1.06-.18-1.52-.21l-.17,0a.41.41,0,0,1-.27-.32l.08,0c-.16-.25-.42,0-.66.18-.51-.09-1-.15-1.55-.19a.93.93,0,0,0-.29,0h-.27c-.16,0-.29-.13-.29-.45.26,0-.39-.39.2-.57-.16-.11-1-.07-.89.34,0,.23-.13.44-.15.65A17,17,0,0,0,66.28,31,15.76,15.76,0,0,0,61.1,34.6a15.6,15.6,0,0,0-3.28,5.24c-.18.49-.34,1-.48,1.48A14,14,0,0,1,58,38.94c0,.05.07.1.08.16,0-.18-.11-.4,0-.54s.09.09.09.15c.65-.39.65-1.84,1.18-2a.24.24,0,0,0-.22-.34,19.52,19.52,0,0,1,5.35-5.57c.14,0,.22.09.26.24a6.73,6.73,0,0,1,2.94-1.72,14.12,14.12,0,0,1,3.4-.5c.06-.19-.26-.17-.05-.39-.77-.16-1.27.62-2,.42l0-.19c-.5,0,0,.46-.54.35-.23-.11,0-.24-.1-.23a5.81,5.81,0,0,0-2.84,1.34c-.39-.26-1,.47-1.52.33-.16.27-.41.37-.36.65a12.77,12.77,0,0,0-4.15,3.56,19.57,19.57,0,0,0-2.64,4.83,7.48,7.48,0,0,1-.54,2.71,7.67,7.67,0,0,0-.53,2.94.06.06,0,0,1-.07,0,9.13,9.13,0,0,1,.18,2.37l.36.63A14.19,14.19,0,0,0,57.57,55a18.49,18.49,0,0,0,4.17,5.85,14.76,14.76,0,0,0,14.54,3.69c0,.07,0,.11-.08.15a16.75,16.75,0,0,0,4.23-.78l0,.07a46.05,46.05,0,0,0,4.82-2.52,11.82,11.82,0,0,0,3.15-3c.15-.1,0-.2-.11-.3ZM67,42.09c.49-.4.3-.48.16-.72.08-.28.18-.53.28-.79,1.09-.34,1.06-1,1.11-1.91a4,4,0,0,1,.37-.45,5.33,5.33,0,0,1,2.65-1.41c.24.16.49.34.65.25l0-.19c.13.34.19,0,.27-.21h.1a1.06,1.06,0,0,1,.06.22v0c0,.21.08,0,.1-.27.17,0,.33,0,.5,0a1.43,1.43,0,0,1,0,.4s.08.38,0,.58.18,0,.17-.36c0-.23,0-.44,0-.64a6.27,6.27,0,0,1,2.7.55,5.09,5.09,0,0,1,1.43,1L77.05,38a.43.43,0,0,1,.1-.09c-.08.05-.21.16-.23.12a.56.56,0,0,1,.11-.11c.16-.44-.49,0-.36-.34a.65.65,0,0,0-.23.29,2,2,0,0,0-1.5-.08,1.2,1.2,0,0,1,.07-.33c-.55.6-.85.27-1.28.13,0,.19,0,.2,0,.4s.26-.45.35-.1l0,.18c.06.13.06-.45.12-.21a.68.68,0,0,1,0,.24c.18-.05.31.14.56-.26,0,.39.18.06.14.44.08-.14.11-.09.2-.34.45.35,1.17.32,1.63.76.36-.19.47,0,.5.16s0,.43.22.51l-.07,0c.22,0,.39.1.38.27l.34,0a3.2,3.2,0,0,0,.1,1.37c.06.24.15.55,0,.7s-.52-.05-.63-.05-.13,0-.21.09a2.4,2.4,0,0,0-.81.49.28.28,0,0,1,0-.15c-.32.15-.61-.12-.91,0v-.08c-.75.63-1.57-.08-2.29.6a10.37,10.37,0,0,0-2.81.19v-.15c-.7.32-1.58-.48-2-.24-.2-.17-.54,0-1.13.24-.33.17-.49.17-.57.09s.1-.42.15-.63l0-.06m11.2.7.1.1h0s0-.06-.06-.1m.5,0,.2.1h-.52c0-.31.07-.23.32-.1m.54.1h0l-.07-.11.07.07v0m0-.3c0,.06,0,.11,0,.17-.06-.1-.07-.17,0-.17M63.23,60.88c.26.19.51.38.78.55a1.51,1.51,0,0,1-.78-.55m1.05.72.26.15-.34-.11Zm1.94,1.14-.45-.33c.41.19.82.38,1.25.54s.66.21,1,.31a2.31,2.31,0,0,1-1.79-.52m2.14.63.19.06s0,.06,0,.11Z"/><path class="cls-3" d="M58.13,38.71h0c0,.05,0,0,0,0"/><polygon class="cls-3" points="105.8 38.03 105.76 38.19 105.77 38.28 105.8 38.03"/><path class="cls-3" d="M106,37.64s0-.11,0-.16l-.14.71c0,.4.11-.82.15-.55"/><path class="cls-3" d="M106.12,37.44c0,.26-.09-.08-.1.28,0,.16.08-.17.1-.28"/><polygon class="cls-3" points="105.49 28.02 105.3 28.27 105.56 28.11 105.49 28.02"/><path class="cls-3" d="M105.1,28.12c-.35-.39-.55.83-.78.58,0,0,0,.11.07.16.23-.25.46-.5.71-.74"/><path class="cls-3" d="M104.11,28.64c-.3-.15-.39.19-.45.31.08-.26.53,0,.45-.31"/><path class="cls-3" d="M120.43,57.89c-.18-.19-.38-.36-.56-.53l-2-2.45c-.17-.19-.31-.42-.54-.64a2.12,2.12,0,0,0-.78-.46,3.19,3.19,0,0,0-1.73-.05,5.66,5.66,0,0,0-1.55.66c-.48.26-1,.54-1.43.78l-1.46.66a6.12,6.12,0,0,1-1.48.54l0-.15a7.36,7.36,0,0,1-4.84-.37,7.71,7.71,0,0,1-3.42-3.12c-.15-.38-.3-.77-.44-1.16l-.37-1.14c-.11-.31-.21-.65-.32-1l-.07-.29c0-.05,0-.11,0-.15l.12,0,.51-.08c.53-.07,1.2-.15,1.88-.2h2.8l.53,0a7.2,7.2,0,0,0,3.51,0h3.73a18.33,18.33,0,0,0,6.07.51,2.27,2.27,0,0,0,1.65-.78,2.67,2.67,0,0,0,.42-1.68c0-.34-.07-.67-.11-1s0-.46,0-.74a17.61,17.61,0,0,0-1.11-6.44,13.77,13.77,0,0,0-3.08-4.81,13.07,13.07,0,0,0-2.62-2h0a6,6,0,0,0-2.54-1.56v.2c-.38-.55-1.06-.18-1.53-.21l-.16,0a.41.41,0,0,1-.28-.32l.08,0c-.15-.25-.42,0-.65.18-.51-.09-1-.15-1.55-.19a.93.93,0,0,0-.29,0h-.27c-.16,0-.29-.13-.29-.45.26,0-.39-.39.2-.57-.17-.11-1-.07-.9.34,0,.23-.13.44-.14.65A16.92,16.92,0,0,0,98.7,31a15.66,15.66,0,0,0-5.18,3.57,15.44,15.44,0,0,0-3.28,5.24c-.19.49-.35,1-.49,1.48a15,15,0,0,1,.64-2.38c0,.05.07.1.08.16,0-.18-.11-.4,0-.54s.09.09.1.15c.64-.39.64-1.84,1.18-2a.24.24,0,0,0-.22-.34,19.52,19.52,0,0,1,5.35-5.57c.14,0,.21.09.26.24a6.61,6.61,0,0,1,2.94-1.72,14.11,14.11,0,0,1,3.39-.5c.07-.19-.25-.17,0-.39-.77-.16-1.27.62-2,.42l0-.19c-.51,0,0,.46-.55.35-.23-.11,0-.24-.1-.23A5.82,5.82,0,0,0,98,30.12c-.39-.26-1,.47-1.52.33-.16.27-.41.37-.37.65A12.84,12.84,0,0,0,92,34.66a19.24,19.24,0,0,0-2.64,4.83,7.49,7.49,0,0,1-.55,2.71,7.66,7.66,0,0,0-.52,2.94.08.08,0,0,1-.08,0,9.12,9.12,0,0,1,.19,2.37l.36.63A14.18,14.18,0,0,0,90,55a18.65,18.65,0,0,0,4.17,5.85,14.79,14.79,0,0,0,14.55,3.69c0,.07,0,.11-.08.15a16.75,16.75,0,0,0,4.23-.78l0,.07a44.94,44.94,0,0,0,4.81-2.52,11.45,11.45,0,0,0,2.13-1.77,13.71,13.71,0,0,0,1-1.23c.14-.1,0-.2-.12-.3ZM99.37,42.09c.48-.4.29-.48.15-.72.09-.28.19-.53.29-.79,1.09-.34,1-1,1.1-1.91a5.63,5.63,0,0,1,.38-.45,5.28,5.28,0,0,1,2.65-1.41c.24.16.48.34.64.25l0-.19c.13.34.2,0,.27-.21h.1a2,2,0,0,1,.07.22v0c0,.21.08,0,.1-.27.17,0,.33,0,.5,0a1.23,1.23,0,0,1,0,.4s.09.38,0,.58.18,0,.17-.36c0-.23,0-.44,0-.64a6.27,6.27,0,0,1,2.7.55,5,5,0,0,1,1.42,1l-.45-.17.11-.09c-.09.05-.22.16-.23.12a.38.38,0,0,1,.11-.11c.16-.44-.49,0-.37-.34a.73.73,0,0,0-.23.29,2,2,0,0,0-1.49-.08,1.09,1.09,0,0,1,.06-.33c-.55.6-.84.27-1.27.13,0,.19,0,.2,0,.4.11.24.27-.45.36-.1l0,.18c.07.13.07-.45.13-.21s0,.23,0,.24c.18-.05.31.14.56-.26-.05.39.17.06.13.44.08-.14.11-.09.2-.34.45.35,1.18.32,1.63.76.36-.19.47,0,.51.16s0,.43.21.51l-.06,0c.22,0,.39.1.38.27l.34,0a3.2,3.2,0,0,0,.1,1.37c0,.24.15.55,0,.7s-.53-.05-.63-.05-.13,0-.22.09a2.37,2.37,0,0,0-.8.49c0-.08,0-.12,0-.15-.32.15-.61-.12-.92,0v-.08c-.75.63-1.56-.08-2.28.6a10.35,10.35,0,0,0-2.81.19v-.15c-.71.32-1.58-.48-2-.24-.2-.17-.55,0-1.13.24-.33.17-.5.17-.57.09s.1-.42.14-.63c0,0,0,0,0-.06m11.2.7.1.1h0a.93.93,0,0,1-.05-.1m.5,0,.2.1h-.52c-.06-.31.07-.23.32-.1m.54.1h0a.42.42,0,0,0-.07-.11l.08.07v0m0-.3c0,.06,0,.11,0,.17,0-.1-.07-.17,0-.17M95.65,60.88c.25.19.51.38.77.55a1.52,1.52,0,0,1-.77-.55m1,.72.27.15a2.89,2.89,0,0,0-.35-.11Zm2,1.14-.45-.33c.41.19.82.38,1.25.54s.66.21,1,.31a2.31,2.31,0,0,1-1.79-.52m2.14.63a1.06,1.06,0,0,0,.19.06.35.35,0,0,0,0,.11Z"/><path class="cls-3" d="M90.55,38.71h0c0,.05,0,0,0,0"/><path class="cls-3" d="M145.53,38.3c.17-.09-.17-.12-.28-.14.26,0-.08.16.28.14"/><polygon class="cls-3" points="144.74 47.68 144.41 47.84 144.5 47.93 144.74 47.68"/><path class="cls-3" d="M145,47.83c.41.41.72-.81,1-.54,0,0,0-.12-.07-.17Z"/><path class="cls-3" d="M146.26,47.36c.35.17.5-.17.59-.28-.13.26-.67-.08-.59.28"/><path class="cls-3" d="M171,60.94l-1.13-2.07c-.74-1.32-1.52-2.62-2.32-3.91-1.58-2.6-3.21-5.17-4.68-7.84a10.08,10.08,0,0,0-1.75-2.37,3.68,3.68,0,0,0-.69-.6c-.08,0,.06,0,.09-.06l.17-.05.3-.11.26-.1.06,0,.21-.11.42-.25a14,14,0,0,0,3-2.47,11.77,11.77,0,0,0,3-7.06c.07,0,.12,0,.11.16a16.67,16.67,0,0,0,.17-5.79h.07a16.21,16.21,0,0,0-3.14-6.56,11,11,0,0,0-6-3.62,24.46,24.46,0,0,0-8.28-1.56c-2.9-.07-5.8.07-8.62.14v-.15a37.87,37.87,0,0,1-4.39,0l-4.78-.23,0,1.4,0,1.3c0,.77,0,1.55,0,2.32-.24,3.23.26,6.59.44,9.91v3.59c0,.23,0,.46,0,.7a13.17,13.17,0,0,0,0,4.68v4.95c-.91,4.62-.54,9.13,0,13.71v4.7h10.87V57.49a17.35,17.35,0,0,0,.39-3.81l-.19.09c.37-.62-.08-1.32-.2-1.91v-.4a.61.61,0,0,1,.25-.38l0,.1c.21-.25,0-.54-.29-.81V48.26a.74.74,0,0,0,0-.21v-.59a.39.39,0,0,1,.42-.31c0,.33.38-.52.58.22.1-.21.05-1.22-.36-1.13h2.13a4,4,0,0,1,1.94.39,3.2,3.2,0,0,1,1.21,1.28l7.78,13.6A4.17,4.17,0,0,0,162,63.57h1.32l-.34,0a7.34,7.34,0,0,1-3-.17c.07,0,.12-.07.19-.08a1,1,0,0,1-.7-.05c0-.08.11-.07.19-.07-.3-.38-.83-.68-1.27-1.12a2.18,2.18,0,0,1-.77-1.2c-.16-.19-.37-.19-.42,0-1.69-2.72-3.46-5.65-5.38-8.31,0-.17.06-.25.22-.29a17.23,17.23,0,0,1-2.52-3.46c-.67-1.27-1-1.54-2.45-1.62-.1.19.28.2,0,.39a2,2,0,0,0,1,0c.3,0,.51,0,.58.24l-.15.11c.14.28.36-.32.45.14,0,.22-.2.11-.17.18a11.66,11.66,0,0,1,.92,1.46,6.23,6.23,0,0,0,1.21,1.49c-.19.45.67,1.2.58,1.8.3.21.43.52.72.5,1,2,2.2,4,3.39,5.91l.89,1.46.45.74.23.36c.09.14.18.3.29.44a5.16,5.16,0,0,0,3.61,2.06l1-.15a6.11,6.11,0,0,1,.86-.09,13.86,13.86,0,0,1,1.81.06,20.88,20.88,0,0,0,3.8.13.08.08,0,0,1,0,.08l.33-.07.53,0,1.1-.08a22.56,22.56,0,0,1,2.32,0l.24-.12-.71-.78c-.36-.74-.8-1.6-1.3-2.51m-9.8-14.61a7.62,7.62,0,0,0-.87-.92,2.29,2.29,0,0,1,.87.92m-1.17-1.17a2.83,2.83,0,0,0-.28-.2l.4.2Zm.6-2.15a2.5,2.5,0,0,1-.67.39,6.32,6.32,0,0,1-.87.29l-.53.15-.28.08h0a16.23,16.23,0,0,0,2.88-1.47,3.13,3.13,0,0,1-.5.56m-11.87-4.26h-1.66c-.3-.21-.61-.47-.92-.39l0,.19c-.08-.22-.18-.15-.27,0s-.25,0-.36-.07-.06-.07-.08,0-.13,0-.06-.05h-.16l.2.07a2.25,2.25,0,0,0-.09.3h-.7s-.08-.15-.08-.42c.08,0-.12-.38.06-.58-.05-.1-.3,0-.28.36V31.93c.08.26.15.53.21.8,0,0-.11,0-.14,0s.26.1.24.15a.18.18,0,0,1-.15,0c-.44.21.28.61-.06.75a.51.51,0,0,0,.37,0,9.14,9.14,0,0,0,.54,2.39.74.74,0,0,1-.33,0c.71.67.43,1.38.31,2.07.19,0,.2-.07.4,0,.23-.22-.46-.4-.12-.6l.18,0c.11-.14-.46,0-.22-.18s.23,0,.24,0c-.08-.31.09-.64-.35-.93.39-.07,0-.33.39-.45-.16-.08-.12-.16-.38-.19a20.57,20.57,0,0,0-.14-3.31c-.76-.52.14-1.14-.11-1.76h.08a.72.72,0,0,1-.18-.74l-.33-.2a5.1,5.1,0,0,0,.38-2.19V26.49a1,1,0,0,1,.1-.49.59.59,0,0,1,.06-.16c.21.06.38.12.51.17l.17.06c.07,0,.33,0,.48,0a3.9,3.9,0,0,0,2.13-.59c0,.07,0,.12,0,.15.46-.16.86.13,1.29,0v.07a2.27,2.27,0,0,1,1.62-.07,3.6,3.6,0,0,0,1.61.13,7.48,7.48,0,0,1,3.08,2.43l-.14.07a1.93,1.93,0,0,1,.44,1.48,5.74,5.74,0,0,0,0,1.55,3.66,3.66,0,0,0,.12,1.66,3.8,3.8,0,0,1,.06.58c-.06.25-.1.5-.18.73l-.1.24s0,.09-.08.12c-.46.17-.44.56-.49,1a6,6,0,0,1-.75.93,3.11,3.11,0,0,0-1.81.69c-.33.28-.67.63-1,1a11.46,11.46,0,0,1-3.52.49m-4.38-13.9h.17a.11.11,0,0,1-.11.06s0,0-.06,0Zm.37,0s0,0,0,.07l0-.07Zm1.42,0V25l-.06-.11Zm-.18,0c-.18.31-.31.24-.56.11l-.2-.11Zm-.44,13.65,0,0,.31.1a.85.85,0,0,1-.14.17h-.1a.59.59,0,0,1-.09-.25m15.85,3.77.28-.18a.59.59,0,0,0,.08.11Z"/><path class="cls-3" d="M159.69,63.24h0s0,0,0,0"/><polygon class="cls-3" points="188.26 38.03 188.21 38.19 188.23 38.28 188.26 38.03"/><path class="cls-3" d="M188.44,37.64v-.16l-.15.71c.05.4.12-.82.15-.55"/><path class="cls-3" d="M188.58,37.44c0,.26-.1-.08-.1.28.05.16.08-.17.1-.28"/><polygon class="cls-3" points="187.95 28.02 187.75 28.27 188.02 28.11 187.95 28.02"/><path class="cls-3" d="M187.55,28.12c-.35-.39-.55.83-.77.58,0,0,0,.11.07.16.22-.25.46-.5.7-.74"/><path class="cls-3" d="M186.56,28.64c-.29-.15-.39.19-.44.31.08-.26.53,0,.44-.31"/><path class="cls-3" d="M202.89,57.89c-.19-.19-.38-.36-.57-.53-.63-.79-1.29-1.61-1.95-2.45-.17-.19-.31-.42-.54-.64a2.12,2.12,0,0,0-.78-.46,3.19,3.19,0,0,0-1.73-.05,5.53,5.53,0,0,0-1.55.66c-.48.26-1,.54-1.43.78l-1.46.66a6.19,6.19,0,0,1-1.49.54l0-.15a7.34,7.34,0,0,1-4.83-.37,7.66,7.66,0,0,1-3.42-3.12c-.16-.38-.3-.77-.44-1.16l-.38-1.14c-.1-.31-.2-.65-.31-1l-.08-.29,0-.15.12,0,.51-.08c.52-.07,1.2-.15,1.87-.2h2.81l.52,0a7.24,7.24,0,0,0,3.52,0H195a18.38,18.38,0,0,0,6.07.51,2.27,2.27,0,0,0,1.66-.78,2.6,2.6,0,0,0,.41-1.68c0-.34-.06-.67-.1-1s0-.46,0-.74a17.61,17.61,0,0,0-1.11-6.44,13.65,13.65,0,0,0-3.09-4.81,13.07,13.07,0,0,0-2.62-2h0a6,6,0,0,0-2.54-1.56v.2c-.37-.55-1.05-.18-1.52-.21l-.17,0a.41.41,0,0,1-.27-.32l.08,0c-.16-.25-.42,0-.66.18a15.42,15.42,0,0,0-1.54-.19,1,1,0,0,0-.3,0H189c-.17,0-.3-.13-.29-.45.25,0-.39-.39.19-.57-.16-.11-1-.07-.89.34,0,.23-.13.44-.15.65A16.87,16.87,0,0,0,181.16,31a15.39,15.39,0,0,0-8.46,8.81,15.08,15.08,0,0,0-.49,1.48,14,14,0,0,1,.64-2.38c0,.05.07.1.08.16,0-.18-.11-.4,0-.54s.09.09.09.15c.65-.39.65-1.84,1.18-2,.06-.18,0-.35-.21-.34a19.26,19.26,0,0,1,5.35-5.57c.14,0,.21.09.25.24a6.73,6.73,0,0,1,2.94-1.72,14.19,14.19,0,0,1,3.4-.5c.07-.19-.25-.17,0-.39-.77-.16-1.27.62-2,.42l.05-.19c-.51,0,0,.46-.55.35-.23-.11,0-.24-.1-.23a5.9,5.9,0,0,0-2.84,1.34c-.38-.26-1,.47-1.51.33-.16.27-.42.37-.37.65a12.63,12.63,0,0,0-4.14,3.56,18.93,18.93,0,0,0-2.64,4.83,7.49,7.49,0,0,1-.55,2.71,7.66,7.66,0,0,0-.52,2.94.08.08,0,0,1-.08,0,8.71,8.71,0,0,1,.18,2.37l.36.63a14.31,14.31,0,0,0,1.27,6.9,18.65,18.65,0,0,0,4.17,5.85,14.79,14.79,0,0,0,14.55,3.69c0,.07,0,.11-.09.15a16.83,16.83,0,0,0,4.24-.78V64a45.08,45.08,0,0,0,4.82-2.52,11.82,11.82,0,0,0,3.15-3c.15-.1,0-.2-.11-.3Zm-21.06-15.8c.48-.4.29-.48.15-.72.08-.28.19-.53.29-.79,1.08-.34,1-1,1.1-1.91a5.54,5.54,0,0,1,.37-.45,5.37,5.37,0,0,1,2.65-1.41c.24.16.49.34.65.25l0-.19c.13.34.2,0,.27-.21h.1a1.06,1.06,0,0,1,.06.22v0c.05.21.08,0,.11-.27.16,0,.32,0,.49,0a1.11,1.11,0,0,1,0,.4s.08.38,0,.58.18,0,.16-.36c0-.23,0-.44,0-.64a6.35,6.35,0,0,1,2.71.55,5.18,5.18,0,0,1,1.42,1l-.45-.17a.48.48,0,0,1,.11-.09c-.09.05-.22.16-.23.12a.29.29,0,0,1,.11-.11c.15-.44-.49,0-.37-.34a.73.73,0,0,0-.23.29,2,2,0,0,0-1.49-.08,1.09,1.09,0,0,1,.06-.33c-.55.6-.84.27-1.27.13,0,.19,0,.2,0,.4.11.24.27-.45.35-.1l0,.18c.07.13.07-.45.13-.21a.83.83,0,0,1,0,.24c.19-.05.32.14.56-.26,0,.39.18.06.14.44.08-.14.11-.09.2-.34.45.35,1.17.32,1.63.76.36-.19.47,0,.51.16s0,.43.21.51l-.06,0c.21,0,.39.1.37.27l.34,0A3.37,3.37,0,0,0,193,41c.06.24.15.55,0,.7s-.53-.05-.64-.05-.12,0-.21.09a2.27,2.27,0,0,0-.8.49c0-.08,0-.12,0-.15-.32.15-.62-.12-.92,0v-.08c-.75.63-1.56-.08-2.29.6a10.37,10.37,0,0,0-2.81.19v-.15c-.7.32-1.58-.48-2-.24-.19-.17-.54,0-1.13.24-.32.17-.49.17-.56.09s.09-.42.14-.63a.21.21,0,0,1,0-.06m11.19.7.1.1h0s0-.06-.06-.1m.51,0,.19.1h-.51c-.06-.31.07-.23.32-.1m.54.1h0a.42.42,0,0,0-.07-.11l.07.07s0,0,0,0m0-.3c0,.06,0,.11,0,.17-.06-.1-.07-.17,0-.17m-16,18.29c.26.19.51.38.78.55a1.55,1.55,0,0,1-.78-.55m1.05.72.27.15-.35-.11Zm1.94,1.14-.44-.33c.4.19.81.38,1.24.54s.66.21,1,.31a2.33,2.33,0,0,1-1.79-.52m2.14.63.19.06s0,.06,0,.11Z"/><path class="cls-3" d="M173,38.71h0c0,.05,0,0,0,0"/><polygon class="cls-3" points="222.5 38.65 222.43 38.8 222.45 38.9 222.5 38.65"/><path class="cls-3" d="M222.78,38.26s0-.11,0-.16c-.08.23-.16.46-.23.7.06.4.19-.81.24-.54"/><path class="cls-3" d="M223,38.08c-.06.25-.14-.1-.16.26.06.17.12-.15.16-.26"/><polygon class="cls-3" points="206.23 75.85 206.41 75.6 206.16 75.76 206.23 75.85"/><path class="cls-3" d="M206.6,75.75c.31.4.54-.82.74-.55,0,0,0-.12-.05-.16Z"/><path class="cls-3" d="M207.55,75.27c.27.17.38-.16.44-.27-.09.25-.5-.09-.44.27"/><path class="cls-3" d="M216.28,65.61v0s0,0,0,0"/><polygon class="cls-3" points="255.6 55 255.54 55.25 255.62 55.09 255.6 55"/><path class="cls-3" d="M255.49,55.09c-.09-.4-.2.82-.26.54,0,0,0,.12,0,.17Z"/><path class="cls-3" d="M255.17,55.56c-.08-.17-.14.16-.17.27.05-.26.17.09.17-.27"/><polygon class="cls-3" points="255.56 28.02 255.42 28.27 255.62 28.11 255.56 28.02"/><path class="cls-3" d="M255.27,28.12c-.25-.4-.4.82-.57.56,0,0,0,.12.05.16Z"/><path class="cls-3" d="M254.54,28.61c-.22-.15-.29.18-.33.3.06-.26.39.06.33-.3"/><path class="cls-3" d="M272.38,41.14a10,10,0,0,0-1.62-2.8,14.88,14.88,0,0,0-2.87-4,15.13,15.13,0,0,0-5.36-3.41c-.21-.08-.44-.14-.66-.22h0a4.52,4.52,0,0,0-2-1l0,.2c-.31-.47-.81,0-1.16,0l-.12,0c-.09,0-.17-.11-.22-.29l.06,0c-.12-.23-.32,0-.49.25-.36,0-.72-.06-1.09-.08a.58.58,0,0,0-.35,0h-.12c-.12,0-.22-.11-.22-.45.19,0-.3-.38.14-.57-.12-.11-.72-.06-.66.35,0,.23-.09.44-.11.64a19.42,19.42,0,0,0-6.85,1.19,15.52,15.52,0,0,0-5.41,3.41,14.51,14.51,0,0,0-1.52,1.79,12.23,12.23,0,0,1,1.1-1.66c0,.05,0,.11,0,.16,0-.15,0-.35.09-.43s.06.12,0,.16c.63,0,.86-1.18,1.33-1.11a.26.26,0,0,0-.13-.36A24.54,24.54,0,0,1,249,29.7c.1,0,.16.13.18.29,1.34-1.19,3.19-1.24,4.83-1.22.06-.19-.18-.19,0-.39-.56-.2-.94.54-1.47.26l0-.19c-.37-.06,0,.46-.41.28-.17-.12,0-.23-.07-.23a4,4,0,0,0-2.17.81c-.28-.33-.79.21-1.18,0-.14.21-.35.25-.33.52a14.64,14.64,0,0,0-6.64,4.64,3.76,3.76,0,0,1-1.07,1.79,5,5,0,0,0-1.22,1.87.08.08,0,0,1-.07,0,4.82,4.82,0,0,1-.53,1.72l.14.57a8.87,8.87,0,0,0-.62,1.41c-.55-1.63-1-3.3-1.67-4.91a9.34,9.34,0,0,0-3.15-4.25,10.15,10.15,0,0,0-5.59-3,12.58,12.58,0,0,0-6.48.68l0-.14a28.73,28.73,0,0,0-3.28,1.65,14.25,14.25,0,0,0-2.41,1.73c-.07.12-.08,0-.1-.12l-.07-.27-.14-.5a8.38,8.38,0,0,0-.35-1,2.4,2.4,0,0,0-.7-1.16,2.55,2.55,0,0,0-1.24-.59,10.52,10.52,0,0,0-2.42.11c-.94.11-1.91.21-2.85.28h-1.77v1.1c0,.13,0,.26,0,.4a7.28,7.28,0,0,0,0,3.53V39c-.92,3.48-.55,6.88,0,10.34V65.66a10.1,10.1,0,0,0-.39,2.88l.19-.07c-.37.47.08,1,.2,1.44v.31a.47.47,0,0,1-.25.28l0-.08c-.21.19,0,.42.29.62v1.59a.85.85,0,0,0,0,.16v.45c0,.12-.15.22-.42.23,0-.25-.38.39-.58-.17-.1.16,0,.92.36.85s.75.31,1.06,0h9.55V62.83l0,.38c.06.7.11,1.41.17,2.13,0,0-.1-.06-.13-.11.09.15.26.31.23.48s-.12,0-.15-.1c-.43.65.28,1.91-.06,2.31a.24.24,0,0,0,.37.17c0,1,.1,2,.15,3,.07,1.29.15,2.6.23,3.89l-2,.17a.25.25,0,0,1-.21-.33l-.28.06-.2.06-.4.1c-.26.06-.53.11-.8.15a12.32,12.32,0,0,1-1.61.1c-1.08,0-2.17-.1-3.25-.16-.08.19.22.2,0,.4.69.23,1.27-.46,1.9-.12l-.08.18c.45.12.09-.46.56-.22.19.15,0,.23,0,.24a7.61,7.61,0,0,0,2.89-.35c.28.39.85,0,1.82.39.42-.16.89-.12.89-.38l1.08,0,0-2V71.75c0-.8,0-1.61-.07-2.42-.06-1.6-.14-3.28-.13-4.84a1.43,1.43,0,0,1-.31-1,2.81,2.81,0,0,1,0-.45c.05-.08,0-.34.22-.06a2,2,0,0,0,.88.67.19.19,0,0,1,0,.08.67.67,0,0,1,.25,0l.57.2c.4.14.84.3,1.22.46.25,0,.49-.09.73-.15a11.62,11.62,0,0,0,7.1.1,15.58,15.58,0,0,0,6.2-3.81,17.42,17.42,0,0,0,4.16-6.71c.07-.2.12-.4.18-.6a14.21,14.21,0,0,0,1.11,3.13,9.22,9.22,0,0,0,4,4.2c0,.05,0,.1-.15.06A15.47,15.47,0,0,0,246,62.47l0,.06c1.31.39,2.54.93,3.84,1.33a8.46,8.46,0,0,0,3.9.4,17.26,17.26,0,0,0,9.36-1.53l.05.14c1.11-.65,2.25-1.15,3.35-1.8a8.69,8.69,0,0,0,2.85-2.55,7.79,7.79,0,0,0,1.88-3.58c.16-.57.29-1.13.42-1.7a16.61,16.61,0,0,0,.46-1.65l.17-.51a3.56,3.56,0,0,0,.3-2.65c0-.53.06-1.06.06-1.61,0-.36,0-.7,0-1a7.19,7.19,0,0,0-.18-4.63m-23.2,1.59c.32.35,0,.58-.15.84q.06-.43.15-.84m1.12,10.69a.17.17,0,0,1-.15,0c-.28.43.58.46.37.76.08,0,.25-.06.34-.16A2.9,2.9,0,0,0,253,55.16a.64.64,0,0,1-.11.32c.88-.38,1.37,0,2.09.19,0-.18,0-.2,0-.39-.18-.25-.45.42-.59,0l.05-.18c-.11-.13-.1.45-.21.19s.06-.22,0-.24c-.3,0-.52-.21-.91.11.08-.39-.28-.13-.21-.51-.13.1-.17,0-.32.26-.38-.33-.77-.58-1.15-.92a3.62,3.62,0,0,1-1-1.3c-.92-.22-.28-1.16-.66-1.72l.08,0a.79.79,0,0,1-.33-.74l-.35-.18c.42-1.66-.06-3.29.31-4.92.17-.91.46-1.73.68-2.5a8,8,0,0,0,.34-2.48c.06,0,.1,0,.11.1.12-.5.59-.66.78-1.07l.05.06A1.85,1.85,0,0,1,253,38.13a6.29,6.29,0,0,0,1.66-.72,9.27,9.27,0,0,1,4.5.66l-.09.13a2.2,2.2,0,0,1,1.23,1.27,10.09,10.09,0,0,0,.71,1.61,4.8,4.8,0,0,0,.76,1.77,5.4,5.4,0,0,1,.33.74c0,.32.09.64.12,1a1.52,1.52,0,0,1,0,.21c-.32.41-.11.85.11,1.29,0,.27,0,.54,0,.82s0,.38,0,.57c-.94,1.26-.66,2.43-.41,3.79a8.79,8.79,0,0,1-1.21,3,5.13,5.13,0,0,1-2,1.8,2,2,0,0,0-1.1,0l.08.17c-.24-.31-.34.17-.46.32h-.12s-.08-.08-.14-.22l0,0c-.09-.2-.13.06-.18.31-.19,0-.39,0-.6.06h-.22a.81.81,0,0,1-.08-.41c.09,0-.14-.38,0-.59-.05-.09-.3,0-.28.37,0,.23-.05.44-.05.64a5.78,5.78,0,0,1-5.13-2.43,7.55,7.55,0,0,1-.82-1.66c.18.26.35.51.53.75,0,0-.1,0-.14,0,.11,0,.29,0,.29.05m-1-10.89-.12,0a.14.14,0,0,1,0-.07.25.25,0,0,0,.1,0m-.37,1.6a.54.54,0,0,0,0,.11l-.06,0a.28.28,0,0,1,0-.09m-.06.52,0-.3c0,.12,0,.23,0,.3m-22,7.34.11,0s0,0,0,.06l-.09,0m.55-2a2.7,2.7,0,0,1,0,.28.25.25,0,0,1,0-.28m-.12.39.06,0a.24.24,0,0,0,0,.08s0-.07,0-.11m-.14,1c0,.17-.09.33-.14.49-.28-.36,0-.56.21-.79,0,.1,0,.2-.07.3m-11.09-5.65c.91-1.25.54-2.48,0-3.72v-1.6A14.18,14.18,0,0,1,217.42,39a5.75,5.75,0,0,1,1.39-1,5.92,5.92,0,0,1,.64-.28c.39.07.77.21,1.07.06l-.07-.17c.21.3.32-.12.44-.28l.15,0a.72.72,0,0,1,.11.22l0,0c.09.21.14,0,.18-.3.26,0,.53,0,.81-.05a.69.69,0,0,1,.07.4c-.08,0,.14.38,0,.59.06.09.3,0,.28-.37,0-.23,0-.44,0-.63a4.84,4.84,0,0,1,2.11.47,4.26,4.26,0,0,1,1.65,1.6,9.08,9.08,0,0,1,1.08,2.9l-.42-.83H227c-.1,0-.28,0-.27-.09a.2.2,0,0,1,.15,0c.35-.36-.47-.56-.21-.8a.44.44,0,0,0-.36.08,3,3,0,0,0-1.7-1.6.62.62,0,0,1,.19-.28,1.66,1.66,0,0,1-1,0c-.27-.11-.52-.28-.83-.38,0,.18,0,.21-.05.39.13.25.43-.39.51,0l-.07.16c.07.15.15-.43.2-.17s-.08.22-.07.24c.27,0,.39.24.79,0-.18.35.2.16,0,.51.15-.08.16,0,.36-.18a8.45,8.45,0,0,1,1.52,2.7c.88.37.12,1.2.44,1.8h-.08a.77.77,0,0,1,.26.77l.34.2c-.56,1.61-.1,3.24-.56,4.79a18.57,18.57,0,0,1-.82,2.36,7.59,7.59,0,0,0-.51,2.37c-.06,0-.1-.06-.1-.11-.16.47-.64.59-.85,1l0-.06a1.74,1.74,0,0,1-1.3,1,6.26,6.26,0,0,0-1.66.56,9,9,0,0,1-4.27-1.18l.1-.12c-1.51-.52-.28-1.89-.6-3.08.24-.87-.27-1.78-.44-2.68v-1a1.62,1.62,0,0,1,0-.19c.36-.38.16-.83,0-1.27ZM234.1,59c.19-.25.37-.51.55-.76a1.65,1.65,0,0,1-.55.76m.72-1a1.43,1.43,0,0,1,.14-.2,2.33,2.33,0,0,0-.11.28Zm1.22-1.9-.32.39a19.93,19.93,0,0,0,.94-2.15,2.33,2.33,0,0,1-.62,1.76m.75-2.11c0-.06.05-.12.07-.19l.11,0ZM239,51.35c.06.24.1.48.16.72a1,1,0,0,1-.16-.72m.21.93c0,.06,0,.12.05.18a1.13,1.13,0,0,0-.13-.2Zm.37,1.16c.07.19.12.38.19.57.15.39.32.75.5,1.12-.66-.4-.62-1-.69-1.69m.8,2,.06.13s-.06,0-.09,0Z"/><path class="cls-3" d="M243,34.33a0,0,0,0,1,0,0s0,0,0,0"/><polygon class="cls-3" points="275.55 65.27 275.69 65.02 275.49 65.18 275.55 65.27"/><path class="cls-3" d="M275.83,65.17c.24.4.42-.82.57-.55,0,0,0-.12,0-.16Z"/><path class="cls-3" d="M276.56,64.69c.21.17.3-.16.34-.28-.07.26-.38-.08-.34.28"/><polygon class="cls-3" points="311.26 65.78 311.44 65.53 311.19 65.69 311.26 65.78"/><path class="cls-3" d="M311.64,65.68c.33.39.51-.84.72-.58,0,0,0-.12-.06-.16-.21.25-.43.49-.66.74"/><path class="cls-3" d="M312.57,65.16c.28.14.37-.2.42-.32-.07.27-.5,0-.42.32"/><path class="cls-3" d="M320.21,58.54l-.69-1-.7-1a13.71,13.71,0,0,0-.87-1.18,2.19,2.19,0,0,0-1.67-.76,2.25,2.25,0,0,0-.93.16,4.39,4.39,0,0,0-.44.21,1.65,1.65,0,0,1-.29.13,1.42,1.42,0,0,1-.33.36.8.8,0,0,1-.42.17,1.24,1.24,0,0,1-.9-.15,2.77,2.77,0,0,1-.7-1.59h.08a4.62,4.62,0,0,1-.19-2.08l-.32-.6a42.58,42.58,0,0,0,.38-6.39V41.6l0-1.61,0-.81,0-.39,0-.18c0-.18,0-.36.05-.52l.46,0,.21,0h.17l.26,0,2,.1,2,.05H319l1.7,0c0-.65-.05-1.29-.07-1.94l-.05-.94-.06-.57c-.09-.76-.21-1.52-.37-2.29.07,0,.11,0,.14.09,0-.21,0-.41,0-.61v-.84c0-.58,0-1.16,0-1.74a21.4,21.4,0,0,0-2.26,0v-.07l-.89.13-.81.08c-.55.05-1.1.06-1.65.07H312c0-.36,0-.7-.08-1.08a14.59,14.59,0,0,0-.24-1.55c0-1,0-2.09,0-3.19s0-2.37,0-3.61c-2.15,0-3.81.09-5.67.2v-.16a2.34,2.34,0,0,0-2,1.37L303.23,24A29.43,29.43,0,0,0,302,28.52a9.27,9.27,0,0,0-.37,1.27l-1,.27-1.3.4-1.19.38,0-.29c0-.05,0-.11,0-.15l-.13-.1c-.18-.14-.36-.26-.54-.38a4.35,4.35,0,0,0-1.18-.52,4.2,4.2,0,0,0-2.08-.06,8.05,8.05,0,0,0-4.77,1.24,11.74,11.74,0,0,0-2,1.61A13.11,13.11,0,0,0,286,34.06v-.22c-.31.5-.64,1-.92,1.38l-.09.13s0-.11,0-.16l-.05-.39-.07-.76-.1-1.39a3.44,3.44,0,0,0-.06-.58c-.06-.25-.11-.52-.19-.79A2,2,0,0,0,283.09,30a3.67,3.67,0,0,0-2-.28c-.62,0-1.25.13-1.87.22s-1.31.19-2,.25h-1.79v.43c0,.1,0,.21,0,.31a4.58,4.58,0,0,0,0,2.74v2.87c-.91,2.67-.54,5.28,0,7.94V57.05a5.88,5.88,0,0,0-.38,2.21l.19,0c-.38.36.07.77.19,1.1v.24a.38.38,0,0,1-.24.22l0-.06c-.22.15,0,.31.28.47v1.69c0,.1-.14.17-.42.18,0-.19-.37.3-.57-.13-.1.12-.06.71.35.65s.73.21,1,0h9.57V57.2q.12.94.21,1.92s-.11,0-.14-.09.26.24.24.37-.12,0-.15-.08c-.44.5.28,1.47-.06,1.78a.26.26,0,0,0,.37.13c.05,1,.09,1.94.14,3l-2.29.16c-.57.06-1.14.14-1.69.24-.09-.06-.11-.18-.08-.33-1.62.71-3.31.43-5,.31-.06.19.17.2,0,.4.53.23,1-.46,1.45-.12l-.06.18c.35.12.07-.46.43-.22.14.15,0,.23,0,.24a4.58,4.58,0,0,0,2.22-.35c.18.39.8,0,1.08.39.19-.16.38-.12.46-.38l.69,0,.9,0h2.38c0-1.42-.08-3.13-.12-3.74,0-.85-.08-1.71-.07-2.58-.76-1.24.15-2.74-.11-4.22h.08a3.6,3.6,0,0,1-.18-1.77l-.33-.48a28.88,28.88,0,0,0,.39-5.25V43.48a.5.5,0,0,1,.12-.33l.31-.44c.12-.17.26-.32.38-.47a5.54,5.54,0,0,1,3.77-2c.67-.08,1.42.06,2.17,0a5.88,5.88,0,0,1,.68,0h.76a2.62,2.62,0,0,0,1.83-.59,2,2,0,0,0,.61-1.37c.07,0,.12,0,.11.16,0-.2.07-.43.09-.58l.06-.41c0-.24.1-.48.15-.72a1.72,1.72,0,0,0,.52.19,1.89,1.89,0,0,0,.72.14h2.83c-.92,3.24-.54,6.42,0,9.65v7.57a11.85,11.85,0,0,0,.65,4,8.18,8.18,0,0,0,1.88,3.07h0a4.43,4.43,0,0,0,2,1.91l0-.2c.18.41.63.39,1,.36a1.69,1.69,0,0,1,.39,0l.18.06a.4.4,0,0,1,.22.33l-.08,0c.13.27.4.06.64-.14a11.55,11.55,0,0,0,1.39.22.49.49,0,0,0,.25,0l.36,0c.14,0,.24.14.23.44-.24,0,.37.39-.19.57.16.11.92.07.85-.34,0-.23.12-.45.14-.65a17.2,17.2,0,0,0,4.85-.72,13.71,13.71,0,0,0,4.34-2.17l-3-4.72a2.59,2.59,0,0,0-.56-.66,1.14,1.14,0,0,0-.72-.21,1.45,1.45,0,0,0-.57.11l-.51.26a3.89,3.89,0,0,1-.64.25,3.07,3.07,0,0,1-.92.12h0l.27,0a2.6,2.6,0,0,0,1-.34c.3-.12.61-.38,1-.53,0,0,0,.13-.08.17.11-.14.28-.34.47-.32s-.06.12-.11.16c.31.18.76.17,1.11.46s.65.6.61.83a.24.24,0,0,0,.39-.07l2,2.85.72,1,.36.53.18.27,0,.07s0,0,0,.05l-.11.09a24.14,24.14,0,0,1-2,1.56c-.13,0-.21-.1-.25-.24-1.52,1.63-3.87,2-6,2.1-.06.2.24.18.05.39.73.16,1.19-.62,1.86-.42l0,.2c.48,0,0-.47.51-.34.22.1,0,.23.09.22a5.47,5.47,0,0,0,2.67-1.26c.39.26.93-.42,1.49-.32.29-.34.67-.54.6-.8.56-.34,1.09-.72,1.64-1.11-.31-.56-.62-1.12-1-1.7Zm-8.79-21.39a.18.18,0,0,1,0,.11v-.15H312a1.72,1.72,0,0,1-.6,0m.93,0,0-.06h.25l-.27.06m1.66-.06h2.18a3,3,0,0,1-2.18,0m2.57,0h.17a.33.33,0,0,0,0,.1ZM287,41a5.81,5.81,0,0,1,.43-.43A1.46,1.46,0,0,1,287,41m.65-.6.13-.11a1,1,0,0,0-.12.17Zm1.14-.76a6.35,6.35,0,0,1,1.66-.55,2,2,0,0,1-1.29.49,2.38,2.38,0,0,0-.37.06m2-.6h.15v.09l-.15-.08"/><path class="cls-3" d="M316.07,55.45h0s0,0,0,0"/><path class="cls-3" d="M364,49.85l-.16-.09a4,4,0,0,0-.39.29,3.62,3.62,0,0,1,.55-.2"/><path class="cls-3" d="M361.91,51.13c.08,0,.1.08.17.08A3.12,3.12,0,0,1,363,50a.61.61,0,0,0-.72.54c-.09.32-.11.61-.34.6"/><path class="cls-3" d="M361.58,51.26c-.45.13-.28.45-.29.6-.09-.27.55-.36.29-.6"/><path class="cls-3" d="M342.89,48.48a0,0,0,0,1,0,0c-.05,0,0,0,0,0"/><polygon class="cls-3" points="383.73 55.8 383.7 56.05 383.74 55.89 383.73 55.8"/><path class="cls-3" d="M383.54,56.44v.17l.13-.71c0-.4-.1.81-.13.54"/><path class="cls-3" d="M383.41,56.65c0-.26.09.08.09-.28,0-.17-.07.16-.09.28"/><polygon class="cls-3" points="395.26 65.27 395.44 65.02 395.19 65.18 395.26 65.27"/><path class="cls-3" d="M395.62,65.17c.31.4.54-.82.75-.55,0,0,0-.12-.06-.16Z"/><path class="cls-3" d="M396.57,64.69c.27.17.38-.16.44-.28-.09.26-.5-.08-.44.28"/><path class="cls-3" d="M401.26,59.47c-.15-.25-.11-.5-.37-.6.21-3.36-.17-6.8-.14-10.25-.76-1.61.14-3.54-.11-5.46h.07a9.55,9.55,0,0,1-.28-2.36l-.41-.61a10.73,10.73,0,0,0-2.41-6.62,13.94,13.94,0,0,0-5.93-4.16,17.79,17.79,0,0,0-7.76-.92A14.29,14.29,0,0,0,376.73,31c0-.07-.08-.09,0-.17a19.8,19.8,0,0,0-3.68,2.23l0-.07-.23.25-.32.31-.63.62-.31.3-.15.15-.08.08.06.09.47.77.79,1.33.66,1.14a4.33,4.33,0,0,0,.87,1.18,3.26,3.26,0,0,0,1.29.79,3.83,3.83,0,0,0,2.73-.22,6.91,6.91,0,0,0,1.45-.6c.46-.23.93-.49,1.4-.68l1.43-.62a5.78,5.78,0,0,1,1.5-.37,8,8,0,0,1,3.13.09,3.65,3.65,0,0,1,2.33,1.91l-.14.06a7.32,7.32,0,0,1,.47,4.35,18.28,18.28,0,0,0-5,.09,13.33,13.33,0,0,0-5.2,1.29c-.64.28-1.26.59-1.89.89a16.53,16.53,0,0,0-2.42,1.18l-.5.25a4.46,4.46,0,0,0-2.6,2.42v0a6.85,6.85,0,0,0-.71,1.13,9.28,9.28,0,0,0-.73,2.13,6.13,6.13,0,0,0-.59,3v.09c-.07-.08-.17-.16-.23-.24a.86.86,0,0,1-.14.13c0-.46-.78-.95-1.17-1.13a3.64,3.64,0,0,1-.39-.23l-.28-.3a.63.63,0,0,1-.08-.44l.1.05c0-.33-.41-.37-.77-.4l-1.46-1.54-.15-.15-.09-.1a2.44,2.44,0,0,0-.37-.3.48.48,0,0,1-.08-.53c.18.09.09-.06,0-.22s0-.33.52-.14a1.69,1.69,0,0,0-.95-.39c-.4,0-.74.1-.67.3s-.17.46-.19.66a2.19,2.19,0,0,0-.74.19,3.44,3.44,0,0,0-.83.53,14.09,14.09,0,0,1-1.92,1.4A10.66,10.66,0,0,1,356,55a22.28,22.28,0,0,1-2.7.15,11.74,11.74,0,0,1-4.83-1,11.26,11.26,0,0,1-3.94-2.91,14.15,14.15,0,0,1-2.66-4.71,12.8,12.8,0,0,1-.45-1.56,17.89,17.89,0,0,0,1.33,3.17s-.13,0-.18-.07c.16.14.41.26.49.46s-.14,0-.19-.05a2.5,2.5,0,0,0,.77,1.46c.41.45.82.81.87,1.12.19.15.4.1.41-.09a10,10,0,0,0,8.48,3.16c.15.06.18.17.14.33,1.35-.45,2.72-.52,3.94-.91A11.07,11.07,0,0,0,361,51.89c0-.21-.34,0-.25-.31-.78.32-1,1.27-1.83,1.3v-.21c-.52.12.1.47-.5.48-.26-.06,0-.24-.14-.21-1,.48-2.15.56-3.3,1-.31-.38-1.32.07-1.77-.3-.3.16-.59.1-.73.35a12,12,0,0,1-5.69-2.16,11.17,11.17,0,0,1-3.77-5,5.25,5.25,0,0,1-1.11-3.15c-.1-1.2,0-2.44-.13-3.68a0,0,0,0,1,.07,0,6.66,6.66,0,0,1,.05-2.94c-.06-.29-.12-.57-.17-.87a16.25,16.25,0,0,1,4.44-7.31,11.15,11.15,0,0,1,7.92-2.74,12.65,12.65,0,0,1,3,.38,12.06,12.06,0,0,1,2.66,1l.6.32.64.42.64.43.73.44a3.86,3.86,0,0,0,2,.67,4.46,4.46,0,0,0,1.08-.09,3,3,0,0,0,1.17-.54,5.52,5.52,0,0,0,.81-.79l.18-.22.16-.22.25-.37,1-1.5c.32-.51.64-1,.95-1.56l.25-.42.35-.57c.24-.38.43-.74.62-1.08.08,0,.18-.06.07.14l.14-.21-.19-.19-.38-.37-.74-.7-.64-.58-.55-.47a10.87,10.87,0,0,0-2.4-1.56l0-.06a42,42,0,0,0-6.86-2.25,17.06,17.06,0,0,0-7-.19,25,25,0,0,0-8.3,1.7,21.69,21.69,0,0,0-7.29,4.71l-.09-.12a37.06,37.06,0,0,0-4.3,5.25,17.37,17.37,0,0,0-2.65,6.27,17.39,17.39,0,0,0-.46,7.19c.11,1,.28,2,.46,3a27.78,27.78,0,0,0,.64,3.48c0,.18.07.36.11.53a8.84,8.84,0,0,0,1.79,4.45l.06.08a21.16,21.16,0,0,0,2.55,3.86,13,13,0,0,0,6.15,5.6,17.19,17.19,0,0,0,5.71,1.47,25.89,25.89,0,0,0,5.55.58,24.87,24.87,0,0,0,10.08-1.88,18,18,0,0,0,4.63-3l.11-.06A13.42,13.42,0,0,0,369,58a11.72,11.72,0,0,0,.85-.87l.28-.35a6.93,6.93,0,0,0,.81,2.7,6.79,6.79,0,0,0,3.22,3,9.45,9.45,0,0,0,2.24,1.06,13.55,13.55,0,0,0,4.15.6,15.52,15.52,0,0,0,3.1-.28,11.79,11.79,0,0,0,2.64-.83,15.12,15.12,0,0,0,2.4-1.37l.74-.54c.38-.18.72-.31,1-.43a4.64,4.64,0,0,0,.44-.23l0,0a.33.33,0,0,1,0,.06l0,.14.12.25.08-.3c-.05.64.15.64.42.86a2.13,2.13,0,0,1,.21.22l.12.25a.49.49,0,0,1-.1.4l-.06-.06c-.1.28.25.38.56.39h0a2.05,2.05,0,0,0,.66.6,3.67,3.67,0,0,0,.59.21.77.77,0,0,0,.23.06l.38,0c.14.05.24.16.23.46-.27,0,.4.41-.24.56.18.13,1,.1.95-.32,0-.23.13-.44.15-.64h4.42V47c.08.82.15,1.64.2,2.48,0,0-.1-.06-.13-.11.09.15.26.31.24.48s-.13,0-.15-.1c-.44.64.28,1.9-.06,2.3a.24.24,0,0,0,.37.16c.11,2.39.19,5,.54,7.39-.06.12-.18.14-.34.11a8.46,8.46,0,0,1,.41,1.91l0,.24,0,.4,0,.81v1.62c-1.42,0-3.08-.1-3.69-.15-.08.19.22.2,0,.4a1,1,0,0,0,.5,0l.23-.06a1.63,1.63,0,0,1,.31-.07,3.19,3.19,0,0,1,1.6,0l0,.18c.92.12-.14-.46.84-.22.47.15.13.23.29.24h.28c0-.85,0-1.72,0-2.57l0-.61c0-.11,0-.23,0-.34a2.88,2.88,0,0,0-.23-.66c.4-.22,0-1,.39-1.38M356.68,25.36a3.38,3.38,0,0,1-1-.13c.34,0,.65.08,1,.13m.61.09.45.11a4.34,4.34,0,0,0-.53,0Zm2.8,1.05-.57-.4a10.38,10.38,0,0,1,1.53.76l1.19.75a6.19,6.19,0,0,1-2.15-1.11m2.64,1.4.21.12a.26.26,0,0,0-.05.09Zm19.68,23.38,0,.08-.07-.07Zm-.11,0c0,.41-.2.27-.41.21l.18-.1.23-.11m-1.67,4.73-.13.05c.1,0,.26-.08.25,0a.36.36,0,0,1-.13.06c-.08.09-.09.14-.07.17a2.39,2.39,0,0,1-.27-.58,2.77,2.77,0,0,0,.35.34m-.08.25c.07.09.43,0,.28.2.05,0,.19-.12.28-.23a1.27,1.27,0,0,0,1.22,0,1.63,1.63,0,0,1-.07.33c.5-.6.74-.29,1.13-.15a2.71,2.71,0,0,1,0-.4c-.09-.24-.23.45-.31.1l0-.18c-.06-.12-.06.45-.11.21a1.35,1.35,0,0,1,0-.24c-.16.06-.27-.13-.49.27,0-.39-.15,0-.1-.42a1.5,1.5,0,0,0-.18.33c-.39-.35-.81-.17-1-.59-.39.07-.41-.1-.35-.26s.2-.33.06-.47h.07c-.19-.07-.29-.23-.2-.37l-.32-.11a3.27,3.27,0,0,0,.59-1,1.08,1.08,0,0,1,.66-.69c.79-.36,1.62-.09,2.25-1.31,0,.07,0,.11,0,.15.22-.23.53,0,.75-.23l0,.07c.52-.77,1.32-.17,1.88-.91a11.07,11.07,0,0,0,1.24-.1,12.26,12.26,0,0,0,1.24-.24l-.08.15a.93.93,0,0,1,.5-.07c.12,0,.27,0,.14.3s-.27.68-.15.87a.42.42,0,0,0,0,.39,4.44,4.44,0,0,0,.27.53,2.67,2.67,0,0,1,.2.42v.54s0,.07,0,.1c-.37.21-.17.46,0,.7v.57l-.12.11c-1.14-.14-1.32.5-1.56,1.33a6.81,6.81,0,0,1-2.95,1.28c-.22-.18-.45-.39-.61-.3l0,.18c-.12-.35-.18.09-.26.23h-.06a1,1,0,0,1-.07-.24v0c0-.21-.07,0-.1.29l-.44,0a1.49,1.49,0,0,1-.05-.42c.05,0-.07-.37,0-.58s-.17-.05-.16.37c0,.22,0,.43,0,.63A4.5,4.5,0,0,1,381,56.8a2.19,2.19,0,0,1-.46-.5m.85-4.46.13-.09c0,.08-.06.12-.13.09m.19-.13,0,0s0,0,0,.09Zm7.79-21.91a1.63,1.63,0,0,1,.92.19c-.3-.07-.6-.14-.92-.19m-.32,0-.29,0,.36,0Zm-2.22-.28.57.13c-.24,0-.47,0-.71,0-.57,0-1.14,0-1.7.07a2.33,2.33,0,0,1,1.84-.17m-2.23.18-.18,0a.26.26,0,0,0,0-.12Z"/><path class="cls-3" d="M399.92,49.77a0,0,0,0,1,0,0s0,0,0,0"/><polygon class="cls-3" points="404.31 65.27 404.45 65.02 404.26 65.18 404.31 65.27"/><path class="cls-3" d="M404.59,65.17c.24.4.42-.82.58-.55,0,0,0-.12,0-.16Z"/><path class="cls-3" d="M405.33,64.69c.2.17.29-.16.34-.28-.07.26-.39-.08-.34.28"/><path class="cls-3" d="M426,37.5c.05-.27.11-.53.17-.79a8.07,8.07,0,0,0,.26-1.56l.07,0a10.48,10.48,0,0,1,.09-2c0-.34.1-.67.15-1s.17-.86.22-1.26l0-.33a.81.81,0,0,0,0-.15l-.14-.1a6.42,6.42,0,0,0-.53-.38,4.48,4.48,0,0,0-1.18-.52,4.21,4.21,0,0,0-2.08-.06,8.05,8.05,0,0,0-4.77,1.24,11.81,11.81,0,0,0-2,1.61,14.59,14.59,0,0,0-1.56,1.87v-.22c-.31.5-.63,1-.91,1.38l-.09.13s0-.11,0-.16l-.05-.39-.07-.76-.1-1.39a4.85,4.85,0,0,0-.07-.58c-.05-.25-.11-.52-.18-.79A2,2,0,0,0,411.86,30a3.67,3.67,0,0,0-2-.28c-.62,0-1.25.13-1.88.22s-1.31.19-1.95.25h-1.79v.43c0,.1,0,.21,0,.31a4.43,4.43,0,0,0,0,2.74v2.87c-.91,2.67-.55,5.28,0,7.94V57.05a6.1,6.1,0,0,0-.39,2.21l.19,0c-.37.36.08.77.2,1.1v.24a.4.4,0,0,1-.25.22l0-.06c-.21.15,0,.31.29.47V62.4a.56.56,0,0,0,0,.13v.34c0,.1-.15.17-.42.18,0-.19-.38.3-.58-.13-.1.12-.05.71.36.65s.73.21,1,0h9.57V57.2c.08.63.15,1.27.2,1.92,0,0-.1,0-.13-.09s.26.24.24.37-.13,0-.15-.08c-.44.5.28,1.47-.06,1.78a.26.26,0,0,0,.37.13c0,1,.09,1.94.14,3l-2.3.16c-.57.06-1.13.14-1.69.24-.09-.06-.11-.18-.08-.33-1.61.71-3.31.43-4.95.31-.07.19.16.2,0,.4.53.23,1-.46,1.45-.12l-.06.18c.35.12.07-.46.44-.22.14.15,0,.23,0,.24a4.6,4.6,0,0,0,2.22-.35c.17.39.8,0,1.07.39.2-.16.39-.12.46-.38l.7,0,.9,0h2.37c0-1.42-.08-3.13-.12-3.74,0-.85-.07-1.71-.06-2.57-.76-1.25.14-2.75-.11-4.23h.07a3.85,3.85,0,0,1-.18-1.77l-.32-.48a28,28,0,0,0,.38-5.25V43.48a.47.47,0,0,1,.13-.33l.31-.44a6,6,0,0,1,.38-.47,5.5,5.5,0,0,1,3.76-2c.68-.08,1.43.06,2.18,0a6,6,0,0,1,.68,0h.75a2.65,2.65,0,0,0,1.83-.59,2,2,0,0,0,.62-1.37c.06,0,.12,0,.11.16,0-.2.06-.43.08-.58ZM415.78,41a5.81,5.81,0,0,1,.43-.43,1.46,1.46,0,0,1-.43.43m.64-.6.14-.11c0,.06-.09.1-.13.17Zm1.14-.76a6.42,6.42,0,0,1,1.67-.55,2,2,0,0,1-1.3.49l-.37.06m2-.6h.14a.31.31,0,0,0,0,.09l-.15-.08"/><polygon class="cls-3" points="441.55 54.74 441.5 54.99 441.57 54.83 441.55 54.74"/><path class="cls-3" d="M441.45,54.84c-.05-.41-.18.8-.23.53v.17a6.35,6.35,0,0,0,.23-.7"/><path class="cls-3" d="M441.17,55.29c-.06-.17-.13.16-.16.27.06-.25.14.1.16-.27"/><polygon class="cls-3" points="451.74 65.27 451.93 65.02 451.66 65.18 451.74 65.27"/><path class="cls-3" d="M452.12,65.17c.33.4.58-.82.8-.55,0,0,0-.12-.06-.16Z"/><path class="cls-3" d="M453.13,64.69c.29.17.41-.16.47-.28-.1.26-.53-.08-.47.28"/><path class="cls-3" d="M459.34,60.51c-.15-.27-.11-.53-.37-.63.21-3.59-.17-7.25-.15-10.92-.76-1.72.15-3.78-.1-5.82h.07a7.08,7.08,0,0,1-.18-2.42l-.32-.68c.66-4.77.2-9.65.47-14.5.08-1.77.16-3.48.23-5.14,0-.84.06-1.67.08-2.49V16.33l0-2.13-2.38.06-.57,0-.34,0-.7.06c-.93.09-1.87.22-2.83.4,0-.07,0-.11.1-.14a16.78,16.78,0,0,1-2.24,0l-.55,0h-.81c-.53,0-1.07,0-1.56.06l-.07-.08H447c.07.75.13,1.42.17,2.07,0,.5.06,1,.08,1.51,0,.92,0,1.85,0,2.78a27.09,27.09,0,0,0,.31,5.44c0,1,0,1.94,0,3,0,.43,0,.87,0,1.32v.68c0,.17.1.65-.16.34a10.28,10.28,0,0,0-1.26-.85c-.23-.13-.46-.24-.72-.36a8.41,8.41,0,0,0-.87-.37,10.4,10.4,0,0,0-3.69-.58l0-.15a22.89,22.89,0,0,0-5.35.71,10.19,10.19,0,0,0-4.69,2.77,10.36,10.36,0,0,0-3.12,4.81c-.25.71-.45,1.42-.63,2.13l-.1.27a20,20,0,0,0-.61,2.48c-.06.2-.11.41-.16.61a6.27,6.27,0,0,0-.26,3.74V47a30.76,30.76,0,0,0,.23,3.82,10.89,10.89,0,0,0,1.23,6.37,11.15,11.15,0,0,0,2.81,3.4,10.79,10.79,0,0,0,3,2.33,10.3,10.3,0,0,0,4.82,1.16,13.82,13.82,0,0,0,3.17-.34,12.25,12.25,0,0,0,4.83-2.27,7.26,7.26,0,0,0,2.13-1.38l0-.29a.17.17,0,0,0,.06.06v.2a.52.52,0,0,0,.07.22c.07.1.17.13.28.21a.61.61,0,0,1,.18.18l.09.31a.7.7,0,0,1-.12.45l-.05,0c-.13.31.12.29.41.41h0l0,.08a2.25,2.25,0,0,0,.82,1.19h0l.05.06h0a.72.72,0,0,0,.26.14c.28.1.55.13.48.61-.33-.07.44.49-.36.51.21.21,1.28.23,1.16-.21,0-.23.14-.44.16-.64h6V47.26c.07.87.15,1.74.2,2.64,0,0-.1-.07-.13-.12.09.15.26.33.24.5s-.13,0-.15-.1c-.44.69.28,2-.06,2.45a.23.23,0,0,0,.37.17c.11,2.55.19,5.28.54,7.88-.06.12-.18.14-.33.11q.11.35.18.69l.08.34c0,.12,0,.35.06.52.07.76.11,1.56.13,2.36h-1.68c-.53,0-1.23,0-1.47,0l-2-.12c-.08.19.24.2,0,.4.73.23,1.34-.46,2-.12l-.08.18c.24.06.26-.06.29-.16s0-.18.43-.06-.06.23.11.24c.9,0,1.82,0,2.71,0a13,13,0,0,0-.31-3c.39-.38,0-1.14.38-1.55M437.07,41.66l-.11,0s0,0,0-.06l.09,0m-.3.69.15-.51c.28.37,0,.56-.21.8l.06-.29m-.17.84a.3.3,0,0,0,0,.11l-.06,0s0-.05,0-.08m0,.21a.29.29,0,0,1,0,.29,2.54,2.54,0,0,1,0-.29m.67,9a.2.2,0,0,1-.15,0c-.36.35.47.55.21.79.06.05.25,0,.36-.08a3,3,0,0,0,1.7,1.6.7.7,0,0,1-.19.27,1.73,1.73,0,0,1,1,.05c.26.1.52.28.82.38,0-.19,0-.21,0-.4-.12-.25-.42.4-.5,0l.07-.17c-.08-.14-.15.43-.2.17s.08-.21.06-.23c-.26,0-.38-.24-.78,0,.18-.36-.2-.17,0-.51-.15.08-.17,0-.36.18a8.34,8.34,0,0,1-1.52-2.7c-.88-.36-.12-1.2-.44-1.8h.07a.77.77,0,0,1-.25-.76l-.34-.2c.56-1.61.1-3.24.56-4.78a18.57,18.57,0,0,1,.82-2.36,7.59,7.59,0,0,0,.51-2.36c.06,0,.1,0,.1.11.16-.48.64-.6.85-1l.05.06a1.73,1.73,0,0,1,1.3-1,6.26,6.26,0,0,0,1.66-.56,8.87,8.87,0,0,1,4.26,1.19l-.1.12c1.51.51.28,1.87.6,3.06-.24.88.27,1.79.45,2.68v1c0,.06,0,.12,0,.19-.36.38-.17.83,0,1.27V48c-.91,1.25-.55,2.47,0,3.71v1.61a12.16,12.16,0,0,1-1.3,1.36,7.57,7.57,0,0,1-1.4,1c-.2.1-.42.19-.63.28a1.8,1.8,0,0,0-1.06-.07l.06.18c-.21-.31-.31.11-.44.28l-.14,0a.5.5,0,0,1-.12-.22l0,0c-.09-.2-.13.06-.18.31-.25,0-.53,0-.8.05a.81.81,0,0,1-.08-.41c.09,0-.14-.37,0-.58,0-.1-.3,0-.27.37,0,.22-.05.43-.06.63a4.7,4.7,0,0,1-2.1-.48,4.1,4.1,0,0,1-1.65-1.59,9.2,9.2,0,0,1-1.08-2.89l.42.82H437c.11,0,.29,0,.28.1M457.84,18a.4.4,0,0,0,.11,0l-.11.19Zm0,6.22v-.89a2,2,0,0,1,0,.89m0-1.27v-.27a1.83,1.83,0,0,0,.07.32Zm0-1.86V18.67a3.84,3.84,0,0,1,0,2.46"/><path class="cls-3" d="M458,50.18v0s0,0,0,0"/></g><path class="cls-3" d="M178.73,2.64H176v7.47h-1.4V2.64h-2.7V1.47h6.79Z"/><path class="cls-3" d="M187.55,1.47v8.64h-1.4V6.26h-4.34v3.85H180.4V1.47h1.41V5.25h4.34V1.47Z"/><path class="cls-3" d="M195.47,9v1.14h-5.39V1.47h5.39V2.6h-4V5.2h3.18V6.3h-3.18V9Z"/><path class="cls-3" d="M206.07,9.13v1h-4.71v-1h1.8V3.72c0-.2,0-.39,0-.59L201.79,4.3a.34.34,0,0,1-.18.09.33.33,0,0,1-.17,0l-.15,0-.09-.09-.41-.56,2.61-2.24h1V9.13Z"/><path class="cls-3" d="M213.51,9.13v1H208.8v-1h1.8V3.72c0-.2,0-.39,0-.59L209.23,4.3a.38.38,0,0,1-.18.09.33.33,0,0,1-.17,0l-.15,0-.1-.09-.4-.56,2.61-2.24h1V9.13Z"/><path class="cls-3" d="M221.76,2.64h-2.69v7.47h-1.4V2.64H215V1.47h6.79Z"/><path class="cls-3" d="M230.58,1.47v8.64h-1.4V6.26h-4.34v3.85h-1.41V1.47h1.41V5.25h4.34V1.47Z"/><path class="cls-3" d="M243.4,10.11h-1.09a.49.49,0,0,1-.3-.1.66.66,0,0,1-.17-.23l-.72-1.91H237.4l-.72,1.91a.51.51,0,0,1-.17.22.44.44,0,0,1-.3.11h-1.09l3.43-8.64H240Zm-2.66-3.24-1.19-3.16c-.09-.24-.19-.55-.29-.93,0,.19-.09.36-.15.52l-.14.42-1.19,3.15Z"/><path class="cls-3" d="M252,1.47v8.64h-.72a.54.54,0,0,1-.27-.06.64.64,0,0,1-.22-.19l-4.75-6.1a2.07,2.07,0,0,1,0,.35c0,.11,0,.22,0,.31v5.69h-1.24V1.47h.89a.27.27,0,0,1,.12,0,.3.3,0,0,1,.1.07l.1.12,4.75,6.1c0-.12,0-.24,0-.36s0-.24,0-.34V1.47Z"/><path class="cls-3" d="M261.7,1.47v8.64H261a.61.61,0,0,1-.28-.06.72.72,0,0,1-.21-.19l-4.75-6.1,0,.35c0,.11,0,.22,0,.31v5.69h-1.24V1.47h.89a.2.2,0,0,1,.11,0,.34.34,0,0,1,.11.07l.1.12,4.75,6.1,0-.36c0-.12,0-.24,0-.34V1.47Z"/><path class="cls-3" d="M267.64,9a2.11,2.11,0,0,0,.89-.17,2,2,0,0,0,.67-.46,1.93,1.93,0,0,0,.41-.73,2.77,2.77,0,0,0,.15-.94V1.47h1.39v5.2a4,4,0,0,1-.24,1.41,3,3,0,0,1-.7,1.12,3.14,3.14,0,0,1-1.1.74,4.14,4.14,0,0,1-2.94,0,3.27,3.27,0,0,1-1.11-.74,3.11,3.11,0,0,1-.69-1.12,3.8,3.8,0,0,1-.25-1.41V1.47h1.41v5.2a2.85,2.85,0,0,0,.14.94,2.12,2.12,0,0,0,.41.72,1.89,1.89,0,0,0,.67.47A2.11,2.11,0,0,0,267.64,9Z"/><path class="cls-3" d="M280.61,10.11h-1.09a.49.49,0,0,1-.3-.1.66.66,0,0,1-.17-.23l-.72-1.91h-3.72l-.72,1.91a.51.51,0,0,1-.17.22.44.44,0,0,1-.3.11h-1.08l3.42-8.64h1.42ZM278,6.87l-1.19-3.16c-.09-.24-.19-.55-.29-.93,0,.19-.09.36-.14.52s-.1.3-.15.42L275,6.87Z"/><path class="cls-3" d="M287.08,8.93v1.18h-5V1.47h1.4V8.93Z"/><path class="cls-3" d="M114.23,87.14h-2.69v7.47h-1.4V87.14h-2.7V86h6.79Z"/><path class="cls-3" d="M124.25,86v8.64h-1.4V90.76h-4.34v3.85H117.1V86h1.41v3.78h4.34V86Z"/><path class="cls-3" d="M133.37,93.48v1.13H128V86h5.38V87.1h-4v2.61h3.18v1.1h-3.18v2.67Z"/><path class="cls-3" d="M145.74,87.44a.38.38,0,0,1-.14.16.24.24,0,0,1-.18.05.48.48,0,0,1-.25-.09,2.69,2.69,0,0,0-.35-.21,3.24,3.24,0,0,0-.49-.22,1.93,1.93,0,0,0-.67-.1,2,2,0,0,0-.63.09,1.34,1.34,0,0,0-.46.25,1,1,0,0,0-.28.38,1.28,1.28,0,0,0-.09.48.84.84,0,0,0,.17.55,1.42,1.42,0,0,0,.46.37,3.53,3.53,0,0,0,.65.28l.75.25a6.74,6.74,0,0,1,.74.3,2.42,2.42,0,0,1,.65.42,1.83,1.83,0,0,1,.46.63,2.08,2.08,0,0,1,.18.91,3,3,0,0,1-.2,1.08,2.57,2.57,0,0,1-.57.88,2.6,2.6,0,0,1-.93.59,3.45,3.45,0,0,1-1.25.21,3.71,3.71,0,0,1-.81-.08,4.63,4.63,0,0,1-.75-.22,3.82,3.82,0,0,1-.66-.36,3.24,3.24,0,0,1-.56-.47l.41-.67a.33.33,0,0,1,.13-.13.32.32,0,0,1,.19,0,.53.53,0,0,1,.31.13c.11.08.24.18.4.28a3,3,0,0,0,.57.28,2.22,2.22,0,0,0,.81.13,1.7,1.7,0,0,0,1.18-.37,1.33,1.33,0,0,0,.41-1,.92.92,0,0,0-.17-.59,1.35,1.35,0,0,0-.46-.39,3.52,3.52,0,0,0-.65-.26l-.74-.24a6.77,6.77,0,0,1-.75-.28,2.4,2.4,0,0,1-.65-.44,1.9,1.9,0,0,1-.46-.66,2.53,2.53,0,0,1-.17-1,2.33,2.33,0,0,1,.18-.9,2.19,2.19,0,0,1,.54-.78,2.43,2.43,0,0,1,.86-.54,3.14,3.14,0,0,1,1.18-.21,3.74,3.74,0,0,1,1.36.24,2.93,2.93,0,0,1,1.07.66Z"/><path class="cls-3" d="M155.38,87.14h-2.69v7.47h-1.4V87.14h-2.7V86h6.79Z"/><path class="cls-3" d="M164.64,94.61h-1.08a.45.45,0,0,1-.3-.09.61.61,0,0,1-.18-.24l-.72-1.9h-3.72l-.72,1.9a.6.6,0,0,1-.17.23.49.49,0,0,1-.3.1h-1.08L159.79,86h1.43ZM162,91.37l-1.18-3.16a7.34,7.34,0,0,1-.3-.93c0,.19-.09.36-.14.52s-.1.3-.15.42L159,91.37Z"/><path class="cls-3" d="M172.42,87.14h-2.69v7.47h-1.4V87.14h-2.7V86h6.79Z"/><path class="cls-3" d="M180.69,93.48v1.13h-5.39V86h5.39V87.1h-4v2.61h3.18v1.1H176.7v2.67Z"/><path class="cls-3" d="M196.66,90.29a5.06,5.06,0,0,1-.31,1.77,4.23,4.23,0,0,1-.88,1.39,4.08,4.08,0,0,1-1.37.92,4.86,4.86,0,0,1-3.52,0,4,4,0,0,1-2.25-2.31,5.21,5.21,0,0,1,0-3.54,4,4,0,0,1,2.25-2.32,4.86,4.86,0,0,1,3.52,0,4.08,4.08,0,0,1,1.37.92,4.27,4.27,0,0,1,.88,1.4A5.06,5.06,0,0,1,196.66,90.29Zm-1.44,0A4,4,0,0,0,195,89a2.86,2.86,0,0,0-.57-1,2.52,2.52,0,0,0-.91-.63,3.25,3.25,0,0,0-2.4,0,2.52,2.52,0,0,0-.91.63,2.87,2.87,0,0,0-.58,1,4.59,4.59,0,0,0,0,2.68,2.79,2.79,0,0,0,.58,1,2.65,2.65,0,0,0,.91.63,3.38,3.38,0,0,0,2.4,0,2.65,2.65,0,0,0,.91-.63,2.77,2.77,0,0,0,.57-1A4,4,0,0,0,195.22,90.29Z"/><path class="cls-3" d="M201.27,87.1v2.77h3.38V91h-3.38v3.61h-1.41V86h5.39V87.1Z"/><path class="cls-3" d="M220.29,90.29A4.7,4.7,0,0,1,220,92a4,4,0,0,1-.88,1.37,3.94,3.94,0,0,1-1.36.88,4.77,4.77,0,0,1-1.77.32h-3.26V86H216a4.77,4.77,0,0,1,1.77.31A3.92,3.92,0,0,1,220,88.53,4.75,4.75,0,0,1,220.29,90.29Zm-1.43,0a4.29,4.29,0,0,0-.2-1.34,2.89,2.89,0,0,0-.58-1,2.56,2.56,0,0,0-.91-.63,3.25,3.25,0,0,0-1.2-.22h-1.85v6.38H216a3.25,3.25,0,0,0,1.2-.22,2.44,2.44,0,0,0,.91-.63,2.89,2.89,0,0,0,.58-1A4.24,4.24,0,0,0,218.86,90.29Z"/><path class="cls-3" d="M222.81,93.86a.87.87,0,0,1,.06-.32,1,1,0,0,1,.18-.27.81.81,0,0,1,.26-.18.88.88,0,0,1,.33-.07,1,1,0,0,1,.33.07.85.85,0,0,1,.44.45.71.71,0,0,1,.07.32.7.7,0,0,1-.07.33.8.8,0,0,1-.18.27,1,1,0,0,1-.26.18,1,1,0,0,1-.33.06.88.88,0,0,1-.33-.06,1,1,0,0,1-.26-.18,1,1,0,0,1-.18-.27A.84.84,0,0,1,222.81,93.86Z"/><path class="cls-3" d="M233.5,92.68a.25.25,0,0,1,.2.09l.56.61a3.52,3.52,0,0,1-1.3,1,4.43,4.43,0,0,1-1.83.34,4.29,4.29,0,0,1-1.72-.32,3.77,3.77,0,0,1-1.3-.91,4,4,0,0,1-.83-1.4,5.08,5.08,0,0,1-.29-1.78,5,5,0,0,1,.31-1.79,3.9,3.9,0,0,1,.87-1.39,3.79,3.79,0,0,1,1.34-.91,4.41,4.41,0,0,1,1.73-.33A4.1,4.1,0,0,1,234.13,87l-.46.66a.57.57,0,0,1-.11.11.35.35,0,0,1-.18,0,.56.56,0,0,1-.28-.11,3,3,0,0,0-.39-.25,2.57,2.57,0,0,0-.59-.24,2.86,2.86,0,0,0-.89-.12,3,3,0,0,0-1.13.22,2.26,2.26,0,0,0-.89.63,2.94,2.94,0,0,0-.58,1,4,4,0,0,0-.21,1.35,3.84,3.84,0,0,0,.22,1.36,3,3,0,0,0,.59,1,2.51,2.51,0,0,0,.89.62,2.67,2.67,0,0,0,1.1.22,4.14,4.14,0,0,0,.64,0,2.74,2.74,0,0,0,.53-.13,1.88,1.88,0,0,0,.45-.22,2.34,2.34,0,0,0,.42-.32A.37.37,0,0,1,233.5,92.68Z"/><path class="cls-3" d="M236.71,93.86a.87.87,0,0,1,.06-.32,1,1,0,0,1,.17-.27,1,1,0,0,1,.27-.18.79.79,0,0,1,.65,0,.83.83,0,0,1,.45.45.87.87,0,0,1,.06.32.84.84,0,0,1-.06.33,1,1,0,0,1-.18.27,1.27,1.27,0,0,1-.27.18.88.88,0,0,1-.33.06.87.87,0,0,1-.32-.06,1.27,1.27,0,0,1-.27-.18,1,1,0,0,1-.17-.27A.84.84,0,0,1,236.71,93.86Z"/><path class="cls-3" d="M241,85.39a2.91,2.91,0,0,1,.36,1,2.7,2.7,0,0,1,0,1,2.73,2.73,0,0,1-.33.93,2.6,2.6,0,0,1-.66.79l-.4-.25a.16.16,0,0,1-.09-.17.22.22,0,0,1,.07-.16,2.12,2.12,0,0,0,.25-.43,2.42,2.42,0,0,0,.15-.56,2.11,2.11,0,0,0,0-.66,1.86,1.86,0,0,0-.26-.67.32.32,0,0,1-.05-.27.29.29,0,0,1,.17-.17Z"/><path class="cls-3" d="M249.16,87.44a.46.46,0,0,1-.14.16.27.27,0,0,1-.18.05.51.51,0,0,1-.26-.09,2.53,2.53,0,0,0-.34-.21,3.77,3.77,0,0,0-.49-.22,2.31,2.31,0,0,0-1.31,0,1.56,1.56,0,0,0-.46.25,1.08,1.08,0,0,0-.37.86.9.9,0,0,0,.17.55,1.42,1.42,0,0,0,.46.37,3.36,3.36,0,0,0,.66.28l.74.25a6.9,6.9,0,0,1,.75.3,2.59,2.59,0,0,1,.65.42,2,2,0,0,1,.46.63,2.08,2.08,0,0,1,.17.91,2.8,2.8,0,0,1-.2,1.08,2.57,2.57,0,0,1-.57.88,2.65,2.65,0,0,1-.92.59,3.49,3.49,0,0,1-1.25.21,3.59,3.59,0,0,1-.81-.08,4.63,4.63,0,0,1-.75-.22,3.91,3.91,0,0,1-.67-.36,3.67,3.67,0,0,1-.56-.47l.41-.67a.35.35,0,0,1,.14-.13.29.29,0,0,1,.18,0,.49.49,0,0,1,.31.13l.41.28a2.75,2.75,0,0,0,.57.28,2.13,2.13,0,0,0,.8.13,1.7,1.7,0,0,0,1.18-.37,1.31,1.31,0,0,0,.42-1,.92.92,0,0,0-.18-.59,1.23,1.23,0,0,0-.45-.39,3.36,3.36,0,0,0-.66-.26l-.74-.24a6.61,6.61,0,0,1-.74-.28,2.26,2.26,0,0,1-.65-.44,1.78,1.78,0,0,1-.46-.66,2.35,2.35,0,0,1-.18-1,2.17,2.17,0,0,1,.19-.9,2.3,2.3,0,0,1,.53-.78,2.38,2.38,0,0,1,.87-.54,3.05,3.05,0,0,1,1.17-.21,3.79,3.79,0,0,1,1.37.24,3,3,0,0,1,1.07.66Z"/><path class="cls-3" d="M263.09,87.14H260.4v7.47H259V87.14h-2.7V86h6.79Z"/><path class="cls-3" d="M272.54,94.61h-1.26a.6.6,0,0,1-.54-.29l-2-2.91a.77.77,0,0,0-.22-.22.84.84,0,0,0-.36-.06h-.78v3.48H266V86h2.55a5.68,5.68,0,0,1,1.46.17,2.73,2.73,0,0,1,1,.5,1.92,1.92,0,0,1,.59.77,2.48,2.48,0,0,1,.19,1,2.55,2.55,0,0,1-.14.84,2.34,2.34,0,0,1-.39.71,2.75,2.75,0,0,1-.62.55,3.12,3.12,0,0,1-.85.37,1.39,1.39,0,0,1,.44.43Zm-4.07-4.5a2.66,2.66,0,0,0,.84-.12,1.58,1.58,0,0,0,.6-.33,1.28,1.28,0,0,0,.36-.5,1.62,1.62,0,0,0,.12-.64,1.31,1.31,0,0,0-.47-1.08,2.22,2.22,0,0,0-1.41-.37h-1.14v3Z"/><path class="cls-3" d="M280.64,93.48v1.13h-5.39V86h5.39V87.1h-4v2.61h3.18v1.1h-3.18v2.67Z"/><path class="cls-3" d="M289.24,93.48v1.13h-5.39V86h5.39V87.1h-4v2.61h3.18v1.1h-3.18v2.67Z"/><path class="cls-3" d="M297,87.44a.38.38,0,0,1-.14.16.24.24,0,0,1-.18.05.48.48,0,0,1-.25-.09,2.69,2.69,0,0,0-.35-.21,3.24,3.24,0,0,0-.49-.22,1.93,1.93,0,0,0-.67-.1,2,2,0,0,0-.63.09,1.44,1.44,0,0,0-.46.25,1,1,0,0,0-.28.38,1.28,1.28,0,0,0-.09.48.84.84,0,0,0,.17.55,1.42,1.42,0,0,0,.46.37,3.53,3.53,0,0,0,.65.28l.75.25a6.74,6.74,0,0,1,.74.3,2.27,2.27,0,0,1,.65.42,1.71,1.71,0,0,1,.46.63,2.08,2.08,0,0,1,.18.91,3,3,0,0,1-.2,1.08,2.57,2.57,0,0,1-.57.88,2.6,2.6,0,0,1-.93.59,3.45,3.45,0,0,1-1.25.21,3.56,3.56,0,0,1-.8-.08,4.11,4.11,0,0,1-.75-.22,3.57,3.57,0,0,1-.67-.36,3.24,3.24,0,0,1-.56-.47l.41-.67a.33.33,0,0,1,.13-.13.32.32,0,0,1,.19,0,.53.53,0,0,1,.31.13c.11.08.24.18.4.28a3,3,0,0,0,.57.28,2.22,2.22,0,0,0,.81.13,1.7,1.7,0,0,0,1.18-.37,1.3,1.3,0,0,0,.41-1,.92.92,0,0,0-.17-.59,1.35,1.35,0,0,0-.46-.39,3.52,3.52,0,0,0-.65-.26l-.74-.24a6.77,6.77,0,0,1-.75-.28,2.4,2.4,0,0,1-.65-.44,1.9,1.9,0,0,1-.46-.66,2.53,2.53,0,0,1-.17-1,2.33,2.33,0,0,1,.18-.9,2.19,2.19,0,0,1,.54-.78,2.43,2.43,0,0,1,.86-.54,3.14,3.14,0,0,1,1.18-.21,3.74,3.74,0,0,1,1.36.24,2.93,2.93,0,0,1,1.07.66Z"/><path class="cls-3" d="M302,85.36h1V96.69h-1Z"/><path class="cls-3" d="M312.91,93.39a.45.45,0,0,1,.33.12.45.45,0,0,1,.12.32v.78h-5.85v-.44a.66.66,0,0,1,.06-.27.65.65,0,0,1,.17-.27l2.69-2.69c.23-.23.43-.45.61-.66a4.84,4.84,0,0,0,.45-.62,3,3,0,0,0,.29-.63,2.2,2.2,0,0,0,.1-.68,1.57,1.57,0,0,0-.11-.6,1.11,1.11,0,0,0-.28-.43,1.22,1.22,0,0,0-.44-.26,1.69,1.69,0,0,0-.56-.09,1.63,1.63,0,0,0-.55.09,1.42,1.42,0,0,0-.44.23,1.22,1.22,0,0,0-.32.36,1.39,1.39,0,0,0-.19.45.67.67,0,0,1-.23.33.65.65,0,0,1-.41,0l-.68-.12a3.19,3.19,0,0,1,.34-1.08,2.48,2.48,0,0,1,.62-.77,2.71,2.71,0,0,1,.87-.47,3.62,3.62,0,0,1,1.06-.16,3.27,3.27,0,0,1,1.06.17,2.53,2.53,0,0,1,.83.49,2.09,2.09,0,0,1,.55.76,2.58,2.58,0,0,1,.2,1,2.81,2.81,0,0,1-.14.89,4,4,0,0,1-.38.78,5.37,5.37,0,0,1-.56.72c-.22.23-.44.47-.68.71l-2.09,2.14.52-.12a3,3,0,0,1,.5,0Z"/><path class="cls-3" d="M320.59,90.29a7.1,7.1,0,0,1-.24,2,4.08,4.08,0,0,1-.67,1.37,2.69,2.69,0,0,1-1,.82,3.11,3.11,0,0,1-2.49,0,2.77,2.77,0,0,1-1-.82,4.07,4.07,0,0,1-.66-1.37,7.1,7.1,0,0,1-.24-2,7.18,7.18,0,0,1,.24-2,4.07,4.07,0,0,1,.66-1.37,2.84,2.84,0,0,1,1-.81,3,3,0,0,1,2.49,0,2.76,2.76,0,0,1,1,.81,4.08,4.08,0,0,1,.67,1.37A7.18,7.18,0,0,1,320.59,90.29Zm-1.33,0a7.18,7.18,0,0,0-.15-1.6,3.27,3.27,0,0,0-.41-1,1.47,1.47,0,0,0-2.53,0,3.05,3.05,0,0,0-.4,1,8.61,8.61,0,0,0,0,3.2,3.24,3.24,0,0,0,.4,1,1.51,1.51,0,0,0,.58.55,1.55,1.55,0,0,0,1.37,0,1.51,1.51,0,0,0,.58-.55,3.49,3.49,0,0,0,.41-1A7.18,7.18,0,0,0,319.26,90.29Z"/><path class="cls-3" d="M327.08,93.63v1h-4.71v-1h1.8V88.22c0-.19,0-.39,0-.59l-1.38,1.17a.41.41,0,0,1-.19.09.33.33,0,0,1-.17,0,.39.39,0,0,1-.15-.06.38.38,0,0,1-.09-.09l-.41-.56L324.41,86h1v7.68Z"/><path class="cls-3" d="M332.72,90.1a2.34,2.34,0,0,1,1.2.78,2.14,2.14,0,0,1,.4,1.33,2.32,2.32,0,0,1-.22,1,2.22,2.22,0,0,1-.6.79,2.9,2.9,0,0,1-.94.5,4.32,4.32,0,0,1-2.4,0,3,3,0,0,1-.93-.5,2.24,2.24,0,0,1-.61-.79,2.47,2.47,0,0,1-.22-1,2.21,2.21,0,0,1,.4-1.33,2.38,2.38,0,0,1,1.2-.78,2,2,0,0,1-1-.75,2.15,2.15,0,0,1-.32-1.18,2.15,2.15,0,0,1,.73-1.63,2.63,2.63,0,0,1,.85-.49,3.1,3.1,0,0,1,1.08-.18,3.06,3.06,0,0,1,1.08.18,2.48,2.48,0,0,1,.84.49,2,2,0,0,1,.55.73,2.21,2.21,0,0,1-.13,2.08A2,2,0,0,1,332.72,90.1Zm-1.36,3.59a1.94,1.94,0,0,0,.7-.12,1.32,1.32,0,0,0,.51-.31,1.35,1.35,0,0,0,.32-.48,1.63,1.63,0,0,0,.1-.59,1.78,1.78,0,0,0-.12-.69,1.39,1.39,0,0,0-.34-.48,1.53,1.53,0,0,0-.52-.28,2.39,2.39,0,0,0-1.3,0,1.53,1.53,0,0,0-.52.28,1.39,1.39,0,0,0-.34.48,1.78,1.78,0,0,0-.12.69,1.63,1.63,0,0,0,.11.59,1.21,1.21,0,0,0,.31.48,1.29,1.29,0,0,0,.52.31A1.85,1.85,0,0,0,331.36,93.69Zm0-6.83a1.71,1.71,0,0,0-.62.11,1.25,1.25,0,0,0-.44.29,1.14,1.14,0,0,0-.26.42,1.48,1.48,0,0,0-.09.51,1.89,1.89,0,0,0,.08.53,1.19,1.19,0,0,0,.24.46,1.08,1.08,0,0,0,.43.32,1.87,1.87,0,0,0,1.32,0,1.12,1.12,0,0,0,.44-.32,1.19,1.19,0,0,0,.24-.46,1.88,1.88,0,0,0,.07-.53,1.48,1.48,0,0,0-.09-.51,1,1,0,0,0-.26-.42A1.25,1.25,0,0,0,332,87,1.67,1.67,0,0,0,331.36,86.86Z"/></svg>